<svg width="24" height="24" viewBox="0 0 24 24" xmlns="http://www.w3.org/2000/svg">
    <path d="M22.66 2.67H18.66V4H5.34V2.67H1.34V6.67H2.67V17.33H1.34V21.33H5.34V20H18.66V21.33H22.66V17.33H21.33V6.67H22.66V2.67ZM20 4H21.33V5.34H20V4ZM4 4V5.34H2.67V4H4ZM2.67 20V18.66H4V20H2.67ZM18.67 18.67H5.34V17.33H4V6.67H5.34V5.34H18.66V6.67H20V17.33H18.66V18.66L18.67 18.67ZM20 20V18.66H21.33V20H20ZM14.67 6.67H5.34V14.67H9.34V17.34H18.67V9.34H14.67V6.67ZM6.67 13.33V8H13.33V13.33H6.67ZM17.33 16H10.67V14.67H14.67V10.67H17.34V16H17.33Z"/>
</svg>
