<svg width="24" height="24" viewBox="0 0 24 24" xmlns="http://www.w3.org/2000/svg">
<path fill-rule="evenodd" clip-rule="evenodd" d="M17.0354 4H5.34003V2.67H1.34003V6.67H2.67003V17.33H1.34003V21.33H5.34003V20H18.66V21.33H22.66V17.33H21.33V6.90099C21.064 6.9657 20.786 7 20.5 7C20.3302 7 20.1633 6.98792 20 6.96456V17.33H18.67V9.34H14.67V6.67H5.34003V5.34H17.5221C17.2743 4.93984 17.105 4.48602 17.0354 4ZM18.05 4C18.2816 5.14112 19.2905 6 20.5 6C21.4214 6 22.2264 5.50151 22.66 4.75949V2.67H18.66V4H18.05ZM18.66 6.4779V6.67H19.0144C18.8923 6.61265 18.774 6.54846 18.66 6.4779ZM18.66 17.34V18.66L18.67 18.67H5.34003V17.33H4.00003V6.67H5.34003V14.67H9.34003V17.34H18.66ZM21.9856 6.67H22.66V6.25415C22.4528 6.41692 22.2267 6.55681 21.9856 6.67ZM21.33 4H20V5.34H21.33V4ZM4.00003 5.34V4H2.67003V5.34H4.00003ZM2.67003 18.66V20H4.00003V18.66H2.67003ZM20 18.66V20H21.33V18.66H20ZM6.67003 8V13.33H13.33V8H6.67003ZM10.67 16H17.33H17.34V10.67H14.67V14.67H10.67V16Z"/>
<circle cx="20.5" cy="3.5" r="2.5" fill="#D9A54C"/>
</svg>
