<svg width="24" height="24" viewBox="0 0 24 24" xmlns="http://www.w3.org/2000/svg">
<path fill-rule="evenodd" clip-rule="evenodd" d="M16.9665 6.19168L12.6872 2.18266C12.562 2.06531 12.3968 2 12.2252 2H4.20723C3.58626 2 3.0811 2.5052 3.0811 3.12613V18.6892C3.0811 19.3101 3.5863 19.8153 4.20723 19.8153H11.3444C12.3075 21.1384 13.8681 22 15.6261 22C18.5446 22 20.919 19.6257 20.919 16.7072C20.919 14.3293 19.3427 12.3126 17.1802 11.6471V6.68469C17.1802 6.49797 17.1027 6.31938 16.9665 6.19168ZM10.3334 16.7072C10.3334 17.3227 10.439 17.914 10.633 18.4639H4.43243V3.35137H11.5493V6.68469C11.5493 7.05789 11.8517 7.36035 12.2249 7.36035H15.8288V11.4182C15.7616 11.4157 15.694 11.4144 15.6261 11.4144C12.7077 11.4144 10.3334 13.7887 10.3334 16.7072ZM14.795 6.00899L12.9007 4.23437V6.00899H14.795ZM15.6261 20.6486C13.4529 20.6486 11.6847 18.8806 11.6847 16.7072C11.6847 14.5337 13.4529 12.7657 15.6261 12.7657C17.7993 12.7657 19.5676 14.534 19.5676 16.7072C19.5676 18.8804 17.7993 20.6486 15.6261 20.6486ZM14.9505 14.6577C14.9505 14.2845 15.2529 13.982 15.6261 13.982C15.9993 13.982 16.3018 14.2845 16.3018 14.6577V16.0315H17.6982C18.0714 16.0315 18.3739 16.334 18.3739 16.7072C18.3739 17.0804 18.0714 17.3829 17.6982 17.3829H16.3018V18.7793C16.3018 19.1525 15.9993 19.455 15.6261 19.455C15.2529 19.455 14.9505 19.1525 14.9505 18.7793V17.3829H13.5764C13.2032 17.3829 12.9007 17.0804 12.9007 16.7072C12.9007 16.334 13.2032 16.0315 13.5764 16.0315H14.9505V14.6577Z"/>
</svg>
