<svg width="24" height="24" viewBox="0 0 24 24" xmlns="http://www.w3.org/2000/svg">
<path d="M7.0178 2.67855H5.30352C5.18566 2.67855 5.08923 2.77498 5.08923 2.89284V21.3214C5.08923 21.4393 5.18566 21.5357 5.30352 21.5357H7.0178C7.13566 21.5357 7.23209 21.4393 7.23209 21.3214V2.89284C7.23209 2.77498 7.13566 2.67855 7.0178 2.67855ZM18.9107 4.61784V2.67855C18.9107 2.49641 18.6991 2.3973 18.5598 2.51516L7.25888 12L18.5598 21.4848C18.6991 21.6027 18.9107 21.5035 18.9107 21.3214V19.3821C18.9107 19.1303 18.7982 18.8893 18.6053 18.7259L10.591 12L18.6053 5.27409C18.7982 5.11069 18.9107 4.86962 18.9107 4.61784Z"/>
</svg>
