<svg width="24" height="24" viewBox="0 0 24 24" xmlns="http://www.w3.org/2000/svg">
    <g clip-path="url(#clip0)">
        <path d="M21.2184 11.2188H4.67316L7.41395 8.49132C7.71977 8.18695 7.72094 7.6923 7.41656 7.38648C7.11219 7.08062 6.6175 7.07949 6.31168 7.38382L2.22949 11.4463C2.22922 11.4466 2.22902 11.4468 2.22879 11.4471C1.92375 11.7514 1.92277 12.2477 2.22871 12.5531C2.22898 12.5533 2.22918 12.5536 2.22941 12.5538L6.3116 16.6163C6.61738 16.9206 7.11207 16.9196 7.41648 16.6137C7.72086 16.3078 7.71969 15.8132 7.41387 15.5088L4.67316 12.7813H21.2184C21.6499 12.7813 21.9996 12.4316 21.9996 12.0001C21.9996 11.5686 21.6499 11.2188 21.2184 11.2188Z"/>
    </g>
    <defs>
        <clipPath id="clip0">
            <rect width="20" height="20" fill="white" transform="translate(2 2)"/>
        </clipPath>
    </defs>
</svg>
