<svg width="24" height="24" viewBox="0 0 24 24" xmlns="http://www.w3.org/2000/svg">
<path d="M18.6964 2.67858H16.9821C16.8642 2.67858 16.7678 2.77501 16.7678 2.89287V21.3214C16.7678 21.4393 16.8642 21.5357 16.9821 21.5357H18.6964C18.8142 21.5357 18.9107 21.4393 18.9107 21.3214V2.89287C18.9107 2.77501 18.8142 2.67858 18.6964 2.67858ZM5.08924 2.67858V4.61786C5.08924 4.87233 5.20174 5.11072 5.39459 5.27411L13.4089 12L5.39459 18.7259C5.20174 18.8893 5.08924 19.1277 5.08924 19.3822V21.3214C5.08924 21.5036 5.30084 21.6027 5.44013 21.4848L16.741 12L5.44013 2.51519C5.40908 2.48879 5.37111 2.47185 5.33073 2.46638C5.29034 2.46092 5.24923 2.46716 5.21229 2.48436C5.17534 2.50157 5.14411 2.52901 5.1223 2.56344C5.10049 2.59786 5.08901 2.63783 5.08924 2.67858Z"/>
</svg>
