<svg width="24" height="24" viewBox="0 0 24 24" xmlns="http://www.w3.org/2000/svg">
<path d="M19.0588 22C17.437 22 16.1176 20.6567 16.1176 19.0053V14.5134C16.1176 13.4524 16.9664 12.5882 18.0084 12.5882C19.0504 12.5882 19.8992 13.4524 19.8992 14.5134V18.7914C19.8992 19.1457 19.6168 19.4332 19.2689 19.4332C18.921 19.4332 18.6387 19.1457 18.6387 18.7914V14.5134C18.6387 14.16 18.3555 13.8717 18.0084 13.8717C17.6613 13.8717 17.3781 14.16 17.3781 14.5134V19.0053C17.3781 19.9491 18.1319 20.7166 19.0588 20.7166C19.9857 20.7166 20.7395 19.9491 20.7395 19.0053V13.2299C20.7395 12.8757 21.0218 12.5882 21.3697 12.5882C21.7176 12.5882 22 12.8757 22 13.2299V19.0053C22 20.6567 20.6807 22 19.0588 22Z"/>
<path d="M14.5837 20.8235H4.3366C3.04765 20.8235 2 19.7686 2 18.4706V4.35294C2 3.05497 3.04765 2 4.3366 2H14.9575C16.2465 2 17.2941 3.05497 17.2941 4.35294V11.6086C17.2941 11.9628 17.0086 12.2503 16.6569 12.2503C16.3051 12.2503 16.0196 11.9628 16.0196 11.6086V4.35294C16.0196 3.76342 15.5429 3.28342 14.9575 3.28342H4.3366C3.75118 3.28342 3.27451 3.76342 3.27451 4.35294V18.4706C3.27451 19.0601 3.75118 19.5401 4.3366 19.5401H14.5837C14.9354 19.5401 15.2209 19.8276 15.2209 20.1818C15.2209 20.536 14.9354 20.8235 14.5837 20.8235Z"/>
<path d="M14.2794 14.9412H5.0147C4.64941 14.9412 4.35294 14.6777 4.35294 14.3529C4.35294 14.0282 4.64941 13.7647 5.0147 13.7647H14.2794C14.6447 13.7647 14.9412 14.0282 14.9412 14.3529C14.9412 14.6777 14.6447 14.9412 14.2794 14.9412Z"/>
<path d="M14.2794 11.4118H5.0147C4.64941 11.4118 4.35294 11.1482 4.35294 10.8235C4.35294 10.4988 4.64941 10.2353 5.0147 10.2353H14.2794C14.6447 10.2353 14.9412 10.4988 14.9412 10.8235C14.9412 11.1482 14.6447 11.4118 14.2794 11.4118Z"/>
<path d="M9.60504 7.88235H4.98319C4.63529 7.88235 4.35294 7.61882 4.35294 7.29411C4.35294 6.96941 4.63529 6.70588 4.98319 6.70588H9.60504C9.95294 6.70588 10.2353 6.96941 10.2353 7.29411C10.2353 7.61882 9.95294 7.88235 9.60504 7.88235Z"/>
</svg>
