<svg width="24" height="24" viewBox="0 0 24 24" xmlns="http://www.w3.org/2000/svg">
<path fill-rule="evenodd" clip-rule="evenodd" d="M17.099 2.67H4.68003C4.32003 2.67 3.98003 2.81 3.74003 3.07C3.48003 3.31 3.34003 3.65 3.34003 4.01V20C3.35003 20.73 3.94003 21.32 4.67003 21.33H19.34C20.07 21.32 20.66 20.73 20.67 20V6.99594C20.6137 6.99864 20.557 7 20.5 7C20.0934 7 19.703 6.93068 19.34 6.8032V7.34C19.33 7.51 19.26 7.68 19.14 7.8C19.01 7.93 18.84 8 18.67 8H5.35003C4.98003 7.99 4.68003 7.7 4.68003 7.33V4.67C4.68003 4.3 4.98003 4.01 5.35003 4H17.0354C17.0121 3.8367 17 3.66976 17 3.5C17 3.21403 17.0343 2.93606 17.099 2.67ZM20.67 5.99431V4C20.67 3.65 20.53 3.31 20.27 3.07C20.03 2.81 19.69 2.67 19.33 2.67H18.1411C18.0497 2.92971 18 3.20905 18 3.5C18 3.67123 18.0172 3.83844 18.05 4H18.67C19.04 4.01 19.33 4.3 19.34 4.67V5.71518C19.6867 5.89709 20.0813 6 20.5 6C20.5571 6 20.6138 5.99808 20.67 5.99431ZM5.06003 17.73C4.55003 18.25 4.56003 19.1 5.08003 19.61C5.60003 20.13 6.44003 20.13 6.96003 19.61C7.22003 19.36 7.36003 19 7.36003 18.64C7.35003 17.91 6.74003 17.32 6.01003 17.33C5.65003 17.33 5.31003 17.47 5.06003 17.73ZM9.08003 17.73C8.56003 18.25 8.56003 19.09 9.08003 19.61C9.60003 20.13 10.44 20.13 10.96 19.61H10.95C11.21 19.37 11.35 19.03 11.35 18.67C11.35 18.32 11.21 17.98 10.96 17.73C10.44 17.21 9.60003 17.21 9.08003 17.73ZM6.02003 16C6.75003 16 7.35003 15.4 7.35003 14.67H7.34003C7.35003 14.32 7.20003 13.98 6.95003 13.73C6.70003 13.48 6.36003 13.34 6.01003 13.34C5.27003 13.34 4.68003 13.94 4.68003 14.67C4.68003 15.41 5.28003 16 6.01003 16H6.02003ZM15.35 18.67C15.35 18.32 15.21 17.98 14.96 17.73C14.44 17.21 13.6 17.21 13.08 17.73C12.56 18.25 12.56 19.09 13.08 19.61C13.6 20.13 14.44 20.13 14.96 19.61H14.95C15.21 19.37 15.35 19.03 15.35 18.67ZM10.02 16C10.76 16 11.35 15.4 11.35 14.67C11.35 14.32 11.21 13.98 10.96 13.73C10.71 13.48 10.37 13.34 10.02 13.34C9.28003 13.34 8.69003 13.94 8.69003 14.67C8.69003 15.41 9.29003 16 10.02 16ZM5.08003 11.61C5.60003 12.13 6.44003 12.13 6.96003 11.61C7.22003 11.36 7.36003 11 7.36003 10.64C7.35003 9.91 6.74003 9.32 6.01003 9.33C5.65003 9.33 5.31003 9.47 5.06003 9.73C4.55003 10.25 4.56003 11.1 5.08003 11.61ZM14.02 16C14.76 16 15.35 15.4 15.35 14.67C15.35 14.32 15.21 13.98 14.96 13.73C14.71 13.48 14.37 13.34 14.02 13.34C13.28 13.34 12.69 13.94 12.69 14.67C12.69 15.41 13.29 16 14.02 16ZM9.08003 11.61C9.60003 12.13 10.44 12.13 10.96 11.61H10.95C11.21 11.37 11.35 11.03 11.35 10.67C11.35 10.32 11.21 9.98 10.96 9.73C10.44 9.21 9.60003 9.21 9.08003 9.73C8.56003 10.25 8.56003 11.09 9.08003 11.61ZM18.02 19.99C18.75 19.99 19.35 19.4 19.35 18.66V14.66C19.35 13.92 18.76 13.32 18.02 13.32C17.28 13.32 16.68 13.92 16.68 14.66V18.66C16.68 19.39 17.28 19.99 18.02 19.99ZM13.08 11.61C13.6 12.13 14.44 12.13 14.96 11.61H14.95C15.21 11.37 15.35 11.03 15.35 10.67C15.35 10.32 15.21 9.98 14.96 9.73C14.44 9.21 13.6 9.21 13.08 9.73C12.56 10.25 12.56 11.09 13.08 11.61ZM17.06 11.61C17.58 12.13 18.42 12.13 18.94 11.61C19.2 11.36 19.34 11.02 19.33 10.67C19.33 10.32 19.19 9.98 18.94 9.73C18.42 9.21 17.58 9.21 17.06 9.73C16.54 10.25 16.54 11.09 17.06 11.61Z"/>
<circle cx="20.5" cy="3.5" r="2.5" fill="#D9A54C"/>
</svg>
