<svg width="24" height="24" viewBox="0 0 24 24" xmlns="http://www.w3.org/2000/svg">
    <path d="M6.96 19.61C6.44 20.13 5.6 20.13 5.08 19.61C4.56 19.1 4.55 18.25 5.06 17.73C5.31 17.47 5.65 17.33 6.01 17.33C6.74 17.32 7.35 17.91 7.36 18.64C7.36 19 7.22 19.36 6.96 19.61ZM10.96 19.61C10.44 20.13 9.6 20.13 9.08 19.61C8.56 19.09 8.56 18.25 9.08 17.73C9.6 17.21 10.44 17.21 10.96 17.73C11.21 17.98 11.35 18.32 11.35 18.67C11.35 19.03 11.21 19.37 10.95 19.61H10.96ZM7.35 14.67C7.35 15.4 6.75 16 6.02 16H6.01C5.28 16 4.68 15.41 4.68 14.67C4.68 13.94 5.27 13.34 6.01 13.34C6.36 13.34 6.7 13.48 6.95 13.73C7.2 13.98 7.35 14.32 7.34 14.67H7.35ZM14.96 19.61C14.44 20.13 13.6 20.13 13.08 19.61C12.56 19.09 12.56 18.25 13.08 17.73C13.6 17.21 14.44 17.21 14.96 17.73C15.21 17.98 15.35 18.32 15.35 18.67C15.35 19.03 15.21 19.37 14.95 19.61H14.96ZM11.35 14.67C11.35 15.4 10.76 16 10.02 16C9.29 16 8.69 15.41 8.69 14.67C8.69 13.94 9.28 13.34 10.02 13.34C10.37 13.34 10.71 13.48 10.96 13.73C11.21 13.98 11.35 14.32 11.35 14.67ZM6.96 11.61C6.44 12.13 5.6 12.13 5.08 11.61C4.56 11.1 4.55 10.25 5.06 9.73C5.31 9.47 5.65 9.33 6.01 9.33C6.74 9.32 7.35 9.91 7.36 10.64C7.36 11 7.22 11.36 6.96 11.61ZM15.35 14.67C15.35 15.4 14.76 16 14.02 16C13.29 16 12.69 15.41 12.69 14.67C12.69 13.94 13.28 13.34 14.02 13.34C14.37 13.34 14.71 13.48 14.96 13.73C15.21 13.98 15.35 14.32 15.35 14.67ZM10.96 11.61C10.44 12.13 9.6 12.13 9.08 11.61C8.56 11.09 8.56 10.25 9.08 9.73C9.6 9.21 10.44 9.21 10.96 9.73C11.21 9.98 11.35 10.32 11.35 10.67C11.35 11.03 11.21 11.37 10.95 11.61H10.96ZM19.35 18.66C19.35 19.4 18.75 19.99 18.02 19.99C17.28 19.99 16.68 19.39 16.68 18.66V14.66C16.68 13.92 17.28 13.32 18.02 13.32C18.76 13.32 19.35 13.92 19.35 14.66V18.66ZM14.96 11.61C14.44 12.13 13.6 12.13 13.08 11.61C12.56 11.09 12.56 10.25 13.08 9.73C13.6 9.21 14.44 9.21 14.96 9.73C15.21 9.98 15.35 10.32 15.35 10.67C15.35 11.03 15.21 11.37 14.95 11.61H14.96ZM19.14 7.8C19.01 7.93 18.84 8 18.67 8H5.35C4.98 7.99 4.68 7.7 4.68 7.33V4.67C4.68 4.3 4.98 4.01 5.35 4H18.67C19.04 4.01 19.33 4.3 19.34 4.67V7.34C19.33 7.51 19.26 7.68 19.14 7.8ZM18.94 11.61C18.42 12.13 17.58 12.13 17.06 11.61C16.54 11.09 16.54 10.25 17.06 9.73C17.58 9.21 18.42 9.21 18.94 9.73C19.19 9.98 19.33 10.32 19.33 10.67C19.34 11.02 19.2 11.36 18.94 11.61ZM20.27 3.07C20.03 2.81 19.69 2.67 19.33 2.67H4.68C4.32 2.67 3.98 2.81 3.74 3.07C3.48 3.31 3.34 3.65 3.34 4.01V20C3.35 20.73 3.94 21.32 4.67 21.33H19.34C20.07 21.32 20.66 20.73 20.67 20V4C20.67 3.65 20.53 3.31 20.27 3.07Z"/>
</svg>
