<svg width="24" height="24" viewBox="0 0 24 24" xmlns="http://www.w3.org/2000/svg">
<path fill-rule="evenodd" clip-rule="evenodd" d="M17.7143 4.14286H19.8571C21.0406 4.14286 22 5.10224 22 6.28571V19.8571C22 21.0406 21.0406 22 19.8571 22H4.14286C2.95939 22 2 21.0406 2 19.8571V6.28571C2 5.10224 2.95939 4.14286 4.14286 4.14286H6.28571V2.7143C6.28571 2.3198 6.60555 2 7.00001 2C7.39447 2 7.71427 2.3198 7.71427 2.7143V4.14286H16.2857V2.7143C16.2857 2.3198 16.6055 2 17 2C17.3945 2 17.7143 2.3198 17.7143 2.7143V4.14286ZM19.8571 20.5714C20.2516 20.5714 20.5714 20.2516 20.5714 19.8571V10.5714H3.42856V19.8571C3.42856 20.2516 3.74835 20.5714 4.14286 20.5714H19.8571ZM3.42856 9.14287H20.5714H20.5715V6.28571C20.5715 5.89121 20.2517 5.57141 19.8572 5.57141H17.7143V6.99997C17.7143 7.39447 17.3945 7.71427 17 7.71427C16.6055 7.71427 16.2857 7.39447 16.2857 6.99997V5.57141H7.71431V6.99997C7.71431 7.39447 7.39451 7.71427 7.00001 7.71427C6.60551 7.71427 6.28571 7.39447 6.28571 6.99997V5.57141H4.14286C3.74835 5.57141 3.42856 5.89121 3.42856 6.28571V9.14287ZM6.28559 12H7.71415C8.10865 12 8.42845 12.3198 8.42845 12.7143C8.42845 13.1088 8.10865 13.4286 7.71415 13.4286H6.28559C5.89109 13.4286 5.57129 13.1088 5.57129 12.7143C5.57129 12.3198 5.89109 12 6.28559 12ZM12.7141 12H11.2856C10.8911 12 10.5713 12.3198 10.5713 12.7143C10.5713 13.1088 10.8911 13.4286 11.2856 13.4286H12.7141C13.1086 13.4286 13.4284 13.1088 13.4284 12.7143C13.4284 12.3198 13.1086 12 12.7141 12ZM16.2856 12H17.7141C18.1086 12 18.4284 12.3198 18.4284 12.7143C18.4284 13.1088 18.1086 13.4286 17.7141 13.4286H16.2856C15.8911 13.4286 15.5713 13.1088 15.5713 12.7143C15.5713 12.3198 15.8911 12 16.2856 12ZM7.71415 14.8569H6.28559C5.89109 14.8569 5.57129 15.1767 5.57129 15.5712C5.57129 15.9657 5.89109 16.2855 6.28559 16.2855H7.71415C8.10865 16.2855 8.42845 15.9657 8.42845 15.5712C8.42845 15.1767 8.10865 14.8569 7.71415 14.8569ZM11.2856 14.8569H12.7141C13.1086 14.8569 13.4284 15.1767 13.4284 15.5712C13.4284 15.9657 13.1086 16.2855 12.7141 16.2855H11.2856C10.8911 16.2855 10.5713 15.9657 10.5713 15.5712C10.5713 15.1767 10.8911 14.8569 11.2856 14.8569ZM17.7141 14.8569H16.2856C15.8911 14.8569 15.5713 15.1767 15.5713 15.5712C15.5713 15.9657 15.8911 16.2855 16.2856 16.2855H17.7141C18.1086 16.2855 18.4284 15.9657 18.4284 15.5712C18.4284 15.1767 18.1086 14.8569 17.7141 14.8569ZM6.28559 17.7144H7.71415C8.10865 17.7144 8.42845 18.0341 8.42845 18.4286C8.42845 18.8231 8.10865 19.1429 7.71415 19.1429H6.28559C5.89109 19.1429 5.57129 18.8232 5.57129 18.4287C5.57129 18.0342 5.89109 17.7144 6.28559 17.7144ZM12.7141 17.7144H11.2856C10.8911 17.7144 10.5713 18.0342 10.5713 18.4287C10.5713 18.8232 10.8911 19.143 11.2856 19.143H12.7141C13.1086 19.143 13.4284 18.8232 13.4284 18.4287C13.4284 18.0342 13.1086 17.7144 12.7141 17.7144ZM16.2856 17.7144H17.7141C18.1086 17.7144 18.4284 18.0342 18.4284 18.4287C18.4284 18.8232 18.1086 19.143 17.7141 19.143H16.2856C15.8911 19.143 15.5713 18.8232 15.5713 18.4287C15.5713 18.0342 15.8911 17.7144 16.2856 17.7144Z"/>
</svg>
