<svg width="24" height="24" viewBox="0 0 24 24" xmlns="http://www.w3.org/2000/svg">
<path d="M19.6562 22H4.34375C3.05133 22 2 20.9487 2 19.6562V4.34375C2 3.05133 3.05133 2 4.34375 2H19.6562C20.9487 2 22 3.05133 22 4.34375V19.6562C22 20.9487 20.9487 22 19.6562 22ZM4.34375 3.5625C3.91299 3.5625 3.5625 3.91299 3.5625 4.34375V19.6562C3.5625 20.087 3.91299 20.4375 4.34375 20.4375H19.6562C20.087 20.4375 20.4375 20.087 20.4375 19.6562V4.34375C20.4375 3.91299 20.087 3.5625 19.6562 3.5625H4.34375Z"/>
</svg>
