<svg width="16" height="16" viewBox="0 0 16 16" xmlns="http://www.w3.org/2000/svg">
<g clip-path="url(#clip0)">
<path d="M13.1041 14.6666H2.89581C2.0342 14.6666 1.33331 13.9658 1.33331 13.1041V2.89581C1.33331 2.0342 2.0342 1.33331 2.89581 1.33331H13.1041C13.9658 1.33331 14.6666 2.0342 14.6666 2.89581V13.1041C14.6666 13.9658 13.9658 14.6666 13.1041 14.6666ZM2.89581 2.37498C2.60864 2.37498 2.37498 2.60864 2.37498 2.89581V13.1041C2.37498 13.3913 2.60864 13.625 2.89581 13.625H13.1041C13.3913 13.625 13.625 13.3913 13.625 13.1041V2.89581C13.625 2.60864 13.3913 2.37498 13.1041 2.37498H2.89581ZM12.5546 5.27456L11.7786 4.57957L6.96177 9.9589L4.16616 7.30143L3.44849 8.05634L7.02189 11.4533L12.5546 5.27456Z"/>
</g>
<defs>
<clipPath id="clip0">
<rect width="13.3333" height="13.3333" fill="white" transform="translate(1.33331 1.33331)"/>
</clipPath>
</defs>
</svg>
