<svg width="16" height="16" viewBox="0 0 16 16" fill="#D9D9D9" xmlns="http://www.w3.org/2000/svg">
<path fill-rule="evenodd" clip-rule="evenodd" d="M4 2C2.89543 2 2 2.89543 2 4V12C2 13.1046 2.89543 14 4 14H12C13.1046 14 14 13.1046 14 12V4C14 2.89543 13.1046 2 12 2H4ZM11.6036 6.10355C11.7988 5.90829 11.7988 5.59171 11.6036 5.39645C11.4083 5.20118 11.0917 5.20118 10.8964 5.39645L6.75 9.54289L5.10355 7.89645C4.90829 7.70118 4.59171 7.70118 4.39645 7.89645C4.20118 8.09171 4.20118 8.40829 4.39645 8.60355L6.75 10.9571L11.6036 6.10355Z"/>
</svg>
