<svg width="24" height="24" viewBox="0 0 24 24" xmlns="http://www.w3.org/2000/svg">
<path fill-rule="evenodd" clip-rule="evenodd" d="M5.53996 10.87L11.47 15.8C11.5046 15.8302 11.549 15.8469 11.595 15.8469C11.6409 15.8469 11.6853 15.8302 11.72 15.8L22.61 2.8C22.6472 2.76093 22.6681 2.70901 22.6681 2.655C22.6681 2.60099 22.6472 2.54906 22.61 2.51L21.39 1.51C21.3509 1.47271 21.299 1.4519 21.245 1.4519C21.191 1.4519 21.139 1.47271 21.1 1.51L11.37 13.14L6.81996 9.36C6.78257 9.32335 6.73231 9.30283 6.67996 9.30283C6.62761 9.30283 6.57734 9.32335 6.53996 9.36L5.53996 10.59C5.50331 10.6274 5.48279 10.6776 5.48279 10.73C5.48279 10.7823 5.50331 10.8326 5.53996 10.87ZM20 21V10.2C20 10.147 20.0211 10.0961 20.0586 10.0586C20.0961 10.0211 20.147 10 20.2 10H21.8C21.853 10 21.9039 10.0211 21.9414 10.0586C21.9789 10.0961 22 10.147 22 10.2V22C22 22.2652 21.8946 22.5196 21.7071 22.7071C21.5196 22.8946 21.2652 23 21 23H2C1.73478 23 1.48043 22.8946 1.29289 22.7071C1.10536 22.5196 1 22.2652 1 22V3C1 2.73479 1.10536 2.48043 1.29289 2.2929C1.48043 2.10536 1.73478 2 2 2H13.8C13.853 2 13.9039 2.02107 13.9414 2.05858C13.9789 2.09609 14 2.14696 14 2.2V3.8C14 3.85305 13.9789 3.90392 13.9414 3.94142C13.9039 3.97893 13.853 4 13.8 4H3V21H20Z"/>
</svg>
