<svg width="24" height="24" viewBox="0 0 24 24" xmlns="http://www.w3.org/2000/svg">
    <g clip-path="url(#clip0)">
        <path d="M13.1047 12.0008L21.7709 3.33447C22.0761 3.02935 22.0761 2.53466 21.7709 2.22959C21.4658 1.92451 20.9711 1.92447 20.6661 2.22959L11.9997 10.8959L3.33347 2.22959C3.02836 1.92447 2.53367 1.92447 2.22859 2.22959C1.92352 2.5347 1.92348 3.02939 2.22859 3.33447L10.8949 12.0007L2.22859 20.667C1.92348 20.9722 1.92348 21.4668 2.22859 21.7719C2.38113 21.9245 2.58109 22.0007 2.78105 22.0007C2.98101 22.0007 3.18094 21.9245 3.33351 21.7719L11.9997 13.1057L20.666 21.7719C20.8186 21.9245 21.0185 22.0007 21.2185 22.0007C21.4184 22.0007 21.6184 21.9245 21.7709 21.7719C22.0761 21.4668 22.0761 20.9721 21.7709 20.667L13.1047 12.0008Z"/>
    </g>
    <defs>
        <clipPath id="clip0">
            <rect width="20" height="20" fill="white" transform="translate(2 2)"/>
        </clipPath>
    </defs>
</svg>
