<svg width="24" height="24" viewBox="0 0 24 24" xmlns="http://www.w3.org/2000/svg">
<path fill-rule="evenodd" clip-rule="evenodd" d="M16.353 4.14183C17.6857 4.87828 18.8097 5.9408 19.62 7.22996C21.0098 7.62624 22.2099 8.51086 22.9997 9.72124C23.7895 10.9316 24.1158 12.3864 23.9188 13.8181C23.7217 15.2499 23.0145 16.5624 21.9271 17.5144C20.8397 18.4664 19.4452 18.9939 18 19H17.2C17.1469 19 17.096 18.9789 17.0585 18.9414C17.021 18.9039 17 18.853 17 18.8V17.2C17 17.1469 17.021 17.096 17.0585 17.0585C17.096 17.021 17.1469 17 17.2 17H18C18.9376 16.9626 19.8323 16.5967 20.5275 15.9664C21.2227 15.336 21.6741 14.4813 21.8029 13.5517C21.9316 12.6222 21.7293 11.677 21.2316 10.8814C20.7338 10.0859 19.9722 9.49071 19.08 9.19996L18.34 8.99996L17.93 8.33996C17.3001 7.33582 16.4256 6.50806 15.3884 5.93429C14.3512 5.36051 13.1853 5.05952 12 5.05952C10.8146 5.05952 9.64872 5.36051 8.61151 5.93429C7.57431 6.50806 6.6998 7.33582 6.06996 8.33996L5.65996 8.99996L4.91996 9.14996C3.99062 9.41189 3.18739 10.0011 2.65851 10.809C2.12963 11.6168 1.9108 12.5886 2.0424 13.5451C2.174 14.5017 2.64715 15.3783 3.37453 16.0133C4.10191 16.6483 5.03441 16.9987 5.99996 17H6.79996C6.853 17 6.90387 17.021 6.94138 17.0585C6.97889 17.096 6.99996 17.1469 6.99996 17.2V18.8C6.99996 18.853 6.97889 18.9039 6.94138 18.9414C6.90387 18.9789 6.853 19 6.79996 19H5.99996C4.55472 18.9939 3.16023 18.4664 2.07283 17.5144C0.985435 16.5624 0.278201 15.2499 0.0811375 13.8181C-0.115926 12.3864 0.210425 10.9316 1.0002 9.72124C1.78998 8.51086 2.9901 7.62624 4.37996 7.22996C5.19018 5.9408 6.31423 4.87828 7.64691 4.14183C8.97959 3.40538 10.4773 3.01907 12 3.01907C13.5226 3.01907 15.0203 3.40538 16.353 4.14183ZM12.9999 17V11.2C12.9999 11.1737 12.9948 11.1477 12.9847 11.1235C12.9747 11.0992 12.9599 11.0771 12.9414 11.0586C12.9228 11.04 12.9007 11.0253 12.8765 11.0152C12.8522 11.0052 12.8262 11 12.7999 11H11.1999C11.1469 11 11.096 11.0211 11.0585 11.0586C11.021 11.0961 10.9999 11.1469 10.9999 11.2V17H9.21994C9.17773 16.9891 9.13318 16.9916 9.09246 17.0072C9.05175 17.0227 9.01688 17.0506 8.9927 17.0868C8.96852 17.1231 8.95623 17.166 8.95753 17.2096C8.95882 17.2531 8.97364 17.2952 8.99994 17.33L11.8299 20.92C11.8506 20.9451 11.8765 20.9654 11.9059 20.9792C11.9353 20.9931 11.9674 21.0003 11.9999 21.0003C12.0324 21.0003 12.0646 20.9931 12.094 20.9792C12.1233 20.9654 12.1493 20.9451 12.1699 20.92L14.9599 17.33C14.9823 17.298 14.9952 17.2604 14.9974 17.2214C14.9995 17.1824 14.9908 17.1436 14.9721 17.1093C14.9534 17.075 14.9255 17.0466 14.8915 17.0273C14.8576 17.008 14.819 16.9985 14.7799 17H12.9999Z"/>
</svg>
