<svg width="24" height="24" viewBox="0 0 24 24" xmlns="http://www.w3.org/2000/svg">
<path d="M19.6201 6.23C18.8098 4.94084 17.6858 3.87832 16.3531 3.14187C15.0204 2.40541 13.5227 2.01911 12.0001 2.01911C10.4774 2.01911 8.97969 2.40541 7.64701 3.14187C6.31433 3.87832 5.19028 4.94084 4.38005 6.23C3.09559 6.59765 1.97059 7.38349 1.18335 8.46296C0.396109 9.54244 -0.00831995 10.8538 0.0341637 12.1891C0.0766474 13.5245 0.563613 14.8075 1.41788 15.8347C2.27214 16.862 3.44482 17.5747 4.75005 17.86C4.78014 17.8678 4.81161 17.8685 4.842 17.862C4.87238 17.8555 4.90083 17.842 4.9251 17.8226C4.94936 17.8031 4.96876 17.7783 4.98178 17.7501C4.99479 17.7219 5.00105 17.6911 5.00005 17.66V16C4.99934 15.9589 4.9853 15.9191 4.96006 15.8867C4.93482 15.8542 4.89973 15.8308 4.86005 15.82C3.92062 15.5405 3.11651 14.9258 2.60035 14.0926C2.0842 13.2593 1.89194 12.2656 2.06006 11.3C2.20917 10.5409 2.57 9.8395 3.10085 9.27679C3.63171 8.71408 4.31093 8.31304 5.06005 8.12L5.66005 8L6.07006 7.34C6.6999 6.33586 7.57441 5.5081 8.61161 4.93433C9.64881 4.36055 10.8147 4.05956 12.0001 4.05956C13.1854 4.05956 14.3513 4.36055 15.3885 4.93433C16.4257 5.5081 17.3002 6.33586 17.9301 7.34L18.3401 8L18.9501 8.17C19.6992 8.36304 20.3784 8.76408 20.9093 9.32679C21.4401 9.8895 21.8009 10.5909 21.9501 11.35C22.1182 12.3156 21.9259 13.3093 21.4098 14.1426C20.8936 14.9758 20.0895 15.5905 19.1501 15.87C19.1155 15.8757 19.0832 15.8909 19.0567 15.9139C19.0303 15.9368 19.0106 15.9666 19.0001 16V17.66C18.9991 17.6911 19.0053 17.7219 19.0183 17.7501C19.0313 17.7783 19.0508 17.8031 19.075 17.8226C19.0993 17.842 19.1277 17.8555 19.1581 17.862C19.1885 17.8685 19.22 17.8678 19.2501 17.86C20.5553 17.5747 21.728 16.862 22.5822 15.8347C23.4365 14.8075 23.9235 13.5245 23.9659 12.1891C24.0084 10.8538 23.604 9.54244 22.8168 8.46296C22.0295 7.38349 20.9045 6.59765 19.6201 6.23Z"/>
<path d="M16.8 10H7.2C7.14696 10 7.09609 10.0211 7.05858 10.0586C7.02107 10.0961 7 10.147 7 10.2V21.8C7 21.853 7.02107 21.9039 7.05858 21.9414C7.09609 21.9789 7.14696 22 7.2 22H16.8C16.853 22 16.9039 21.9789 16.9414 21.9414C16.9789 21.9039 17 21.853 17 21.8V10.2C17 10.147 16.9789 10.0961 16.9414 10.0586C16.9039 10.0211 16.853 10 16.8 10ZM15 20H9V17H15V20ZM15 15H9V12H15V15Z"/>
<path d="M10.5 14C10.7761 14 11 13.7761 11 13.5C11 13.2239 10.7761 13 10.5 13C10.2239 13 10 13.2239 10 13.5C10 13.7761 10.2239 14 10.5 14Z"/>
<path d="M10.5 19C10.7761 19 11 18.7761 11 18.5C11 18.2239 10.7761 18 10.5 18C10.2239 18 10 18.2239 10 18.5C10 18.7761 10.2239 19 10.5 19Z"/>
</svg>
