<svg width="24" height="24" viewBox="0 0 24 24" xmlns="http://www.w3.org/2000/svg">
<path d="M21 3V21H3V3H21ZM22.8 1H1.2C1.14696 1 1.09609 1.02107 1.05858 1.05858C1.02107 1.09609 1 1.14696 1 1.2V22.8C1 22.853 1.02107 22.9039 1.05858 22.9414C1.09609 22.9789 1.14696 23 1.2 23H22.8C22.853 23 22.9039 22.9789 22.9414 22.9414C22.9789 22.9039 23 22.853 23 22.8V1.2C23 1.14696 22.9789 1.09609 22.9414 1.05858C22.9039 1.02107 22.853 1 22.8 1Z"/>
<path d="M11.6399 11.23L6.32995 6.8C6.29653 6.77614 6.25685 6.7626 6.21582 6.76106C6.17478 6.75952 6.1342 6.77004 6.09908 6.79132C6.06397 6.8126 6.03586 6.84371 6.01824 6.8808C6.00062 6.91789 5.99426 6.95933 5.99995 7V9C6.00236 9.06023 6.02735 9.11735 6.06995 9.16L9.43995 12L6.06995 14.8C6.04375 14.8258 6.02382 14.8572 6.01168 14.8919C5.99955 14.9265 5.99553 14.9635 5.99995 15V17C6.0021 17.0373 6.01418 17.0734 6.03493 17.1045C6.05568 17.1356 6.08435 17.1606 6.11798 17.1769C6.15162 17.1932 6.189 17.2002 6.22626 17.1972C6.26352 17.1943 6.29932 17.1814 6.32995 17.16L11.6399 12.73C11.7532 12.6362 11.8443 12.5185 11.9069 12.3854C11.9695 12.2523 12.0019 12.1071 12.0019 11.96C12.0019 11.8129 11.9695 11.6677 11.9069 11.5346C11.8443 11.4015 11.7532 11.2838 11.6399 11.19V11.23Z"/>
<path d="M17.8 15H12.2C12.0895 15 12 15.0895 12 15.2V16.8C12 16.9105 12.0895 17 12.2 17H17.8C17.9105 17 18 16.9105 18 16.8V15.2C18 15.0895 17.9105 15 17.8 15Z"/>
</svg>
