<svg width="24" height="24" viewBox="0 0 24 24" xmlns="http://www.w3.org/2000/svg">
<path d="M19.38 3.81L20.19 4.63L13.06 11.76L12.18 11.82L12.24 10.94L19.38 3.81ZM19.4 1C19.3473 1.00075 19.297 1.02232 19.26 1.06L10.52 9.84C10.3829 9.97571 10.301 10.1574 10.29 10.35L10 13.76C9.99722 13.7879 10.0003 13.8161 10.0091 13.8427C10.0179 13.8693 10.0322 13.8938 10.051 13.9145C10.0699 13.9353 10.0929 13.9518 10.1186 13.9631C10.1442 13.9744 10.172 13.9801 10.2 13.98L13.61 13.71C13.8026 13.699 13.9843 13.6171 14.12 13.48L22.82 4.79C22.8394 4.7722 22.8549 4.75057 22.8655 4.72647C22.8761 4.70237 22.8816 4.67633 22.8816 4.65C22.8816 4.62367 22.8761 4.59763 22.8655 4.57353C22.8549 4.54943 22.8394 4.5278 22.82 4.51L19.54 1.1C19.5256 1.07396 19.5055 1.05148 19.4813 1.03418C19.4571 1.01688 19.4293 1.0052 19.4 1Z"/>
<path d="M20 10.2V21H3V4H13.8C13.853 4 13.9039 3.97893 13.9414 3.94142C13.9789 3.90391 14 3.85304 14 3.8V2.2C14 2.14696 13.9789 2.09609 13.9414 2.05858C13.9039 2.02107 13.853 2 13.8 2H2C1.73478 2 1.48043 2.10536 1.29289 2.29289C1.10536 2.48043 1 2.73478 1 3V22C1 22.2652 1.10536 22.5196 1.29289 22.7071C1.48043 22.8946 1.73478 23 2 23H21C21.2652 23 21.5196 22.8946 21.7071 22.7071C21.8946 22.5196 22 22.2652 22 22V10.2C22 10.147 21.9789 10.0961 21.9414 10.0586C21.9039 10.0211 21.853 10 21.8 10H20.2C20.147 10 20.0961 10.0211 20.0586 10.0586C20.0211 10.0961 20 10.147 20 10.2Z"/>
</svg>
