<svg width="24" height="24" viewBox="0 0 24 24" xmlns="http://www.w3.org/2000/svg">
    <g clip-path="url(#clip0)">
        <path d="M14.4864 20.4939C17.7191 20.1756 20.2985 17.5962 20.6169 14.3628H14.4864V20.4939Z"/>
        <path d="M10.8885 2.12301C5.98016 2.12301 2 6.10245 2 11.0115C2 15.9206 5.9802 19.9008 10.8885 19.9008V11.0116H19.7783C19.7784 6.10245 15.7981 2.12301 10.8885 2.12301Z"/>
        <path d="M13.137 13.0129V21.8771H13.8119C18.3268 21.8771 22.0006 18.2034 22.0006 13.6879V13.0129H13.137ZM14.487 20.494V14.3629H20.6176C20.2991 17.5963 17.7197 20.1758 14.487 20.494Z"/>
    </g>
    <defs>
        <clipPath id="clip0">
            <rect width="20" height="20" fill="white" transform="translate(2 2)"/>
        </clipPath>
    </defs>
</svg>
