<svg width="24" height="24" viewBox="0 0 24 24" xmlns="http://www.w3.org/2000/svg">
<path fill-rule="evenodd" clip-rule="evenodd" d="M19.5 2V22H4.5V2H19.5ZM20.5 0H3.5C3.23478 0 2.98043 0.105357 2.79289 0.292893C2.60536 0.48043 2.5 0.734784 2.5 1V23C2.5 23.2652 2.60536 23.5196 2.79289 23.7071C2.98043 23.8946 3.23478 24 3.5 24H20.5C20.7652 24 21.0196 23.8946 21.2071 23.7071C21.3946 23.5196 21.5 23.2652 21.5 23V1C21.5 0.734784 21.3946 0.48043 21.2071 0.292893C21.0196 0.105357 20.7652 0 20.5 0ZM12 18.51C12.5523 18.51 13 18.0623 13 17.51C13 16.9577 12.5523 16.51 12 16.51C11.4477 16.51 11 16.9577 11 17.51C11 18.0623 11.4477 18.51 12 18.51ZM15.36 6.21C16.0419 6.9115 16.4377 7.84216 16.47 8.82C16.4924 9.65242 16.2591 10.4717 15.8013 11.1673C15.3435 11.8629 14.6834 12.4014 13.91 12.71C13.6015 12.8477 13.3413 13.0746 13.163 13.3616C12.9848 13.6486 12.8966 13.9824 12.91 14.32C12.91 14.3458 12.9048 14.3714 12.8946 14.3951C12.8844 14.4188 12.8695 14.4402 12.8508 14.458C12.8321 14.4758 12.81 14.4896 12.7858 14.4985C12.7615 14.5074 12.7357 14.5114 12.71 14.51H11.12C11.0676 14.5102 11.017 14.4909 10.9781 14.4557C10.9393 14.4206 10.915 14.3722 10.91 14.32C10.8942 13.6021 11.0883 12.8951 11.4684 12.2858C11.8486 11.6766 12.3982 11.1915 13.05 10.89C13.4618 10.7428 13.8178 10.4713 14.0686 10.113C14.3194 9.75473 14.4527 9.32735 14.45 8.89C14.43 8.4 14.22 7 12 7C11.4244 6.9984 10.8661 7.19708 10.4209 7.56198C9.97575 7.92687 9.67137 8.43527 9.55997 9C9.54555 9.0386 9.51956 9.07181 9.48555 9.09508C9.45154 9.11835 9.41117 9.13054 9.36997 9.13H7.71996C7.69097 9.13033 7.66226 9.12435 7.63581 9.11248C7.60936 9.10061 7.5858 9.08313 7.56678 9.06125C7.54775 9.03937 7.53371 9.01362 7.52563 8.98577C7.51755 8.95793 7.51561 8.92866 7.51996 8.9C7.67173 7.81934 8.20849 6.82979 9.03157 6.11327C9.85464 5.39676 10.9087 5.00144 12 5C12.6126 4.96523 13.226 5.05447 13.8033 5.26239C14.3807 5.4703 14.9101 5.79261 15.36 6.21Z"/>
</svg>
