<svg width="24" height="24" viewBox="0 0 24 24" xmlns="http://www.w3.org/2000/svg">
<path d="M5.44422 19.437C5.14972 19.7283 5.1471 20.2032 5.43837 20.4977C5.72965 20.7922 6.20452 20.7948 6.49902 20.5035L14.4977 12.5925C14.7922 12.3013 14.7948 11.8264 14.5035 11.5319L6.59252 3.53323C6.30125 3.23873 5.82638 3.23611 5.53188 3.52739C5.23738 3.81866 5.23476 4.29353 5.52603 4.58803L12.9096 12.0534L5.44422 19.437Z" />
<path d="M10.4442 19.437C10.1497 19.7283 10.1471 20.2032 10.4384 20.4977C10.7296 20.7922 11.2045 20.7948 11.499 20.5035L19.4977 12.5925C19.7922 12.3013 19.7948 11.8264 19.5035 11.5319L11.5925 3.53323C11.3012 3.23873 10.8264 3.23611 10.5319 3.52739C10.2374 3.81866 10.2348 4.29353 10.526 4.58803L17.9096 12.0534L10.4442 19.437Z" />
</svg>
