<svg width="24" height="24" viewBox="0 0 24 24" xmlns="http://www.w3.org/2000/svg">
<path d="M18.7774 19.4371C19.0719 19.7283 19.0745 20.2032 18.7832 20.4977C18.492 20.7922 18.0171 20.7948 17.7226 20.5035L9.72394 12.5925C9.42944 12.3013 9.42682 11.8264 9.7181 11.5319L17.6291 3.53324C17.9204 3.23874 18.3952 3.23612 18.6897 3.52739C18.9842 3.81867 18.9869 4.29354 18.6956 4.58804L11.312 12.0535L18.7774 19.4371Z" />
<path d="M13.7774 19.4371C14.0719 19.7283 14.0745 20.2032 13.7832 20.4977C13.492 20.7922 13.0171 20.7948 12.7226 20.5035L4.72394 12.5925C4.42944 12.3013 4.42682 11.8264 4.7181 11.5319L12.6291 3.53324C12.9204 3.23874 13.3952 3.23612 13.6897 3.52739C13.9842 3.81867 13.9869 4.29354 13.6956 4.58804L6.31198 12.0535L13.7774 19.4371Z" />
</svg>
