<svg width="16" height="16" viewBox="0 0 16 16" xmlns="http://www.w3.org/2000/svg">
<path d="M5.66669 14C5.79801 14 5.92805 13.9741 6.04937 13.9239C6.1707 13.8736 6.28093 13.8 6.37379 13.7071C6.46665 13.6142 6.54031 13.504 6.59057 13.3827C6.64082 13.2614 6.66669 13.1313 6.66669 13C6.66669 12.8687 6.64082 12.7386 6.59057 12.6173C6.54031 12.496 6.46665 12.3858 6.37379 12.2929C6.28093 12.2 6.1707 12.1264 6.04937 12.0761C5.92805 12.0259 5.79801 12 5.66669 12C5.53537 12 5.40533 12.0259 5.284 12.0761C5.16268 12.1264 5.05244 12.2 4.95958 12.2929C4.86672 12.3858 4.79306 12.496 4.74281 12.6173C4.69255 12.7386 4.66669 12.8687 4.66669 13C4.66669 13.1313 4.69255 13.2614 4.74281 13.3827C4.79306 13.504 4.86672 13.6142 4.95958 13.7071C5.05244 13.8 5.16268 13.8736 5.284 13.9239C5.40533 13.9741 5.53537 14 5.66669 14ZM5.66669 9C5.9319 9 6.18626 8.89464 6.37379 8.70711C6.56133 8.51957 6.66669 8.26522 6.66669 8C6.66669 7.73478 6.56133 7.48043 6.37379 7.29289C6.18626 7.10536 5.9319 7 5.66669 7C5.40147 7 5.14712 7.10536 4.95958 7.29289C4.77204 7.48043 4.66669 7.73478 4.66669 8C4.66669 8.26522 4.77204 8.51957 4.95958 8.70711C5.14712 8.89464 5.40147 9 5.66669 9ZM5.66669 4C5.9319 4 6.18626 3.89464 6.37379 3.70711C6.56133 3.51957 6.66669 3.26522 6.66669 3C6.66669 2.73478 6.56133 2.48043 6.37379 2.29289C6.18626 2.10536 5.9319 2 5.66669 2C5.40147 2 5.14712 2.10536 4.95958 2.29289C4.77204 2.48043 4.66669 2.73478 4.66669 3C4.66669 3.26522 4.77204 3.51957 4.95958 3.70711C5.14712 3.89464 5.40147 4 5.66669 4Z"/>
<path d="M10.3333 14C10.4646 14 10.5947 13.9741 10.716 13.9239C10.8373 13.8736 10.9476 13.8 11.0404 13.7071C11.1333 13.6142 11.2069 13.504 11.2572 13.3827C11.3074 13.2614 11.3333 13.1313 11.3333 13C11.3333 12.8687 11.3074 12.7386 11.2572 12.6173C11.2069 12.496 11.1333 12.3858 11.0404 12.2929C10.9476 12.2 10.8373 12.1264 10.716 12.0761C10.5947 12.0259 10.4646 12 10.3333 12C10.202 12 10.072 12.0259 9.95063 12.0761C9.8293 12.1264 9.71906 12.2 9.62621 12.2929C9.53335 12.3858 9.45969 12.496 9.40943 12.6173C9.35918 12.7386 9.33331 12.8687 9.33331 13C9.33331 13.1313 9.35918 13.2614 9.40943 13.3827C9.45969 13.504 9.53335 13.6142 9.62621 13.7071C9.71906 13.8 9.8293 13.8736 9.95063 13.9239C10.072 13.9741 10.202 14 10.3333 14ZM10.3333 9C10.5985 9 10.8529 8.89464 11.0404 8.70711C11.228 8.51957 11.3333 8.26522 11.3333 8C11.3333 7.73478 11.228 7.48043 11.0404 7.29289C10.8529 7.10536 10.5985 7 10.3333 7C10.0681 7 9.81374 7.10536 9.62621 7.29289C9.43867 7.48043 9.33331 7.73478 9.33331 8C9.33331 8.26522 9.43867 8.51957 9.62621 8.70711C9.81374 8.89464 10.0681 9 10.3333 9ZM10.3333 4C10.5985 4 10.8529 3.89464 11.0404 3.70711C11.228 3.51957 11.3333 3.26522 11.3333 3C11.3333 2.73478 11.228 2.48043 11.0404 2.29289C10.8529 2.10536 10.5985 2 10.3333 2C10.0681 2 9.81374 2.10536 9.62621 2.29289C9.43867 2.48043 9.33331 2.73478 9.33331 3C9.33331 3.26522 9.43867 3.51957 9.62621 3.70711C9.81374 3.89464 10.0681 4 10.3333 4Z"/>
</svg>
