<svg width="24" height="24" viewBox="0 0 24 24" xmlns="http://www.w3.org/2000/svg">
<path fill-rule="evenodd" clip-rule="evenodd" d="M7.00033 2H19.8578C21.0412 2 22.0007 2.95941 22.0007 4.1429V17.0004C22.0007 18.1839 21.0412 19.1433 19.8578 19.1433C19.4632 19.1433 19.1434 18.8235 19.1434 18.429C19.1434 18.0345 19.4632 17.7146 19.8578 17.7146C20.2523 17.7146 20.5721 17.3948 20.5721 17.0003V4.1429C20.5721 3.74839 20.2523 3.42859 19.8578 3.42859H7.00033C6.60581 3.42859 6.28601 3.74839 6.28601 4.1429C6.28601 4.53742 5.96625 4.85722 5.57174 4.85722C5.17723 4.85722 4.85742 4.53742 4.85742 4.1429C4.85742 2.95941 5.81683 2 7.00033 2ZM4.1429 5.57129H16.286C17.4695 5.57129 18.4289 6.5307 18.4289 7.71419V19.8573C18.4289 21.0408 17.4695 22.0002 16.286 22.0002H4.1429C2.95941 22.0002 2 21.0408 2 19.8573V7.71419C2 6.5307 2.95941 5.57129 4.1429 5.57129ZM16.286 20.5717C16.6805 20.5717 17.0003 20.2519 17.0003 19.8573V7.71419C17.0003 7.31968 16.6805 6.99988 16.286 6.99988H4.1429C3.74839 6.99988 3.42859 7.31968 3.42859 7.71419V19.8573C3.42859 20.2519 3.74839 20.5717 4.1429 20.5717H16.286Z"/>
</svg>
