<svg width="24" height="24" viewBox="0 0 24 24" xmlns="http://www.w3.org/2000/svg">
<path d="M21.1769 6.01607L15.4126 0.251786C15.2519 0.0910715 15.0349 0 14.8072 0H3.42868C2.95457 0 2.57153 0.383036 2.57153 0.857143V23.1429C2.57153 23.617 2.95457 24 3.42868 24H20.5715C21.0456 24 21.4287 23.617 21.4287 23.1429V6.62411C21.4287 6.39643 21.3376 6.17679 21.1769 6.01607ZM19.4519 7.01786H14.4108V1.97679L19.4519 7.01786ZM19.5001 22.0714H4.5001V1.92857H12.5894V7.71429C12.5894 8.01265 12.7079 8.2988 12.9189 8.50978C13.1299 8.72076 13.416 8.83929 13.7144 8.83929H19.5001V22.0714ZM11.7858 14.8393H6.85725C6.73939 14.8393 6.64296 14.9357 6.64296 15.0536V16.3393C6.64296 16.4571 6.73939 16.5536 6.85725 16.5536H11.7858C11.9037 16.5536 12.0001 16.4571 12.0001 16.3393V15.0536C12.0001 14.9357 11.9037 14.8393 11.7858 14.8393ZM6.64296 11.4107V12.6964C6.64296 12.8143 6.73939 12.9107 6.85725 12.9107H17.143C17.2608 12.9107 17.3572 12.8143 17.3572 12.6964V11.4107C17.3572 11.2929 17.2608 11.1964 17.143 11.1964H6.85725C6.73939 11.1964 6.64296 11.2929 6.64296 11.4107Z"/>
</svg>
