<svg width="24" height="24" viewBox="0 0 24 24" xmlns="http://www.w3.org/2000/svg">
    <rect width="24" height="24" rx="2" fill="#F2F2F2"/>
    <path d="M18.4328 10.8536C18.3487 10.9575 18.2603 11.0586 18.1672 11.1563C17.2245 12.1463 15.9546 12.7007 14.5914 12.7175C14.5703 12.7177 14.5491 12.7179 14.5281 12.7179C13.5138 12.7179 12.5468 12.4191 11.7243 11.8617C11.3487 12.0024 10.9091 11.922 10.6069 11.6198C10.1946 11.2075 10.1946 10.539 10.6069 10.1267C11.0192 9.71436 11.6877 9.71436 12.1001 10.1267C12.3486 10.3752 12.4471 10.7169 12.396 11.0394C13.0413 11.4538 13.793 11.6711 14.5785 11.6617C15.6548 11.6486 16.6577 11.2105 17.4025 10.4283C17.5023 10.3235 17.5948 10.2143 17.6805 10.1013L14.089 6.50983L15.73 4.85995C16.1624 4.42756 16.8659 4.42756 17.2984 4.85995C18.7218 6.28336 18.8587 8.55027 17.6805 10.1014L18.4328 10.8536C19.1709 9.94238 19.5606 8.80645 19.5366 7.61314C19.5099 6.29155 18.9802 5.0486 18.0449 4.11334C17.2009 3.26927 15.8275 3.26927 14.9834 4.11334L13.3344 5.75517L12.4145 4.83527L8.59751 8.65226C8.10866 8.45004 7.57928 8.34422 7.04722 8.34422C4.81557 8.34418 3 10.1598 3 12.3914V15.5588H4.05578V12.3914C4.05578 11.8093 4.5294 11.3356 5.11155 11.3356C5.333 11.3356 5.54482 11.4049 5.7206 11.5291L5.3155 11.9342L13.901 20.5197L21 13.4208L18.4328 10.8536ZM6.47284 10.7769C6.09656 10.4595 5.61647 10.2798 5.11159 10.2798C5.04761 10.2798 4.98439 10.2832 4.92185 10.2887C5.46438 9.74041 6.21669 9.39999 7.04719 9.39999C7.29251 9.39999 7.53199 9.42872 7.76402 9.4857L6.47284 10.7769Z"/>
</svg>
