<svg width="24" height="24" viewBox="0 0 24 24" xmlns="http://www.w3.org/2000/svg">
<path d="M9.32462 11.8718C9.63796 12.3266 9.54429 11.9476 9.54429 21.0123C9.54429 21.8235 10.4671 22.2877 11.1174 21.8025C13.8965 19.7011 14.4518 19.5191 14.4518 18.5362C14.4518 11.9305 14.375 12.302 14.6715 11.8718L19.1844 5.71094H4.81171L9.32462 11.8718Z"/>
<path d="M20.8889 2.50234C20.7277 2.19258 20.4114 2 20.0633 2H3.93239C3.18049 2 2.73807 2.85066 3.16939 3.46875C3.17293 3.47469 3.12043 3.40262 3.95304 4.53906H20.0426C20.7521 3.57058 21.2264 3.15215 20.8889 2.50234Z"/>
</svg>
