<svg width="24" height="24" viewBox="0 0 24 24" xmlns="http://www.w3.org/2000/svg">
<path fill-rule="evenodd" clip-rule="evenodd" d="M17.3368 2H3.93239C3.18049 2 2.73807 2.85066 3.16939 3.46875C3.1696 3.46911 3.16961 3.46918 3.16962 3.46925C3.16982 3.47039 3.17081 3.47139 3.95304 4.53906H17.1568C17.0549 4.21078 17 3.8618 17 3.5C17 2.9632 17.1208 2.45463 17.3368 2ZM18.4998 2C18.186 2.41783 18 2.9372 18 3.5C18 3.87074 18.0807 4.22263 18.2255 4.53906H20.0426C20.154 4.38693 20.2597 4.24837 20.3573 4.12035C20.8811 3.43341 21.1734 3.05007 20.8889 2.50234C20.7277 2.19258 20.4114 2 20.0633 2H18.4998Z"/>
<path fill-rule="evenodd" clip-rule="evenodd" d="M17.7866 5.71094H4.81171L9.32462 11.8718C9.35657 11.9182 9.38429 11.9559 9.4083 11.9958C9.61984 12.3475 9.54429 12.8718 9.54429 21.0123C9.54429 21.8235 10.4671 22.2877 11.1174 21.8025C11.6395 21.4078 12.0831 21.0807 12.4593 20.8034C14.0856 19.6044 14.4518 19.3344 14.4518 18.5362C14.4518 12.7705 14.3933 12.3204 14.5756 12.013C14.6021 11.9682 14.6338 11.9265 14.6715 11.8718L18.6344 6.46185C18.3126 6.25875 18.0262 6.00466 17.7866 5.71094Z"/>
<circle cx="20.5" cy="3.5" r="2.5" fill="#D9A54C"/>
</svg>
