<svg width="24" height="24" viewBox="0 0 24 24" xmlns="http://www.w3.org/2000/svg">
<path fill-rule="evenodd" clip-rule="evenodd" d="M20 9V8C20 6.89543 19.1046 6 18 6H11L8.64992 3.17991C8.55493 3.06591 8.4142 3 8.26581 3H2C0.895431 3 0 3.89543 0 5V19C0 20.1046 0.895431 21 2 21H18C18.2486 21 18.4866 20.9546 18.7062 20.8718C19.6215 20.5949 20.3702 19.8893 20.6838 18.9487L23.5613 10.3162C23.7771 9.6687 23.2951 9 22.6126 9H20ZM10.0633 8L7.56325 5H2V15L3.77207 9.68377C3.90819 9.27543 4.29033 9 4.72076 9H18V8H10.0633ZM17.8377 19C18.2681 19 18.6503 18.7246 18.7864 18.3162L21.2251 11H5.44152L2.77485 19H17.8377Z"/>
</svg>
