<svg width="24" height="24" viewBox="0 0 24 24" xmlns="http://www.w3.org/2000/svg">
<path fill-rule="evenodd" clip-rule="evenodd" d="M22 1H2C1.73478 1 1.48043 1.10536 1.29289 1.29289C1.10536 1.48043 1 1.73478 1 2V22C1 22.2652 1.10536 22.5196 1.29289 22.7071C1.48043 22.8946 1.73478 23 2 23H22C22.2652 23 22.5196 22.8946 22.7071 22.7071C22.8946 22.5196 23 22.2652 23 22V2C23 1.73478 22.8946 1.48043 22.7071 1.29289C22.5196 1.10536 22.2652 1 22 1ZM3 5V3H21V5H3ZM3 21V7H21V21H3ZM18.8 9H9.19999C9.14695 9 9.09608 9.02107 9.05857 9.05858C9.02106 9.09608 8.99999 9.14695 8.99999 9.2V10.8C8.99999 10.853 9.02106 10.9039 9.05857 10.9414C9.09608 10.9789 9.14695 11 9.19999 11H18.8C18.853 11 18.9039 10.9789 18.9414 10.9414C18.9789 10.9039 19 10.853 19 10.8V9.2C19 9.14695 18.9789 9.09608 18.9414 9.05858C18.9039 9.02107 18.853 9 18.8 9ZM5.44444 13.1685C5.60889 13.0586 5.80223 13 6.00001 13C6.26523 13 6.51958 13.1054 6.70712 13.2929C6.89465 13.4804 7.00001 13.7348 7.00001 14C7.00001 14.1978 6.94136 14.3911 6.83148 14.5556C6.7216 14.72 6.56542 14.8482 6.38269 14.9239C6.19997 14.9996 5.9989 15.0194 5.80492 14.9808C5.61094 14.9422 5.43276 14.847 5.2929 14.7071C5.15305 14.5673 5.05781 14.3891 5.01923 14.1951C4.98064 14.0011 5.00044 13.8 5.07613 13.6173C5.15182 13.4346 5.27999 13.2784 5.44444 13.1685ZM18.8 13H9.19999C9.14695 13 9.09608 13.0211 9.05857 13.0586C9.02106 13.0961 8.99999 13.147 8.99999 13.2V14.8C8.99999 14.853 9.02106 14.9039 9.05857 14.9414C9.09608 14.9789 9.14695 15 9.19999 15H18.8C18.853 15 18.9039 14.9789 18.9414 14.9414C18.9789 14.9039 19 14.853 19 14.8V13.2C19 13.147 18.9789 13.0961 18.9414 13.0586C18.9039 13.0211 18.853 13 18.8 13ZM18.8 17H9.19999C9.14695 17 9.09608 17.0211 9.05857 17.0586C9.02106 17.0961 8.99999 17.147 8.99999 17.2V18.8C8.99999 18.853 9.02106 18.9039 9.05857 18.9414C9.09608 18.9789 9.14695 19 9.19999 19H18.8C18.853 19 18.9039 18.9789 18.9414 18.9414C18.9789 18.9039 19 18.853 19 18.8V17.2C19 17.147 18.9789 17.0961 18.9414 17.0586C18.9039 17.0211 18.853 17 18.8 17ZM5.44444 9.16853C5.60889 9.05865 5.80223 9 6.00001 9C6.26523 9 6.51958 9.10535 6.70712 9.29289C6.89465 9.48043 7.00001 9.73478 7.00001 10C7.00001 10.1978 6.94136 10.3911 6.83148 10.5556C6.7216 10.72 6.56542 10.8482 6.38269 10.9239C6.19997 10.9996 5.9989 11.0194 5.80492 10.9808C5.61094 10.9422 5.43276 10.847 5.2929 10.7071C5.15305 10.5673 5.05781 10.3891 5.01923 10.1951C4.98064 10.0011 5.00044 9.80004 5.07613 9.61731C5.15182 9.43459 5.27999 9.27841 5.44444 9.16853ZM5.44444 17.1685C5.60889 17.0587 5.80223 17 6.00001 17C6.26523 17 6.51958 17.1054 6.70712 17.2929C6.89465 17.4804 7.00001 17.7348 7.00001 18C7.00001 18.1978 6.94136 18.3911 6.83148 18.5556C6.7216 18.72 6.56542 18.8482 6.38269 18.9239C6.19997 18.9996 5.9989 19.0194 5.80492 18.9808C5.61094 18.9422 5.43276 18.847 5.2929 18.7071C5.15305 18.5673 5.05781 18.3891 5.01923 18.1951C4.98064 18.0011 5.00044 17.8 5.07613 17.6173C5.15182 17.4346 5.27999 17.2784 5.44444 17.1685Z"/>
</svg>
