<svg width="24" height="24" viewBox="0 0 24 24" xmlns="http://www.w3.org/2000/svg">
    <path fill-rule="evenodd" clip-rule="evenodd" d="M4.25537 2.46657C4.06957 2.26229 3.75334 2.24731 3.54906 2.43311C3.34478 2.61892 3.3298 2.93514 3.5156 3.13943L6.58769 6.51703C3.40351 8.26988 1.27074 10.9367 1.13961 11.103C0.953465 11.3395 0.953465 11.6602 1.13961 11.8967C1.33593 12.146 6.01902 18 11.9999 18C13.4963 18 14.9114 17.6336 16.1953 17.0801L19.5272 20.7433C19.713 20.9476 20.0292 20.9626 20.2335 20.7768C20.4378 20.5909 20.4527 20.2747 20.2669 20.0704L17.1379 16.6302C20.4733 14.8838 22.7252 12.068 22.8602 11.8969C23.0466 11.6605 23.0466 11.3395 22.8602 11.1033C22.6637 10.854 17.9808 5 11.9999 5C10.3898 5 8.87374 5.42426 7.51396 6.04922L4.25537 2.46657ZM7.54033 7.5644C5.17829 8.81513 3.36865 10.6887 2.64915 11.4995C3.77867 12.7698 7.59435 16.6552 11.9999 16.6552C13.1239 16.6552 14.2085 16.4035 15.2195 16.0073L14.2563 14.9483C13.5979 15.32 12.8252 15.5343 11.9995 15.5343C9.60008 15.5343 7.64788 13.7244 7.64788 11.4998C7.64788 10.4894 8.05062 9.56456 8.71508 8.85598L7.54033 7.5644ZM9.48075 8.21159L8.48271 7.1143C9.57734 6.64871 10.7649 6.34482 11.9999 6.34482C16.4052 6.34482 20.2207 10.2296 21.3507 11.5005C20.6032 12.3429 18.6791 14.3322 16.1814 15.5786L15.0697 14.3564C15.8609 13.6254 16.3512 12.6147 16.3512 11.4998C16.3512 9.27525 14.399 7.46533 11.9995 7.46533C11.0617 7.46533 10.1921 7.74186 9.48075 8.21159ZM9.66686 9.90241C9.30981 10.3494 9.09846 10.9022 9.09846 11.4998C9.09846 12.9829 10.3998 14.1895 11.9995 14.1895C12.4686 14.1895 12.912 14.0858 13.3044 13.9017L9.66686 9.90241ZM14.1302 13.3234L10.4203 9.24455C10.875 8.96991 11.4175 8.81019 11.9995 8.81019C13.5992 8.81019 14.9006 10.0167 14.9006 11.4998C14.9006 12.2029 14.6082 12.8438 14.1302 13.3234Z"/>
</svg>
