<svg width="24" height="24" viewBox="0 0 24 24" xmlns="http://www.w3.org/2000/svg">
<path d="M22.8602 11.1033C22.6637 10.854 17.9808 5 11.9999 5C6.01902 5 1.33593 10.854 1.13961 11.103C0.953465 11.3395 0.953465 11.6602 1.13961 11.8967C1.33593 12.146 6.01902 18 11.9999 18C17.9808 18 22.6637 12.1459 22.8602 11.8969C23.0466 11.6605 23.0466 11.3395 22.8602 11.1033ZM11.9999 16.6552C7.59435 16.6552 3.77867 12.7697 2.64915 11.4995C3.77721 10.2282 7.58489 6.34482 11.9999 6.34482C16.4052 6.34482 20.2207 10.2296 21.3507 11.5005C20.2226 12.7717 16.4149 16.6552 11.9999 16.6552Z"/>
<path d="M11.9991 7.46533C9.59966 7.46533 7.64746 9.27525 7.64746 11.4998C7.64746 13.7244 9.59966 15.5343 11.9991 15.5343C14.3986 15.5343 16.3508 13.7244 16.3508 11.4998C16.3508 9.27525 14.3986 7.46533 11.9991 7.46533ZM11.9991 14.1895C10.3994 14.1895 9.09805 12.9829 9.09805 11.4998C9.09805 10.0167 10.3994 8.81019 11.9991 8.81019C13.5988 8.81019 14.9002 10.0167 14.9002 11.4998C14.9002 12.9829 13.5989 14.1895 11.9991 14.1895Z"/>
<rect x="3.91895" y="2.09668" width="24.7963" height="1" rx="0.5" transform="rotate(47.712 3.91895 2.09668)"/>
</svg>
