<svg width="24" height="24" viewBox="0 0 24 24" xmlns="http://www.w3.org/2000/svg">
<path fill-rule="evenodd" clip-rule="evenodd" d="M20.2533 2.93695C19.9604 2.64406 19.4856 2.64406 19.1927 2.93696L16.619 5.5106C15.2069 4.85176 13.6223 4.50008 11.9999 4.50013C9.61348 4.5002 7.30851 5.2614 5.51466 6.64177C3.72188 8.02133 2.56193 9.92521 2.25053 11.9988L2.25 12.0024L2.25081 12.0033C2.5382 13.9137 3.54582 15.6799 5.10496 17.0247L2.78026 19.3494C2.48737 19.6423 2.48737 20.1171 2.78026 20.41C3.07315 20.7029 3.54803 20.7029 3.84092 20.41L20.2533 3.99761C20.5462 3.70472 20.5462 3.22985 20.2533 2.93695ZM6.17285 15.9568L8.58276 13.5469C8.36897 13.0753 8.24993 12.5516 8.24993 12.0001C8.24993 9.92906 9.92886 8.25013 11.9999 8.25013C12.5514 8.25013 13.0751 8.36917 13.5467 8.58296L15.4762 6.65344C14.3996 6.22849 13.2161 6.00009 12 6.00013C9.93112 6.00019 7.95668 6.66141 6.44228 7.82674C4.9993 8.93713 4.08036 10.4197 3.78402 12.0001C4.06148 13.4798 4.88472 14.8738 6.17285 15.9568ZM12.3521 9.77753C12.2374 9.75949 12.1197 9.75013 11.9999 9.75013C10.7573 9.75013 9.74993 10.7575 9.74993 12.0001C9.74993 12.1199 9.75929 12.2376 9.77733 12.3523L12.3521 9.77753Z"/>
<path d="M14.2479 12.0966L15.5514 10.793C15.6801 11.1718 15.7499 11.5778 15.7499 12.0001C15.7499 14.0712 14.071 15.7501 11.9999 15.7501C11.5776 15.7501 11.1716 15.6803 10.7928 15.5516L12.0964 14.2481C13.2623 14.1989 14.1987 13.2625 14.2479 12.0966Z"/>
<path d="M11.9987 18.0001C10.9119 17.9999 9.85111 17.8173 8.86946 17.475L7.70889 18.6356C9.03586 19.2 10.5011 19.4999 11.9984 19.5001C14.3843 19.5005 16.689 18.7401 18.4831 17.3607C20.2771 15.9812 21.4381 14.0768 21.7499 12.0023C21.4792 10.194 20.5636 8.51445 19.1454 7.19902L18.0798 8.2647C19.2235 9.31317 19.9577 10.6193 20.2166 12.0001C19.9201 13.5814 19.0002 15.0648 17.5559 16.1754C16.0413 17.34 14.0671 18.0005 11.9987 18.0001Z"/>
</svg>
