<svg width="24" height="24" viewBox="0 0 24 24" xmlns="http://www.w3.org/2000/svg">
<path fill-rule="evenodd" clip-rule="evenodd" d="M9.29167 2.00021H14.7083C15.5125 2.00021 16.1667 2.65437 16.1667 3.45854V4.70855C16.1667 5.05355 15.8867 5.33355 15.5417 5.33355C15.1967 5.33355 14.9167 5.05355 14.9167 4.70855V3.45854C14.9167 3.34354 14.8233 3.25021 14.7083 3.25021H9.29167C9.17667 3.25021 9.08333 3.34354 9.08333 3.45854V4.70855C9.08333 5.05355 8.80333 5.33355 8.45833 5.33355C8.11334 5.33355 7.83334 5.05355 7.83334 4.70855V3.45854C7.83334 2.65437 8.4875 2.00021 9.29167 2.00021ZM11.375 5.12522C11.375 4.78022 11.655 4.50022 12 4.50022C12.345 4.50022 12.625 4.78022 12.625 5.12522V9.03308L13.4333 8.22522C13.555 8.10272 13.715 8.04189 13.875 8.04189C14.035 8.04189 14.195 8.10272 14.3167 8.22439C14.5608 8.46855 14.5608 8.86439 14.3167 9.10855L12.4417 10.9836C12.1975 11.2277 11.8017 11.2277 11.5575 10.9836L9.6825 9.10855C9.43833 8.86439 9.43833 8.46855 9.6825 8.22439C9.92667 7.98022 10.3225 7.98022 10.5667 8.22439L11.375 9.03272V5.12522ZM14.2682 19.5H20.5417C21.3458 19.5 22 18.8459 22 18.0417V15.9583V6.79167C22 5.9875 21.3458 5.33334 20.5417 5.33334H17.625C17.28 5.33334 17 5.61334 17 5.95834C17 6.30334 17.28 6.58334 17.625 6.58334H20.5417C20.6567 6.58334 20.75 6.67667 20.75 6.79167V15.3333H3.25V6.79167C3.25 6.67667 3.34333 6.58334 3.45833 6.58334H6.375C6.72083 6.58334 7 6.30334 7 5.95834C7 5.61334 6.72083 5.33334 6.375 5.33334H3.45833C2.65417 5.33334 2 5.9875 2 6.79167V15.9583V18.0417C2 18.8459 2.65417 19.5 3.45833 19.5H9.71802C9.56495 19.9316 9.29844 20.4849 8.85 20.9333C8.67083 21.1125 8.6175 21.3808 8.71417 21.6142C8.81083 21.8475 9.03917 22 9.29167 22H14.7084C15.0534 22 15.3334 21.72 15.3334 21.375C15.3334 21.1617 15.2267 20.9742 15.0642 20.8608C14.6608 20.4295 14.4141 19.9108 14.2682 19.5ZM13.4833 18.25C13.4686 18.2495 13.4538 18.2495 13.4388 18.25H10.5392C10.5266 18.2496 10.5141 18.2496 10.5017 18.25H3.45833C3.34333 18.25 3.25 18.1567 3.25 18.0417V16.5833H20.75V18.0417C20.75 18.1567 20.6567 18.25 20.5417 18.25H13.4833ZM11.028 19.5H12.9577C13.0495 19.8326 13.2054 20.2832 13.4608 20.75H10.525C10.782 20.2825 10.9372 19.8326 11.028 19.5Z"/>
</svg>
