<svg width="24" height="24" viewBox="0 0 24 24" fill="none" xmlns="http://www.w3.org/2000/svg">
    <path d="M19.071 19.0712C17.1956 20.9466 14.652 22.0002 11.9998 22.0002C9.34763 22.0002 6.80405 20.9466 4.92865 19.0712L7.96927 16.0306C9.03823 17.0996 10.4881 17.7001 11.9998 17.7001C13.5116 17.7001 14.9614 17.0996 16.0304 16.0306L19.071 19.0712Z" fill="#85CBD1"/>
    <path d="M4.92898 19.0715C3.05359 17.1961 2 14.6525 2 12.0003C2 9.34814 3.05359 6.80456 4.92898 4.92915L7.96959 7.96977C6.90061 9.03874 6.30007 10.4886 6.30007 12.0003C6.30007 13.5121 6.90061 14.9619 7.96959 16.0309L4.92898 19.0715Z" fill="#004D40"/>
    <path d="M4.92865 4.92895C6.80405 3.05355 9.34763 1.99997 11.9998 1.99997C14.652 1.99997 17.1956 3.05356 19.071 4.92895L16.0304 7.96956C14.9614 6.90058 13.5116 6.30004 11.9998 6.30004C10.4881 6.30004 9.03823 6.90058 7.96927 7.96956L4.92865 4.92895Z" fill="#AD1457"/>
    <path d="M19.0702 4.92915C20.9456 6.80456 21.9992 9.34814 21.9992 12.0003C21.9992 14.6525 20.9456 17.1961 19.0702 19.0715L16.0296 16.0309C17.0986 14.9619 17.6992 13.5121 17.6992 12.0003C17.6992 10.4886 17.0986 9.03874 16.0296 7.96977L19.0702 4.92915Z" fill="#555190"/>
</svg>
