<svg width="24" height="24" viewBox="0 0 24 24" xmlns="http://www.w3.org/2000/svg">
    <path d="M19.7778 3.99979H15.1333C14.6667 2.83979 13.4444 1.99979 12 1.99979C10.5556 1.99979 9.33333 2.83979 8.86667 3.99979H4.22222C3 3.99979 2 4.89979 2 5.99979V19.9998C2 21.0998 3 21.9998 4.22222 21.9998H19.7778C21 21.9998 22 21.0998 22 19.9998V5.99979C22 4.89979 21 3.99979 19.7778 3.99979ZM12 3.99979C12.6111 3.99979 13.1111 4.44979 13.1111 4.99979C13.1111 5.54979 12.6111 5.99979 12 5.99979C11.3889 5.99979 10.8889 5.54979 10.8889 4.99979C10.8889 4.44979 11.3889 3.99979 12 3.99979ZM14.2222 17.9998H6.44444V15.9998H14.2222V17.9998ZM17.5556 13.9998H6.44444V11.9998H17.5556V13.9998ZM17.5556 9.99979H6.44444V7.99979H17.5556V9.99979Z"/>
</svg>
