<svg width="86" height="86" viewBox="0 0 86 86" xmlns="http://www.w3.org/2000/svg">
<path fill-rule="evenodd" clip-rule="evenodd" d="M55 25C55 31.6274 49.6274 37 43 37C36.3726 37 31 31.6274 31 25C31 18.3726 36.3726 13 43 13C49.6274 13 55 18.3726 55 25ZM53 25C53 30.5228 48.5229 35 43 35C37.4772 35 33 30.5228 33 25C33 19.4772 37.4772 15 43 15C48.5229 15 53 19.4772 53 25Z"/>
<path fill-rule="evenodd" clip-rule="evenodd" d="M27.818 17.3511L26.6061 15.1517C26.1764 14.3719 26.3139 13.4019 26.9435 12.7723L30.7723 8.94349C31.4019 8.31389 32.3719 8.17632 33.1518 8.60603L35.3511 9.81794C36.1003 9.44049 36.8765 9.11899 37.6732 8.8561L38.3715 6.44388C38.6191 5.58861 39.4022 5 40.2926 5H45.7074C46.5978 5 47.3809 5.58861 47.6285 6.44388L48.3268 8.8561C49.1235 9.11899 49.8997 9.44051 50.649 9.818L52.8485 8.60603C53.6283 8.17632 54.5983 8.31389 55.2279 8.94349L59.0567 12.7723C59.6863 13.4019 59.8239 14.3719 59.3942 15.1517L58.1821 17.3513C58.5596 18.1005 58.8811 18.8766 59.1439 19.6732L61.5561 20.3715C62.4114 20.6191 63 21.4022 63 22.2926V27.7074C63 28.5978 62.4114 29.3809 61.5561 29.6285L59.1439 30.3268C58.881 31.1235 58.5595 31.8997 58.1821 32.6489L59.394 34.8482C59.8237 35.6281 59.6861 36.5981 59.0565 37.2277L55.2277 41.0565C54.5981 41.6861 53.6281 41.8236 52.8483 41.3939L50.6489 40.182C49.8997 40.5595 49.1235 40.881 48.3268 41.1439L48 42.2727V45.8333L65.4796 48.7466C69.8193 49.4699 73 53.2246 73 57.6241V81H13V57.6241C13 53.2246 16.1807 49.4699 20.5204 48.7466L38 45.8333V42.2727L37.6732 41.1439C36.8765 40.881 36.1003 40.5595 35.3511 40.182L33.1517 41.3939C32.3719 41.8236 31.4019 41.6861 30.7723 41.0565L26.9435 37.2277C26.3139 36.5981 26.1763 35.6281 26.606 34.8482L27.8179 32.6489C27.4405 31.8997 27.119 31.1235 26.8561 30.3268L24.4439 29.6285C23.5886 29.3809 23 28.5978 23 27.7074V22.2926C23 21.4022 23.5886 20.6191 24.4439 20.3715L26.8561 19.6732C27.119 18.8765 27.4405 18.1004 27.818 17.3511ZM45.7074 45C45.8064 45 45.9042 44.9927 46 44.9786V46.0601L43.0776 48.739L40 46.0461V44.9786C40.0958 44.9927 40.1936 45 40.2926 45H45.7074ZM47.5002 10.6868L47.499 10.6906C48.3447 10.9565 49.1652 11.2969 49.9508 11.7077L49.9523 11.705C50.0211 11.741 50.0896 11.7776 50.1579 11.8147C50.4695 11.9843 50.8463 11.9928 51.157 11.8216L53.8137 10.3577L57.6425 14.1865L56.1786 16.8433C56.0074 17.1539 56.0159 17.5308 56.1854 17.8424C56.2313 17.9269 56.2765 18.0119 56.3209 18.0973L56.3181 18.0987C56.726 18.8859 57.0633 19.7076 57.3261 20.5543L57.3299 20.5532C57.349 20.6147 57.3677 20.6765 57.386 20.7384C57.4866 21.0785 57.747 21.351 58.0877 21.4496L61 22.2926V27.7074L58.0877 28.5504C57.747 28.649 57.4866 28.9215 57.386 29.2616C57.3597 29.3505 57.3326 29.4391 57.3047 29.5274L57.3008 29.5262C57.0333 30.3714 56.6914 31.1913 56.2791 31.9761L56.2818 31.9775C56.25 32.0378 56.2179 32.0979 56.1853 32.1577C56.0158 32.4693 56.0073 32.8462 56.1785 33.1569L57.6423 35.8135L53.8135 39.6423L51.157 38.1784C50.8463 38.0073 50.4694 38.0158 50.1578 38.1853C50.0822 38.2264 50.0063 38.2669 49.93 38.3067L49.9286 38.3039C49.1423 38.7134 48.3212 39.0524 47.475 39.3169L47.4762 39.3207C47.4049 39.343 47.3333 39.3648 47.2616 39.386C46.9215 39.4866 46.649 39.747 46.5504 40.0877L45.7074 43H40.2926L39.4496 40.0877C39.351 39.747 39.0785 39.4866 38.7384 39.386C38.6453 39.3584 38.5525 39.33 38.4601 39.3007L38.4613 39.2969C37.6163 39.0286 36.7967 38.686 36.0123 38.273L36.0109 38.2756C35.9544 38.2459 35.8982 38.2158 35.8422 38.1853C35.5306 38.0158 35.1537 38.0073 34.843 38.1784L32.1865 39.6423L28.3577 35.8135L29.8215 33.1569C29.9927 32.8462 29.9842 32.4693 29.8147 32.1577C29.7858 32.1046 29.7571 32.0512 29.7288 31.9976L29.7315 31.9962C29.318 31.212 28.9749 30.3927 28.7061 29.5479L28.7022 29.5491C28.6719 29.4537 28.6425 29.3578 28.614 29.2616C28.5134 28.9215 28.253 28.649 27.9123 28.5504L25 27.7074V22.2926L27.9123 21.4496C28.253 21.351 28.5134 21.0785 28.614 20.7384C28.6339 20.6713 28.6542 20.6044 28.6749 20.5377L28.6787 20.5389C28.9424 19.6925 29.2806 18.8711 29.6893 18.0844L29.6866 18.0829C29.7286 18.0023 29.7713 17.922 29.8147 17.8422C29.9842 17.5306 29.9927 17.1537 29.8216 16.843L28.3578 14.1865L32.1865 10.3577L34.8431 11.8215C35.1538 11.9927 35.5307 11.9842 35.8423 11.8147C35.9 11.7833 35.958 11.7522 36.0163 11.7215L36.0177 11.7242C36.8023 11.3115 37.622 10.9692 38.4671 10.7013L38.4659 10.6975C38.5564 10.6688 38.6472 10.641 38.7384 10.614C39.0785 10.5134 39.351 10.253 39.4496 9.9123L40.2926 7H45.7074L46.5504 9.9123C46.649 10.253 46.9215 10.5134 47.2616 10.614C47.3414 10.6376 47.4209 10.6619 47.5002 10.6868ZM71 79V57.6241C71 54.2023 68.5261 51.2819 65.1508 50.7194L54.7053 48.9785L51.4586 57.7912L47.9455 72.3454L44.6182 79H60V61C60 60.4477 60.4477 60 61 60C61.5523 60 62 60.4477 62 61V79H71ZM47.1499 47.7192L52.6972 48.6438L50.3256 55.081L44.5919 50.064L47.1499 47.7192ZM33.3028 48.6438L38.871 47.7158L41.5943 50.0987L35.7967 55.4131L33.3028 48.6438ZM34.5414 57.7912L31.2946 48.9785L20.8492 50.7194C17.4739 51.2819 15 54.2023 15 57.6241V79H23V61C23 60.4477 23.4477 60 24 60C24.5523 60 25 60.4477 25 61V79H41.3818L38.0545 72.3454L34.5414 57.7912ZM40.0126 71.7893L40.8248 56.3569C41.0284 56.4888 41.2441 56.6022 41.4693 56.6955C41.9546 56.8965 42.4747 57 43 57C43.5253 57 44.0454 56.8965 44.5307 56.6955C44.7559 56.6022 44.9716 56.4888 45.1752 56.3569L45.9874 71.7893L43 77.7642L40.0126 71.7893ZM41.1522 53.7654C41.0943 53.6255 41.0526 53.4799 41.0276 53.3313L43.1087 51.4237L44.9985 53.0773C44.9894 53.3136 44.9384 53.5465 44.8478 53.7654C44.7472 54.008 44.5999 54.2285 44.4142 54.4142C44.2285 54.5999 44.008 54.7472 43.7654 54.8478C43.5227 54.9483 43.2626 55 43 55C42.7374 55 42.4773 54.9483 42.2346 54.8478C41.992 54.7472 41.7715 54.5999 41.5858 54.4142C41.4001 54.2285 41.2528 54.008 41.1522 53.7654ZM47.1022 54.9181L49.5852 57.0907L49.5417 57.2088L47.6379 65.0959L47.1022 54.9181ZM36.5198 57.4635L38.3621 65.0959L38.8775 55.3022L36.5198 57.4635Z" />
</svg>
