<svg width="86" height="86" viewBox="0 0 86 86" xmlns="http://www.w3.org/2000/svg">
<path fill-rule="evenodd" clip-rule="evenodd" d="M46 48.9999C46 50.3061 45.1652 51.4174 44 51.8293V54.9999C44 55.5522 43.5523 55.9999 43 55.9999C42.4477 55.9999 42 55.5522 42 54.9999V51.8293C40.8348 51.4174 40 50.3061 40 48.9999C40 47.3432 41.3431 45.9999 43 45.9999C44.6569 45.9999 46 47.3432 46 48.9999ZM43 49.9999C43.5523 49.9999 44 49.5522 44 48.9999C44 48.4477 43.5523 47.9999 43 47.9999C42.4477 47.9999 42 48.4477 42 48.9999C42 49.5522 42.4477 49.9999 43 49.9999Z"/>
<path fill-rule="evenodd" clip-rule="evenodd" d="M49 34.9999V40.9999H32C29.7909 40.9999 28 42.7908 28 44.9999V56.9999C28 59.2091 29.7909 60.9999 32 60.9999H54C56.2091 60.9999 58 59.2091 58 56.9999V44.9999C58 43.5194 57.1956 42.2267 56 41.5351V35.9999C56 32.318 54.6532 28.7844 52.2512 26.1642C49.8492 23.544 46.5855 22.0484 43.167 22.0011C39.7484 21.9538 36.4501 23.3587 33.9864 25.9116C31.5369 28.4498 30.1085 31.9198 30.0059 35.5774C30.002 35.6065 30 35.6363 30 35.6666C30 36.403 30.597 36.9999 31.3333 36.9999H35.5C36.3284 36.9999 37 36.3284 37 35.4999V34.9999C37 33.4086 37.6321 31.8825 38.7574 30.7573C39.8826 29.6321 41.4087 28.9999 43 28.9999C44.5913 28.9999 46.1174 29.6321 47.2426 30.7573C48.3679 31.8825 49 33.4086 49 34.9999ZM43.1393 24.0009C40.296 23.9616 37.5219 25.1282 35.4255 27.3004C33.4757 29.3208 32.2637 32.0588 32.0383 34.9999L35 34.9999C35 32.8782 35.8429 30.8434 37.3431 29.3431C38.8434 27.8428 40.8783 26.9999 43 26.9999C45.1217 26.9999 47.1566 27.8428 48.6569 29.3431C50.1571 30.8434 51 32.8782 51 34.9999V40.9999H54V35.9999C54 32.7987 52.8277 29.7527 50.777 27.5157C48.7308 25.2836 45.9829 24.0402 43.1393 24.0009ZM32 42.9999H54.0028C55.1061 43.0014 56 43.8963 56 44.9999V56.9999C56 58.1045 55.1046 58.9999 54 58.9999H32C30.8954 58.9999 30 58.1045 30 56.9999V44.9999C30 43.8954 30.8954 42.9999 32 42.9999Z"/>
<path fill-rule="evenodd" clip-rule="evenodd" d="M18.7775 22.7198C17.7672 22.8598 17 23.7189 17 24.7389V48.6842C17 56.7086 21.5729 64.0316 28.7831 67.5535L41.2444 73.6404C42.3522 74.1815 43.6478 74.1815 44.7556 73.6404L57.2169 67.5535C64.4271 64.0316 69 56.7086 69 48.6842V24.7389C69 23.7189 68.2328 22.8598 67.2225 22.7198C64.4225 22.3318 58.9026 21.4402 55 20C51.5675 18.7333 49.3856 17.2436 47.66 16.0655C45.9136 14.8732 44.6347 14 43 14C41.3431 14 39.9752 14.9253 38.1561 16.1557C36.4071 17.3388 34.241 18.8039 31 20C27.0974 21.4402 21.5775 22.3318 18.7775 22.7198ZM67 48.6842V24.7389C67 24.7369 66.9999 24.7365 66.9998 24.7362C66.9992 24.7348 66.9971 24.7301 66.9918 24.7241C66.9806 24.7114 66.9657 24.7033 66.9479 24.7009C64.149 24.313 58.4347 23.3994 54.3076 21.8763C50.6433 20.524 48.2965 18.9218 46.5455 17.7263L46.5012 17.696C44.6469 16.4301 43.8959 16 43 16C42.0989 16 41.2727 16.4626 39.381 17.7418L39.2578 17.8251C37.4945 19.018 35.1623 20.5958 31.6924 21.8763C27.5653 23.3994 21.851 24.313 19.0521 24.7009C19.0343 24.7033 19.0194 24.7114 19.0082 24.7241C19.0029 24.7301 19.0009 24.7346 19.0003 24.7359L19 24.7389V48.6842C19 55.9444 23.1374 62.5699 29.6609 65.7564L42.1222 71.8433C42.6761 72.1139 43.3239 72.1139 43.8778 71.8433L56.3391 65.7564C62.8626 62.5699 67 55.9444 67 48.6842Z"/>
<path fill-rule="evenodd" clip-rule="evenodd" d="M14.8014 16.7132C12.6752 16.914 11 18.6796 11 20.8153V48.8371C11 59.3106 17.057 68.8392 26.5403 73.2845L38.7557 79.0105C41.4448 80.271 44.5552 80.271 47.2443 79.0105L59.4597 73.2845C68.943 68.8392 75 59.3106 75 48.8371V20.8153C75 18.6796 73.3248 16.914 71.1986 16.7132C67.3004 16.345 61.2261 15.558 57 14C52.5714 12.3674 50.043 10.2644 48.0712 8.62432C46.2584 7.11652 44.916 6 43 6C41.0567 6 39.6179 7.18016 37.7189 8.73778C35.7092 10.3863 33.1841 12.4575 29 14C24.7739 15.558 18.6996 16.345 14.8014 16.7132ZM73 48.8371V20.8153C73 19.7565 72.1552 18.8124 71.0105 18.7043C67.1099 18.3359 60.8026 17.5334 56.3082 15.8765C51.7419 14.1931 49.0353 12.0242 47.0351 10.3638C44.9121 8.60151 44.1302 8 43 8C41.8604 8 40.984 8.64782 38.8194 10.4219C36.7919 12.0835 34.0824 14.2579 29.6918 15.8765C25.1974 17.5334 18.8901 18.3359 14.9895 18.7043C13.8448 18.8124 13 19.7565 13 20.8153V48.8371C13 58.5348 18.6083 67.3576 27.3892 71.4736L39.6045 77.1995C41.7559 78.208 44.2441 78.208 46.3955 77.1995L58.6108 71.4736C67.3917 67.3576 73 58.5348 73 48.8371Z"/>
</svg>
