<svg width="86" height="86" viewBox="0 0 86 86" xmlns="http://www.w3.org/2000/svg">
<path d="M25.1023 24.9961C25.6524 24.9473 26.0588 24.4618 26.01 23.9117C25.9611 23.3616 25.4756 22.9552 24.9255 23.004C23.3074 23.1476 21.8017 23.8918 20.705 25.0902C19.7213 26.165 19.1306 27.5353 19.0192 28.9785H19L18.9999 34.9785C18.9999 35.6894 18.8483 36.3921 18.5553 37.0397C18.2622 37.6873 17.8345 38.265 17.3005 38.7343L16.5 39.4785L17.3091 40.2303C17.8405 40.6995 18.2661 41.2764 18.5576 41.9226C18.8491 42.5688 19 43.2696 19 43.9785V49.9785H19.0192C19.1302 51.4177 19.718 52.7844 20.6969 53.858C21.7886 55.0553 23.2881 55.8017 24.9015 55.9509C25.4515 56.0018 25.9385 55.5972 25.9894 55.0472C26.0402 54.4973 25.6356 54.0103 25.0857 53.9594C23.9687 53.8561 22.9306 53.3394 22.1748 52.5105C21.419 51.6816 21 50.5993 21 49.4776L20.9999 43.9785C20.9999 42.986 20.7888 42.0049 20.3807 41.1002C20.1163 40.514 19.7731 39.9686 19.3618 39.4785C19.7713 38.9905 20.1134 38.4476 20.3774 37.8642C20.7877 36.9575 21 35.9737 21 34.9785V29.4785C21 28.3539 21.4211 27.2701 22.1804 26.4404C22.9396 25.6108 23.982 25.0955 25.1023 24.9961Z" />
<path d="M25 29C25 28.4477 25.4477 28 26 28H60C60.5523 28 61 28.4477 61 29C61 29.5523 60.5523 30 60 30H26C25.4477 30 25 29.5523 25 29Z" />
<path d="M25 39C25 38.4477 25.4477 38 26 38H60C60.5523 38 61 38.4477 61 39C61 39.5523 60.5523 40 60 40H26C25.4477 40 25 39.5523 25 39Z" />
<path d="M25 34C25 33.4477 25.4477 33 26 33H39C39.5523 33 40 33.4477 40 34C40 34.5523 39.5523 35 39 35H26C25.4477 35 25 34.5523 25 34Z" />
<path d="M25 44C25 43.4477 25.4477 43 26 43H39C39.5523 43 40 43.4477 40 44C40 44.5523 39.5523 45 39 45H26C25.4477 45 25 44.5523 25 44Z" />
<path d="M46 34C46 33.4477 46.4477 33 47 33H60C60.5523 33 61 33.4477 61 34C61 34.5523 60.5523 35 60 35H47C46.4477 35 46 34.5523 46 34Z" />
<path d="M46 44C46 43.4477 46.4477 43 47 43H60C60.5523 43 61 43.4477 61 44C61 44.5523 60.5523 45 60 45H47C46.4477 45 46 44.5523 46 44Z" />
<path d="M60.004 23.9117C59.9551 24.4618 60.3615 24.9473 60.9117 24.9961C62.0319 25.0955 63.0743 25.6108 63.8335 26.4404C64.5928 27.2701 65.0139 28.3539 65.0139 29.4785V34.9785C65.0139 35.9737 65.2262 36.9575 65.6365 37.8642C65.9005 38.4476 66.2426 38.9905 66.6521 39.4785C66.2408 39.9686 65.8976 40.514 65.6332 41.1002C65.2251 42.0049 65.014 42.986 65.014 43.9785L65.0139 49.4776C65.0139 50.5993 64.595 51.6816 63.8392 52.5105C63.0834 53.3394 62.0452 53.8561 60.9282 53.9594C60.3783 54.0103 59.9737 54.4973 60.0245 55.0472C60.0754 55.5972 60.5624 56.0018 61.1124 55.9509C62.7258 55.8017 64.2253 55.0553 65.317 53.858C66.296 52.7844 66.8837 51.4177 66.9947 49.9785H67.0139V43.9785C67.0139 43.2696 67.1648 42.5688 67.4563 41.9226C67.7478 41.2764 68.1734 40.6995 68.7048 40.2303L69.5139 39.4785L68.7134 38.7343C68.1794 38.265 67.7517 37.6873 67.4586 37.0397C67.1656 36.3921 67.014 35.6894 67.014 34.9785L67.0139 28.9785H66.9947C66.8834 27.5353 66.2926 26.165 65.3089 25.0902C64.2122 23.8918 62.7065 23.1476 61.0884 23.004C60.5383 22.9552 60.0528 23.3616 60.004 23.9117Z" />
<path d="M13 14C13 13.4477 13.4477 13 14 13C14.5523 13 15 13.4477 15 14C15 14.5523 14.5523 15 14 15C13.4477 15 13 14.5523 13 14Z" />
<path d="M18 13C17.4477 13 17 13.4477 17 14C17 14.5523 17.4477 15 18 15C18.5523 15 19 14.5523 19 14C19 13.4477 18.5523 13 18 13Z" />
<path d="M22 13C21.4477 13 21 13.4477 21 14C21 14.5523 21.4477 15 22 15C22.5523 15 23 14.5523 23 14C23 13.4477 22.5523 13 22 13Z" />
<path fill-rule="evenodd" clip-rule="evenodd" d="M43 67C45.7614 67 48 64.7614 48 62C48 59.2386 45.7614 57 43 57C40.2386 57 38 59.2386 38 62C38 64.7614 40.2386 67 43 67ZM43 65C44.6569 65 46 63.6569 46 62C46 60.3431 44.6569 59 43 59C41.3431 59 40 60.3431 40 62C40 63.6569 41.3431 65 43 65Z" />
<path d="M44.0517 55.0795C42.5875 54.8569 41.0904 55.1046 39.7758 55.7867C39.2856 56.0411 38.682 55.8499 38.4276 55.3597C38.1732 54.8695 38.3644 54.2659 38.8546 54.0115C40.5448 53.1344 42.4696 52.8161 44.3522 53.1022C46.2348 53.3883 47.9782 54.2641 49.3315 55.6037C50.6848 56.9434 51.5784 58.6777 51.8836 60.5573C52.1889 62.4369 51.8901 64.3649 51.0302 66.0639C50.7809 66.5567 50.1792 66.754 49.6864 66.5046C49.1937 66.2552 48.9964 65.6536 49.2457 65.1608C49.9145 63.8393 50.1469 62.3398 49.9095 60.8779C49.6721 59.416 48.9771 58.0671 47.9245 57.0251C46.8719 55.9832 45.516 55.302 44.0517 55.0795Z" />
<path d="M41.9723 68.9241C43.4554 69.1443 44.97 68.8824 46.2931 68.177C46.7804 67.9172 47.3861 68.1017 47.646 68.589C47.9058 69.0764 47.7213 69.6821 47.234 69.9419C45.5328 70.8488 43.5855 71.1855 41.6786 70.9025C39.7717 70.6194 38.0061 69.7316 36.6418 68.3697C35.2774 67.0078 34.3864 65.2438 34.0999 63.3374C33.8135 61.4311 34.1467 59.4831 35.0505 57.7804C35.3094 57.2925 35.9148 57.107 36.4026 57.3659C36.8904 57.6249 37.076 58.2302 36.8171 58.7181C36.1141 60.0424 35.8549 61.5575 36.0777 63.0402C36.3005 64.5229 36.9935 65.8949 38.0547 66.9542C39.1159 68.0135 40.4891 68.704 41.9723 68.9241Z" />
<path fill-rule="evenodd" clip-rule="evenodd" d="M74 62C76.2091 62 78 60.2091 78 58V12C78 9.79086 76.2091 8 74 8H12C9.79086 8 8 9.79086 8 12V58C8 60.2091 9.79086 62 12 62H28V64.3401C28 65.3026 28.6855 66.1285 29.6314 66.3059L30.8139 66.5276C30.9255 66.828 31.0482 67.1242 31.1817 67.4155L30.5024 68.4083C29.9589 69.2026 30.0582 70.2714 30.7388 70.9519L34.0482 74.2614C34.7288 74.9419 35.7975 75.0413 36.5918 74.4978L37.5847 73.8184C37.876 73.9519 38.1721 74.0745 38.4724 74.1861L38.6941 75.3686C38.8715 76.3145 39.6974 77 40.6599 77H45.3401C46.3026 77 47.1285 76.3145 47.3059 75.3686L47.5276 74.1861C47.8279 74.0745 48.124 73.9519 48.4153 73.8184L49.4082 74.4978C50.2025 75.0413 51.2712 74.9419 51.9518 74.2614L55.2612 70.9519C55.9418 70.2714 56.0411 69.2026 55.4976 68.4083L54.8183 67.4155C54.9518 67.1242 55.0745 66.828 55.1861 66.5276L56.3686 66.3059C57.3145 66.1285 58 65.3026 58 64.3401V62H74ZM28 59.6599V60H12C10.8954 60 10 59.1046 10 58V20H76V58C76 59.1046 75.1046 60 74 60H58V59.6599C58 58.6974 57.3145 57.8715 56.3686 57.6941L55.1861 57.4724C55.0745 57.1721 54.9519 56.876 54.8184 56.5847L55.4978 55.5917C56.0413 54.7974 55.9419 53.7287 55.2614 53.0481L51.9519 49.7387C51.2714 49.0581 50.2026 48.9588 49.4083 49.5023L48.4154 50.1816C48.1241 50.0482 47.828 49.9255 47.5276 49.8139L47.3059 48.6314C47.1285 47.6855 46.3026 47 45.3401 47H40.6599C39.6974 47 38.8715 47.6855 38.6941 48.6314L38.4724 49.8139C38.172 49.9255 37.8759 50.0482 37.5846 50.1816L36.5917 49.5023C35.7974 48.9588 34.7286 49.0581 34.0481 49.7387L30.7386 53.0481C30.0581 53.7287 29.9587 54.7974 30.5022 55.5917L31.1816 56.5847C31.0481 56.876 30.9255 57.1721 30.8139 57.4724L29.6314 57.6941C28.6855 57.8715 28 58.6974 28 59.6599ZM12 10H74C75.1046 10 76 10.8954 76 12V18H10V12C10 10.8954 10.8954 10 12 10ZM52.817 57.0375L52.8191 57.0364C52.7646 56.9287 52.7083 56.822 52.6503 56.7164C52.5572 56.5466 52.5635 56.3385 52.6728 56.1787L53.6128 54.8048C53.7487 54.6062 53.7239 54.3391 53.5537 54.1689L50.5377 51.1529L48.8214 52.3272C48.6616 52.4365 48.4535 52.4429 48.2837 52.3497C48.2068 52.3075 48.1293 52.2662 48.0513 52.2258L48.0503 52.2279C47.4939 51.9403 46.914 51.7008 46.3169 51.512L46.3178 51.5092C46.2413 51.485 46.1645 51.4617 46.0874 51.4392C45.9015 51.3849 45.7589 51.2333 45.7232 51.043L45.4166 49.4079C45.3723 49.1714 45.1658 49 44.9252 49H41.0748C40.8342 49 40.6277 49.1714 40.5834 49.4079L40.2768 51.043C40.2411 51.2333 40.0985 51.3849 39.9126 51.4392C39.8389 51.4607 39.7655 51.483 39.6924 51.506L39.6932 51.5088C39.0959 51.6971 38.5158 51.936 37.9592 52.223L37.9581 52.2209C37.8769 52.2629 37.7963 52.3058 37.7163 52.3497C37.5465 52.4429 37.3384 52.4365 37.1786 52.3272L35.8048 51.3872C35.6062 51.2513 35.339 51.2762 35.1689 51.4463L32.4463 54.1689C32.2761 54.3391 32.2513 54.6062 32.3872 54.8048L33.3272 56.1787C33.4365 56.3385 33.4428 56.5466 33.3497 56.7164L33.3138 56.7823L33.2789 56.8475L33.2808 56.8486C32.9102 57.5477 32.6162 58.2848 32.4038 59.047L32.4011 59.0463C32.3719 59.1511 32.2865 59.2311 32.1796 59.2512L30.4079 59.5834C30.1714 59.6277 30 59.8342 30 60.0748V63.9252C30 64.1658 30.1714 64.3723 30.4079 64.4166L32.043 64.7232C32.2333 64.7589 32.3849 64.9015 32.4392 65.0874C32.4594 65.1566 32.4802 65.2255 32.5017 65.2941L32.5045 65.2932C32.692 65.8908 32.9302 66.4712 33.2165 67.0282L33.2144 67.0293C33.2585 67.1148 33.3036 67.1996 33.3498 67.2838C33.4429 67.4536 33.4366 67.6617 33.3272 67.8215L32.3873 69.1952C32.2514 69.3938 32.2763 69.661 32.4464 69.8311L35.169 72.5537C35.3392 72.7239 35.6064 72.7487 35.8049 72.6128L37.1787 71.6729C37.3385 71.5635 37.5466 71.5572 37.7164 71.6503C37.8127 71.7032 37.9099 71.7546 38.008 71.8046L38.009 71.8026C38.5671 72.0867 39.1485 72.3227 39.7467 72.5079L39.7458 72.5107C39.7825 72.522 39.8192 72.5332 39.856 72.5441L39.9126 72.5608C40.0985 72.6151 40.2411 72.7667 40.2768 72.957L40.5834 74.5921C40.6277 74.8286 40.8342 75 41.0748 75H44.9252C45.1658 75 45.3723 74.8286 45.4166 74.5921L45.7232 72.957C45.7589 72.7667 45.9015 72.6151 46.0874 72.5608C46.1389 72.5458 46.1903 72.5304 46.2416 72.5146L46.2407 72.5118C46.8392 72.3273 47.4208 72.092 47.9792 71.8085L47.9803 71.8106C48.0823 71.7587 48.1834 71.7053 48.2836 71.6503C48.4534 71.5572 48.6615 71.5635 48.8213 71.6729L50.1951 72.6128C50.3936 72.7487 50.6608 72.7239 50.831 72.5537L53.5536 69.8311C53.7237 69.661 53.7486 69.3938 53.6127 69.1952L52.6728 67.8215C52.5634 67.6617 52.5571 67.4536 52.6502 67.2838L52.6787 67.2315L52.7037 67.1851L52.7018 67.1841C52.997 66.6317 53.2444 66.0551 53.4414 65.4607L53.4443 65.4616C53.4853 65.3378 53.5241 65.2131 53.5608 65.0874C53.6151 64.9015 53.7667 64.7589 53.957 64.7232L55.5921 64.4166C55.8286 64.3723 56 64.1658 56 63.9252V60.0748C56 59.8342 55.8286 59.6277 55.5921 59.5834L53.957 59.2768C53.7667 59.2411 53.6151 59.0985 53.5608 58.9126C53.5475 58.8671 53.534 58.8217 53.5201 58.7764L53.5173 58.7772C53.3338 58.1785 53.0995 57.5964 52.817 57.0375Z"/>
</svg>
