<svg width="86" height="86" viewBox="0 0 86 86" xmlns="http://www.w3.org/2000/svg">
<rect width="86" height="86" fill="white"/>
<path d="M73.8203 28.8172C74.4719 28.8172 74.9998 28.3319 74.9998 27.7332V20.2142C74.9998 18.0733 73.1838 16.3107 70.8653 16.2018C56.8757 15.547 49.3572 10.2896 46.1206 7.21392C45.2971 6.43114 44.1888 6 43 6C41.8112 6 40.7029 6.43114 39.8793 7.21392C36.6426 10.2896 29.1241 15.5472 15.1343 16.2019C12.8162 16.3107 11 18.0733 11 20.2142V50.4358C11 59.1408 16.0961 67.2526 24.2995 71.6056L37.6446 78.6849C39.2964 79.5618 41.148 80 43.0002 80C44.8517 80 46.7039 79.5616 48.3552 78.6851L61.7005 71.6055C69.9039 67.2525 75 59.1408 75 50.4356V32.792C75 32.1933 74.4719 31.708 73.8205 31.708C73.1689 31.708 72.6409 32.1933 72.6409 32.792V50.4358C72.6409 58.3687 67.9969 65.761 60.5213 69.7279L47.1757 76.8074C44.5998 78.1747 41.4002 78.1746 38.8243 76.8073L25.4792 69.7279C18.0035 65.7609 13.3594 58.3685 13.3594 50.4356V20.2141C13.3594 19.2282 14.192 18.4168 15.2548 18.367C30.0525 17.6745 38.0971 12.0262 41.5754 8.72095C41.9507 8.36439 42.4566 8.16797 43.0002 8.16797C43.5437 8.16797 44.0496 8.36425 44.4249 8.72095C47.9031 12.0261 55.9477 17.6744 70.7453 18.367C71.8083 18.417 72.6409 19.2284 72.6409 20.2141V27.7329C72.6408 28.3319 73.1689 28.8172 73.8203 28.8172Z"/>
<path d="M18.535 42.8391C17.8834 42.8391 17.3555 43.3244 17.3555 43.9231V50.436C17.3555 57.0608 21.2335 63.2347 27.4764 66.5485L40.8221 73.6282C41.4845 73.9793 42.2375 74.1649 42.9998 74.1649C43.7621 74.1649 44.5151 73.9793 45.178 73.6279L58.5234 66.5483C64.766 63.2347 68.6442 57.0608 68.6442 50.436V24.2094C68.6442 22.9297 67.6049 21.8452 66.2277 21.687C55.6479 20.4642 48.6879 16.7702 44.7124 13.8871C43.7044 13.1556 42.2959 13.1553 41.2878 13.887C37.3119 16.7704 30.3519 20.4643 19.7732 21.687C18.395 21.8453 17.3558 22.9297 17.3558 24.2094V38.8642C17.3558 39.4628 17.8839 39.9482 18.5353 39.9482C19.1867 39.9482 19.7149 39.4628 19.7149 38.8642V24.2094C19.7149 24.0208 19.8657 23.8612 20.0664 23.8383C31.185 22.5529 38.5383 18.6428 42.7494 15.5887C42.8971 15.4817 43.1031 15.4817 43.2507 15.5888C47.4616 18.6428 54.815 22.5529 65.9344 23.8383C66.1343 23.8612 66.2851 24.0208 66.2851 24.2094V50.436C66.2851 56.2889 62.8589 61.7434 57.3441 64.6707L43.9991 71.75C43.39 72.0728 42.6096 72.0726 42.0013 71.7502L28.6562 64.6709C23.141 61.7434 19.7149 56.2889 19.7149 50.436V43.9231C19.7145 43.3244 19.1866 42.8391 18.535 42.8391Z"/>
<path d="M30.2906 40.894C28.7641 40.894 27.5225 42.0351 27.5225 43.4377V59.4975C27.5225 60.9002 28.7643 62.0414 30.2906 62.0414H55.7099C57.2364 62.0414 58.478 60.9002 58.478 59.4975V51.6606C58.478 51.0619 57.9499 50.5766 57.2985 50.5766C56.6469 50.5766 56.1189 51.0619 56.1189 51.6606V59.4975C56.1189 59.7048 55.9354 59.8733 55.7099 59.8733H30.2906C30.0651 59.8733 29.8815 59.7046 29.8815 59.4975V43.4379C29.8815 43.2306 30.0651 43.0621 30.2906 43.0621H55.7099C55.9354 43.0621 56.1189 43.2306 56.1189 43.4379V46.6018C56.1189 47.2005 56.6471 47.6858 57.2985 47.6858C57.9501 47.6858 58.478 47.2005 58.478 46.6018V43.4379C58.478 42.2062 57.5204 41.1768 56.2536 40.944V32.9263C56.2536 26.2103 50.3081 20.7466 43.0002 20.7466C35.6922 20.7466 29.7467 26.2105 29.7467 32.9263V35.8462C29.7467 36.4449 30.2749 36.9302 30.9263 36.9302H36.0101C36.6617 36.9302 37.1896 36.4449 37.1896 35.8462V32.9263C37.1896 29.9819 39.7961 27.5865 43 27.5865C46.2039 27.5865 48.8104 29.982 48.8104 32.9263V40.8941H30.2906V40.894ZM43.0002 25.4183C38.4954 25.4183 34.8305 28.7863 34.8305 32.9261V34.7621H32.106V32.9261C32.106 27.4057 36.9932 22.9146 43.0002 22.9146C49.0071 22.9146 53.8943 27.4057 53.8943 32.9261V40.894H51.1698V32.9261C51.1698 28.7863 47.5049 25.4183 43.0002 25.4183Z"/>
<path d="M42.9995 57.3687C43.6511 57.3687 44.179 56.8834 44.179 56.2847V52.5279C45.7436 52.068 46.8799 50.7194 46.8799 49.131C46.8799 47.1646 45.1392 45.5649 42.9995 45.5649C40.8598 45.5649 39.1191 47.1646 39.1191 49.131C39.1191 50.7194 40.2553 52.0681 41.82 52.5279V56.2847C41.82 56.8834 42.3479 57.3687 42.9995 57.3687ZM42.9995 47.7329C43.8382 47.7329 44.5206 48.36 44.5206 49.1308C44.5206 49.9016 43.8382 50.5287 42.9995 50.5287C42.1608 50.5287 41.4784 49.9016 41.4784 49.1308C41.4784 48.36 42.1608 47.7329 42.9995 47.7329Z"/>
</svg>
