<svg width="86" height="86" viewBox="0 0 86 86" xmlns="http://www.w3.org/2000/svg">
<rect width="86" height="86" fill="white"/>
<path d="M31.0004 58.6001H28.6004C27.9377 58.6001 27.4004 59.1374 27.4004 59.8001C27.4004 60.4628 27.9377 61.0001 28.6004 61.0001H31.0004C31.6631 61.0001 32.2004 60.4628 32.2004 59.8001C32.2004 59.1374 31.6631 58.6001 31.0004 58.6001Z"/>
<path d="M64.5996 58.6001H35.7996C35.1369 58.6001 34.5996 59.1374 34.5996 59.8001C34.5996 60.4628 35.1369 61.0001 35.7996 61.0001H64.5996C65.2623 61.0001 65.7996 60.4628 65.7996 59.8001C65.7996 59.1374 65.2623 58.6001 64.5996 58.6001Z"/>
<path d="M31.0004 51.3999H28.6004C27.9377 51.3999 27.4004 51.9372 27.4004 52.5999C27.4004 53.2626 27.9377 53.7999 28.6004 53.7999H31.0004C31.6631 53.7999 32.2004 53.2626 32.2004 52.5999C32.2004 51.9372 31.6631 51.3999 31.0004 51.3999Z"/>
<path d="M64.5996 51.3999H35.7996C35.1369 51.3999 34.5996 51.9372 34.5996 52.5999C34.5996 53.2626 35.1369 53.7999 35.7996 53.7999H64.5996C65.2623 53.7999 65.7996 53.2626 65.7996 52.5999C65.7996 51.9372 65.2623 51.3999 64.5996 51.3999Z"/>
<path d="M31.0004 44.2002H28.6004C27.9377 44.2002 27.4004 44.7375 27.4004 45.4002C27.4004 46.0629 27.9377 46.6002 28.6004 46.6002H31.0004C31.6631 46.6002 32.2004 46.0629 32.2004 45.4002C32.2004 44.7375 31.6631 44.2002 31.0004 44.2002Z"/>
<path d="M64.5996 44.2002H35.7996C35.1369 44.2002 34.5996 44.7375 34.5996 45.4002C34.5996 46.0629 35.1369 46.6002 35.7996 46.6002H64.5996C65.2623 46.6002 65.7996 46.0629 65.7996 45.4002C65.7996 44.7375 65.2623 44.2002 64.5996 44.2002Z"/>
<path d="M31.0004 37H28.6004C27.9377 37 27.4004 37.5373 27.4004 38.2C27.4004 38.8627 27.9377 39.4 28.6004 39.4H31.0004C31.6631 39.4 32.2004 38.8627 32.2004 38.2C32.2004 37.5373 31.6631 37 31.0004 37Z"/>
<path d="M64.5996 37H35.7996C35.1369 37 34.5996 37.5373 34.5996 38.2C34.5996 38.8627 35.1369 39.4 35.7996 39.4H64.5996C65.2623 39.4 65.7996 38.8627 65.7996 38.2C65.7996 37.5373 65.2623 37 64.5996 37Z"/>
<path d="M31.0004 29.7998H28.6004C27.9377 29.7998 27.4004 30.3371 27.4004 30.9998C27.4004 31.6625 27.9377 32.1998 28.6004 32.1998H31.0004C31.6631 32.1998 32.2004 31.6625 32.2004 30.9998C32.2004 30.3371 31.6631 29.7998 31.0004 29.7998Z"/>
<path d="M64.5996 29.7998H35.7996C35.1369 29.7998 34.5996 30.3371 34.5996 30.9998C34.5996 31.6625 35.1369 32.1998 35.7996 32.1998H64.5996C65.2623 32.1998 65.7996 31.6625 65.7996 30.9998C65.7996 30.3371 65.2623 29.7998 64.5996 29.7998Z"/>
<path d="M72.9844 24.9244C72.9784 24.8193 72.9579 24.7155 72.9232 24.616C72.91 24.5776 72.9004 24.5404 72.8836 24.5032C72.8253 24.3727 72.7439 24.2536 72.6436 24.1516L55.8436 7.3516C55.7416 7.25125 55.6225 7.16995 55.492 7.1116C55.4548 7.0948 55.4176 7.0852 55.3804 7.072C55.2801 7.0375 55.1755 7.0165 55.0696 7.0096C55.0492 7.0132 55.0264 7 55 7H21.4C20.7373 7 20.2 7.5373 20.2 8.2V11.8H14.2C13.5373 11.8 13 12.3373 13 13V77.8C13 78.4627 13.5373 79 14.2 79H64.6C65.2627 79 65.8 78.4627 65.8 77.8V71.8H71.8C72.4627 71.8 73 71.2627 73 70.6V25C73 24.9736 72.9868 24.9508 72.9844 24.9244ZM56.2 11.0968L68.9032 23.8H56.2V11.0968ZM63.4 76.6H15.4V14.2H20.2V70.6C20.2 71.2627 20.7373 71.8 21.4 71.8H63.4V76.6ZM70.6 69.4H22.6V9.4H53.8V25C53.8 25.6627 54.3373 26.2 55 26.2H70.6V69.4Z"/>
<path d="M35.8004 17.7998H28.6004C27.9377 17.7998 27.4004 18.3371 27.4004 18.9998V26.1998C27.4004 26.8625 27.9377 27.3998 28.6004 27.3998H35.8004C36.4631 27.3998 37.0004 26.8625 37.0004 26.1998V18.9998C37.0004 18.3371 36.4631 17.7998 35.8004 17.7998ZM34.6004 24.9998H29.8004V20.1998H34.6004V24.9998Z"/>
</svg>
