<svg width="86" height="86" viewBox="0 0 86 86" xmlns="http://www.w3.org/2000/svg">
<rect width="86" height="86" fill="white"/>
<path d="M24.9355 37.355H61.0646V39.613H24.9355V37.355Z"/>
<path d="M46.3867 41.8711H61.0641V44.1292H46.3867V41.8711Z"/>
<path d="M24.9355 41.8711H39.613V44.1292H24.9355V41.8711Z"/>
<path d="M46.3867 32.8389H61.0641V35.0969H46.3867V32.8389Z"/>
<path d="M24.9355 32.8389H39.613V35.0969H24.9355V32.8389Z"/>
<path d="M24.9355 28.3228H61.0646V30.5808H24.9355V28.3228Z"/>
<path d="M67.8386 34.1606V28.3225C67.8386 24.5865 64.8005 21.5483 61.0645 21.5483V23.8064C63.5552 23.8064 65.5806 25.8318 65.5806 28.3225V34.1606C65.5806 36.1624 66.241 38.0637 67.4605 39.6128C66.241 41.162 65.5806 43.0633 65.5806 45.0651V50.9032C65.5806 53.3939 63.5552 55.4193 61.0645 55.4193V57.6774C64.8005 57.6774 67.8386 54.6392 67.8386 50.9032V45.0651C67.8386 43.307 68.5228 41.6543 69.7659 40.4111L70.5642 39.6128L69.7659 38.8146C68.5228 37.5714 67.8386 35.9198 67.8386 34.1606Z"/>
<path d="M20.4192 50.9032V45.0651C20.4192 43.0633 19.7587 41.162 18.5393 39.6128C19.7587 38.0637 20.4192 36.1624 20.4192 34.1606V28.3225C20.4192 25.8318 22.4446 23.8064 24.9353 23.8064V21.5483C21.1992 21.5483 18.1611 24.5865 18.1611 28.3225V34.1606C18.1611 35.9187 17.477 37.5714 16.2338 38.8146L15.4355 39.6128L16.2338 40.4111C17.477 41.6543 18.1611 43.3059 18.1611 45.0651V50.9032C18.1611 54.6392 21.1992 57.6774 24.9353 57.6774V55.4193C22.4446 55.4193 20.4192 53.3939 20.4192 50.9032Z"/>
<path d="M43.0005 57.6777C40.5098 57.6777 38.4844 59.7032 38.4844 62.1939C38.4844 64.6846 40.5098 66.71 43.0005 66.71C45.4912 66.71 47.5166 64.6846 47.5166 62.1939C47.5166 59.7032 45.4912 57.6777 43.0005 57.6777ZM43.0005 64.4519C41.7552 64.4519 40.7424 63.4392 40.7424 62.1939C40.7424 60.9485 41.7552 59.9358 43.0005 59.9358C44.2459 59.9358 45.2586 60.9485 45.2586 62.1939C45.2586 63.4392 44.2459 64.4519 43.0005 64.4519Z"/>
<path d="M42.9995 53.1611C41.5 53.1611 40.0132 53.5371 38.7012 54.2472L39.7773 56.2334C40.7608 55.7015 41.8738 55.4192 42.9995 55.4192C46.7356 55.4192 49.7737 58.4573 49.7737 62.1934C49.7737 63.3191 49.4915 64.4321 48.9595 65.4156L50.9458 66.4917C51.6558 65.1797 52.0318 63.6929 52.0318 62.1934C52.0318 57.2131 47.9799 53.1611 42.9995 53.1611Z"/>
<path d="M43 68.9676C39.264 68.9676 36.2258 65.9295 36.2258 62.1934C36.2258 61.0677 36.5081 59.9546 37.0401 58.9711L35.0538 57.895C34.3438 59.2071 33.9678 60.6939 33.9678 62.1934C33.9678 67.1737 38.0197 71.2256 43 71.2256C44.4995 71.2256 45.9863 70.8497 47.2984 70.1396L46.2223 68.1533C45.2388 68.6853 44.1258 68.9676 43 68.9676Z"/>
<path d="M78 11.3871C78 9.51989 76.4801 8 74.6129 8H11.3871C9.51989 8 8 9.51989 8 11.3871V63.3226H27.1935V65.3331L30.0194 66.0404C30.2885 66.9456 30.6507 67.8194 31.1022 68.6508L29.6016 71.1503L34.0411 75.5898L36.5406 74.0892C37.3719 74.5418 38.2457 74.904 39.1509 75.1719L39.8604 78H46.1396L46.8469 75.1741C47.7521 74.9051 48.6259 74.5429 49.4572 74.0914L51.9567 75.592L56.3962 71.1525L54.8956 68.653C55.3482 67.8216 55.7104 66.9478 55.9784 66.0426L58.8064 65.3331V63.3226H78V11.3871ZM11.3871 10.2581H74.6129C75.2347 10.2581 75.7419 10.7652 75.7419 11.3871V17.0323H10.2581V11.3871C10.2581 10.7652 10.7652 10.2581 11.3871 10.2581ZM56.5484 63.5701L54.1255 64.176L53.9651 64.8414C53.6911 65.9814 53.239 67.0686 52.6249 68.0724L52.2671 68.6563L53.5544 70.8002L51.6078 72.7468L49.4638 71.4595L48.88 71.8173C47.8761 72.4315 46.789 72.883 45.6489 73.1575L44.9835 73.3179L44.3766 75.7419H41.6234L41.0176 73.319L40.3522 73.1586C39.2121 72.8846 38.125 72.4326 37.1211 71.8184L36.5373 71.4607L34.3933 72.7479L32.4467 70.8013L33.734 68.6574L33.3762 68.0736C32.7621 67.0697 32.3106 65.9825 32.036 64.8425L31.8756 64.1771L29.4516 63.5701V60.817L31.8745 60.2111L32.0349 59.5457C32.3089 58.4057 32.761 57.3185 33.3751 56.3146L33.7329 55.7308L32.4456 53.5869L34.3922 51.6403L36.5362 52.9275L37.12 52.5698C38.1239 51.9556 39.211 51.5041 40.3511 51.2296L41.0165 51.0692L41.6234 48.6452H44.3766L44.9824 51.0681L45.6478 51.2285C46.7879 51.5025 47.875 51.9545 48.8789 52.5687L49.4627 52.9264L51.6067 51.6392L53.5533 53.5858L52.266 55.7297L52.6238 56.3135C53.2379 57.3174 53.6894 58.4046 53.964 59.5446L54.1244 60.21L56.5484 60.817V63.5701ZM58.8064 61.0645V59.054L55.9806 58.3467C55.7115 57.4415 55.3493 56.5677 54.8978 55.7363L56.3984 53.2368L51.9589 48.7973L49.4594 50.2979C48.6281 49.8453 47.7543 49.4831 46.8491 49.2152L46.1396 46.3871H39.8604L39.1531 49.213C38.2479 49.482 37.3741 49.8442 36.5428 50.2957L34.0433 48.7951L29.6038 53.2346L31.1044 55.7341C30.6518 56.5655 30.2896 57.4393 30.0216 58.3445L27.1935 59.054V61.0645H10.2581V19.2903H75.7419V61.0645H58.8064Z"/>
<path d="M12.5156 12.5161H14.7737V14.7742H12.5156V12.5161Z"/>
<path d="M17.0322 12.5161H19.2903V14.7742H17.0322V12.5161Z"/>
<path d="M21.5488 12.5161H23.8069V14.7742H21.5488V12.5161Z"/>
</svg>
