<svg width="86" height="86" viewBox="0 0 86 86" xmlns="http://www.w3.org/2000/svg">
<rect width="86" height="86" fill="white"/>
<path d="M55.5 24.613C55.5 17.8539 49.8925 12.355 43 12.355C36.1075 12.355 30.5 17.8539 30.5 24.613C30.5 31.3721 36.1075 36.8711 43 36.8711C49.8925 36.8711 55.5 31.3721 55.5 24.613ZM33 24.613C33 19.206 37.4863 14.8066 43 14.8066C48.5138 14.8066 53 19.206 53 24.613C53 30.0201 48.5138 34.4195 43 34.4195C37.4863 34.4195 33 30.0201 33 24.613Z"/>
<path d="M65.4875 48.2379L54.4262 46.6884L48 45.6392V43V41.3059L51.3012 39.6879L52.7237 41.0816C53.2125 41.5609 54.0025 41.5609 54.4912 41.0816L59.7938 35.8805C60.2825 35.4012 60.2825 34.6265 59.7938 34.1472L58.3725 32.7535L60.0225 29.5161H61.75C62.4412 29.5161 63 28.967 63 28.2903V20.9355C63 20.2588 62.4412 19.7097 61.75 19.7097H60.0225L58.3725 16.4723L59.7938 15.0786C60.2825 14.5993 60.2825 13.8246 59.7938 13.3453L54.4912 8.14419C54.0025 7.6649 53.2125 7.6649 52.7237 8.14419L51.3012 9.53794L48 7.91987V6.22581C48 5.54916 47.4412 5 46.75 5H39.25C38.5588 5 38 5.54916 38 6.22581V7.91987L34.6987 9.53794L33.2763 8.14419C32.7875 7.6649 31.9975 7.6649 31.5087 8.14419L26.2063 13.3453C25.7175 13.8246 25.7175 14.5993 26.2063 15.0786L27.6275 16.4723L25.9775 19.7097H24.25C23.5588 19.7097 23 20.2588 23 20.9355V28.2903C23 28.967 23.5588 29.5161 24.25 29.5161H25.9775L27.6275 32.7535L26.2063 34.1472C25.7175 34.6265 25.7175 35.4012 26.2063 35.8805L31.5087 41.0816C31.9975 41.5609 32.7875 41.5609 33.2763 41.0816L34.6987 39.6879L38 41.3059V43V45.6392L31.5725 46.6897L20.5112 48.2391C16.23 48.8397 13 52.4914 13 56.7339V79.7742C13 80.4521 13.5588 81 14.25 81H71.75C72.4412 81 73 80.4521 73 79.7742V56.7339C73 52.4914 69.77 48.8397 65.4875 48.2379ZM47.4387 64.6686L46.7938 55.8072L49.1175 58.086L47.4387 64.6686ZM45.4788 72.1717L43 77.0333L40.5212 72.1717L41.5075 58.6278C41.965 58.8239 42.4688 58.9355 43 58.9355C43.5312 58.9355 44.035 58.8239 44.4925 58.6278L45.4788 72.1717ZM36.8838 58.086L39.2075 55.8072L38.5625 64.6686L36.8838 58.086ZM40.5 44.2258H45.5V46.1699L43 48.6215L40.5 46.1699V44.2258ZM41.75 53.3139L43 52.0881L44.25 53.3139V55.2581C44.25 55.9347 43.69 56.4839 43 56.4839C42.31 56.4839 41.75 55.9347 41.75 55.2581V53.3139ZM50.0113 55.4959L44.7675 50.3548L47.1787 47.9903L52.5462 48.8679L50.0113 55.4959ZM35.0112 37.1002C34.53 36.8648 33.95 36.9555 33.5688 37.3306L32.3937 38.4829L28.8588 35.0151L30.0325 33.8628C30.4137 33.4902 30.5075 32.9202 30.2675 32.4483L27.8688 27.7436C27.6563 27.3268 27.2238 27.0645 26.75 27.0645H25.5V22.1613H26.75C27.2238 22.1613 27.6563 21.899 27.8688 21.4834L30.2675 16.7788C30.5075 16.3068 30.4137 15.7368 30.0325 15.3642L28.8588 14.2119L32.3937 10.7441L33.5688 11.8964C33.9513 12.2703 34.5325 12.3622 35.0112 12.1268L39.8088 9.77452C40.2325 9.56613 40.5 9.142 40.5 8.67742V7.45161H45.5V8.67742C45.5 9.142 45.7675 9.56613 46.1913 9.77452L50.9887 12.1268C51.4688 12.361 52.05 12.2703 52.4312 11.8964L53.6063 10.7441L57.1413 14.2119L55.9675 15.3642C55.5863 15.7368 55.4925 16.3068 55.7325 16.7788L58.1312 21.4834C58.3438 21.899 58.7762 22.1613 59.25 22.1613H60.5V27.0645H59.25C58.7762 27.0645 58.3438 27.3268 58.1312 27.7424L55.7325 32.447C55.4925 32.919 55.5863 33.489 55.9675 33.8616L57.1413 35.0139L53.6063 38.4817L52.4312 37.3294C52.05 36.9568 51.47 36.8661 50.9887 37.099L46.1913 39.4513C45.7675 39.6597 45.5 40.0838 45.5 40.5484V41.7742H40.5V40.5484C40.5 40.0838 40.2325 39.6597 39.8088 39.4513L35.0112 37.1002ZM38.8212 47.9903L41.2325 50.3548L35.9888 55.4959L33.455 48.8679L38.8212 47.9903ZM15.5 56.7339C15.5 53.7037 17.8075 51.094 20.8663 50.6662L30.9325 49.2565L34.3075 58.0835L38.0375 72.7172L38.0438 72.716C38.0662 72.803 38.0912 72.8888 38.1312 72.9685L40.9775 78.5484H25.5V60.1613H23V78.5484H15.5V56.7339ZM70.5 78.5484H61.75V60.1613H59.25V78.5484H45.0225L47.8675 72.9673C47.9088 72.8876 47.9338 72.8006 47.955 72.7148L47.9613 72.716L51.6912 58.0823L55.0662 49.2553L65.1325 50.665C68.1912 51.094 70.4987 53.7037 70.4987 56.7327V78.5484H70.5Z"/>
</svg>
