<svg width="86" height="86" viewBox="0 0 86 86" xmlns="http://www.w3.org/2000/svg">
<rect width="86" height="86" fill="white"/>
<path d="M71.525 24.3789H14.475C11.0808 24.2044 8.18984 26.9757 8 30.5858V69.8632C8.02045 72.3109 9.47801 74.4835 11.647 75.2992C13.6777 76.1219 15.8014 76.6562 17.9633 76.8882L18.8464 77.0248C21.6514 77.4575 24.2798 77.8091 26.8878 78.1C32.2137 78.6857 37.564 78.986 42.9183 78.9998H43.0817C48.4375 78.9862 53.7892 78.6855 59.1166 78.0991C61.7199 77.8093 64.3482 77.4578 67.159 77.025L68.0363 76.8885C70.1961 76.6565 72.3178 76.1234 74.3469 75.3028C76.5185 74.4875 77.9785 72.3134 78 69.8632V30.5858C77.8102 26.9757 74.9192 24.2044 71.525 24.3789ZM75.6667 69.8632C75.609 71.3053 74.7212 72.56 73.4347 73.0177C71.5901 73.7525 69.6631 74.2277 67.7028 74.4311L66.8187 74.5694C64.0456 74.9961 61.4456 75.3441 58.8776 75.6302C53.6296 76.2078 48.3576 76.5038 43.0817 76.517H42.9183C37.644 76.5036 32.3737 76.2078 27.1273 75.6308C24.5548 75.3436 21.9547 74.9956 19.1874 74.5689L18.2976 74.4306C16.335 74.2271 14.4061 73.7506 12.5599 73.0135C11.2758 72.556 10.3901 71.3029 10.3333 69.8632V30.5858C10.5272 28.3497 12.3705 26.6921 14.475 26.8617H71.525C73.6295 26.6921 75.4728 28.3497 75.6667 30.5858V69.8632Z"/>
<path d="M72.1657 29.3452H13.9235C13.2792 29.3452 12.7568 29.901 12.7568 30.5866V66.6267C12.7568 67.3123 13.2792 67.8681 13.9235 67.8681H13.9247L72.1669 67.8281C72.8108 67.8274 73.3324 67.2719 73.3324 66.5867V30.5866C73.3324 29.901 72.8101 29.3452 72.1657 29.3452ZM70.9991 65.3466L15.0902 65.3838V31.828H70.9991V65.3466Z"/>
<path d="M42.9997 72.7938C43.644 72.7938 44.1663 72.238 44.1663 71.5524C44.1663 70.8668 43.644 70.311 42.9997 70.311C42.3553 70.311 41.833 70.8668 41.833 71.5524C41.833 72.238 42.3553 72.7938 42.9997 72.7938Z"/>
<path d="M35.9997 72.7938C36.644 72.7938 37.1664 72.238 37.1664 71.5524C37.1664 70.8668 36.644 70.311 35.9997 70.311C35.3553 70.311 34.833 70.8668 34.833 71.5524C34.833 72.238 35.3553 72.7938 35.9997 72.7938Z"/>
<path d="M50.0006 72.7938C50.645 72.7938 51.1673 72.238 51.1673 71.5524C51.1673 70.8668 50.645 70.311 50.0006 70.311C49.3563 70.311 48.834 70.8668 48.834 71.5524C48.834 72.238 49.3563 72.7938 50.0006 72.7938Z"/>
<path d="M34.7368 49.8316L40.5565 61.3011C41.0424 62.2581 41.9803 62.8568 43.0026 62.8625H43.0105C44.0314 62.8594 44.9695 62.2646 45.4579 61.3108L51.2707 49.9832C51.8022 48.9974 52.1445 47.9091 52.2778 46.7815C52.4188 45.3905 52.2958 43.9835 51.9162 42.644C50.9175 39.1014 48.1582 36.4378 44.7476 35.7242C42.0314 35.1754 39.227 35.9474 37.1016 37.8288C34.9119 39.7718 33.6526 42.6542 33.6681 45.688C33.6925 47.1426 34.06 48.5674 34.7368 49.8316ZM38.5934 39.7381C39.8243 38.635 41.3825 38.0312 42.9918 38.0336C43.4382 38.0341 43.8836 38.0784 44.3225 38.1658C46.875 38.7042 48.9379 40.7015 49.6819 43.3548C49.9714 44.3781 50.0655 45.4526 49.9587 46.5152C49.8574 47.3162 49.6088 48.0881 49.2272 48.787L43.4122 60.1183C43.3365 60.2802 43.1805 60.3817 43.0105 60.3797H43.0094C42.8402 60.3814 42.685 60.2802 42.6096 60.1191L36.7853 48.6436C36.2932 47.7347 36.0236 46.7088 36.0014 45.6602C35.9925 43.3737 36.9429 41.2022 38.5934 39.7381Z"/>
<path d="M18.4995 43.0001C18.8089 43.0005 19.1058 42.8696 19.3243 42.6364L25.1576 36.4295C25.5998 35.9424 25.5934 35.1681 25.1434 34.6893C24.6934 34.2104 23.9657 34.2037 23.508 34.6742L17.6746 40.8811C17.3411 41.2361 17.2413 41.7699 17.4218 42.2338C17.6024 42.6976 18.0277 43 18.4995 43.0001Z"/>
<path d="M18.4995 51.6898C18.8089 51.6902 19.1058 51.5593 19.3243 51.3261L33.3243 36.4295C33.7664 35.9424 33.7601 35.1681 33.3101 34.6893C32.8601 34.2104 32.1324 34.2037 31.6746 34.6742L17.6746 49.5708C17.3411 49.9258 17.2413 50.4596 17.4218 50.9235C17.6024 51.3873 18.0277 51.6897 18.4995 51.6898Z"/>
<path d="M57.0005 19.437C57.3909 19.4371 57.7555 19.2294 57.9719 18.8837C58.1883 18.5379 58.2278 18.0999 58.0772 17.7167C57.2511 15.6108 56.0445 13.6981 54.5258 12.0869C51.4806 8.82282 47.3346 6.99106 43.0121 7.00004H42.946C38.6219 6.99002 34.4738 8.82182 31.4271 12.0869C29.9087 13.6985 28.7018 15.6111 27.8748 17.7167C27.6262 18.3494 27.9068 19.0767 28.5014 19.3411C29.096 19.6056 29.7795 19.3071 30.0281 18.6744C30.7377 16.8671 31.7735 15.2254 33.0768 13.8422C35.6881 11.0433 39.2438 9.47334 42.9503 9.48281H43.0073C46.712 9.47542 50.2656 11.0451 52.8761 13.8422C54.1798 15.2248 55.2154 16.8666 55.9237 18.6744C56.1053 19.1364 56.5299 19.4371 57.0005 19.437Z"/>
<path d="M52.6846 21.3416C53.0754 21.3416 53.4402 21.1334 53.6564 20.7871C53.8726 20.4407 53.9115 20.0022 53.76 19.6189C53.1685 18.1158 52.3072 16.7499 51.2241 15.5978C46.665 10.7584 39.2848 10.7584 34.7256 15.5978C33.643 16.7496 32.7819 18.1151 32.1907 19.6178C31.964 20.2433 32.2451 20.9473 32.8256 21.208C33.4061 21.4687 34.0762 21.1919 34.3393 20.5827C34.8147 19.376 35.5062 18.2792 36.3752 17.3534C40.0234 13.4839 45.9259 13.4839 49.5741 17.3534C50.4432 18.2783 51.1344 19.3746 51.6091 20.581C51.7911 21.0417 52.2149 21.3415 52.6846 21.3416Z"/>
<path d="M47.9735 18.9813C45.2115 16.0497 40.7408 16.0491 37.9782 18.9801C37.3219 19.6774 36.7998 20.5042 36.4412 21.4143C36.1915 22.0464 36.4698 22.7742 37.0633 23.0413C37.207 23.1051 37.3611 23.138 37.5168 23.1382C37.986 23.1382 38.4097 22.8393 38.5923 22.3794C38.8328 21.7651 39.1843 21.207 39.6268 20.7367C41.4782 18.7746 44.472 18.7746 46.3235 20.7367C46.7649 21.2072 47.1159 21.7647 47.3569 22.3781C47.6067 23.0102 48.2907 23.307 48.8847 23.0412C49.4787 22.7754 49.7577 22.0476 49.5079 21.4156C49.1501 20.5057 48.6289 19.6788 47.9735 18.9813Z"/>
<path d="M42.9997 50.4482C45.577 50.4482 47.6663 48.225 47.6663 45.4826C47.6663 42.7402 45.577 40.5171 42.9997 40.5171C40.4223 40.5171 38.333 42.7402 38.333 45.4826C38.3355 48.2239 40.4234 50.4455 42.9997 50.4482ZM42.9997 42.9999C44.2883 42.9999 45.333 44.1114 45.333 45.4826C45.333 46.8538 44.2883 47.9654 42.9997 47.9654C41.711 47.9654 40.6663 46.8538 40.6663 45.4826C40.6681 44.1122 41.7117 43.0017 42.9997 42.9999Z"/>
</svg>
