<svg width="16" height="16" viewBox="0 0 16 16" xmlns="http://www.w3.org/2000/svg">
    <path d="M8 5.33333C8.73333 5.33333 9.33333 4.73333 9.33333 4C9.33333 3.26667 8.73333 2.66667 8 2.66667C7.26666 2.66667 6.66666 3.26667 6.66666 4C6.66666 4.73333 7.26666 5.33333 8 5.33333ZM8 6.66667C7.26666 6.66667 6.66666 7.26667 6.66666 8C6.66666 8.73333 7.26666 9.33333 8 9.33333C8.73333 9.33333 9.33333 8.73333 9.33333 8C9.33333 7.26667 8.73333 6.66667 8 6.66667ZM8 10.6667C7.26666 10.6667 6.66666 11.2667 6.66666 12C6.66666 12.7333 7.26666 13.3333 8 13.3333C8.73333 13.3333 9.33333 12.7333 9.33333 12C9.33333 11.2667 8.73333 10.6667 8 10.6667Z"/>
</svg>
