<svg width="24" height="24" viewBox="0 0 24 24" xmlns="http://www.w3.org/2000/svg">
<path d="M13 2.2V14H14.78C14.819 13.9986 14.8577 14.008 14.8916 14.0273C14.9256 14.0466 14.9534 14.075 14.9721 14.1093C14.9908 14.1436 14.9996 14.1824 14.9975 14.2214C14.9953 14.2604 14.9824 14.298 14.96 14.33L12.17 17.92C12.1494 17.9451 12.1234 17.9654 12.094 17.9793C12.0646 17.9932 12.0325 18.0004 12 18.0004C11.9675 18.0004 11.9354 17.9932 11.906 17.9793C11.8766 17.9654 11.8507 17.9451 11.83 17.92L9.00002 14.33C8.97373 14.2952 8.95891 14.2531 8.95761 14.2096C8.95632 14.166 8.96861 14.1231 8.99279 14.0868C9.01697 14.0506 9.05183 14.0227 9.09255 14.0072C9.13327 13.9916 9.17782 13.9891 9.22002 14H11V2.2C11 2.14696 11.0211 2.09609 11.0586 2.05858C11.0961 2.02107 11.147 2 11.2 2H12.8C12.8263 2 12.8523 2.00517 12.8766 2.01522C12.9008 2.02527 12.9229 2.04001 12.9414 2.05858C12.96 2.07715 12.9747 2.0992 12.9848 2.12346C12.9948 2.14773 13 2.17374 13 2.2Z"/>
<path d="M16.8 20H7.2C7.08954 20 7 20.0895 7 20.2V21.8C7 21.9105 7.08954 22 7.2 22H16.8C16.9105 22 17 21.9105 17 21.8V20.2C17 20.0895 16.9105 20 16.8 20Z"/>
</svg>
