<svg width="24" height="24" viewBox="0 0 24 24" xmlns="http://www.w3.org/2000/svg">
<path d="M13 21.8V10H14.78C14.8222 10.0109 14.8667 10.0084 14.9075 9.99283C14.9482 9.97727 14.983 9.94942 15.0072 9.91316C15.0314 9.87689 15.0437 9.83399 15.0424 9.79042C15.0411 9.74685 15.0263 9.70477 15 9.67L12.17 6.08C12.1493 6.05487 12.1234 6.03464 12.094 6.02074C12.0646 6.00685 12.0325 5.99964 12 5.99964C11.9675 5.99964 11.9354 6.00685 11.906 6.02074C11.8766 6.03464 11.8506 6.05487 11.83 6.08L8.99998 9.67C8.97764 9.70202 8.96468 9.73964 8.96254 9.77863C8.96039 9.81761 8.96916 9.85642 8.98786 9.8907C9.00656 9.92498 9.03444 9.95337 9.06838 9.97267C9.10232 9.99198 9.14096 10.0014 9.17998 10H11V21.8C11 21.853 11.0211 21.9039 11.0586 21.9414C11.0961 21.9789 11.1469 22 11.2 22H12.8C12.8262 22 12.8523 21.9948 12.8765 21.9848C12.9008 21.9747 12.9228 21.96 12.9414 21.9414C12.96 21.9228 12.9747 21.9008 12.9848 21.8765C12.9948 21.8523 13 21.8263 13 21.8Z"/>
<path d="M15.8 2H8.2C8.08954 2 8 2.08954 8 2.2V3.8C8 3.91046 8.08954 4 8.2 4H15.8C15.9105 4 16 3.91046 16 3.8V2.2C16 2.08954 15.9105 2 15.8 2Z"/>
</svg>
