<svg width="24" height="24" viewBox="0 0 24 24" xmlns="http://www.w3.org/2000/svg">
    <path d="M12 21.9215C13.0923 21.9215 13.9859 21.0057 13.9859 19.8863H10.0141C10.0141 21.0057 10.9077 21.9215 12 21.9215ZM17.9577 15.816V10.728C17.9577 7.60401 16.3392 4.9888 13.4894 4.29684V3.60488C13.4894 2.76028 12.8242 2.07849 12 2.07849C11.1758 2.07849 10.5106 2.76028 10.5106 3.60488V4.29684C7.6707 4.9888 6.04225 7.59384 6.04225 10.728V15.816L4.05634 17.8512V18.8688H19.9437V17.8512L17.9577 15.816ZM15.9718 16.8336H8.02817V10.728C8.02817 8.20439 9.52753 6.14886 12 6.14886C14.4725 6.14886 15.9718 8.20439 15.9718 10.728V16.8336Z"/>
    <rect width="23.5295" height="1.4977" rx="0.74885" transform="matrix(0.797648 0.603123 -0.584284 0.811549 3.07097 5.08661)"/>
</svg>
