<svg width="24" height="24" viewBox="0 0 24 24" xmlns="http://www.w3.org/2000/svg">
    <path d="M12 2C6.48566 2 2 6.48566 2 12C2 17.5143 6.48566 22 12 22C17.5143 22 22 17.5136 22 12C22 6.48645 17.5143 2 12 2ZM12 20.4508C7.34082 20.4508 3.54918 16.66 3.54918 12C3.54918 7.34004 7.34082 3.54918 12 3.54918C16.6592 3.54918 20.4508 7.34004 20.4508 12C20.4508 16.66 16.66 20.4508 12 20.4508Z"/>
    <path d="M15.873 11.1556H12.7746V8.05719C12.7746 7.62961 12.4284 7.28258 12 7.28258C11.5716 7.28258 11.2254 7.62961 11.2254 8.05719V11.1556H8.12703C7.69867 11.1556 7.35242 11.5026 7.35242 11.9302C7.35242 12.3577 7.69867 12.7048 8.12703 12.7048H11.2254V15.8031C11.2254 16.2307 11.5716 16.5777 12 16.5777C12.4284 16.5777 12.7746 16.2307 12.7746 15.8031V12.7048H15.873C16.3013 12.7048 16.6476 12.3577 16.6476 11.9302C16.6476 11.5026 16.3013 11.1556 15.873 11.1556Z"/>
</svg>
