<svg width="24" height="24" viewBox="0 0 24 24" xmlns="http://www.w3.org/2000/svg">
<path fill-rule="evenodd" clip-rule="evenodd" d="M17.3368 2H8C6.9 2 6 2.9 6 4V16C6 17.1 6.9 18 8 18H20C21.1 18 22 17.1 22 16V6.66318C21.5454 6.87915 21.0368 7 20.5 7C18.567 7 17 5.433 17 3.5C17 2.9632 17.1208 2.45463 17.3368 2ZM18.4998 2C18.186 2.41783 18 2.9372 18 3.5C18 4.88071 19.1193 6 20.5 6C21.0628 6 21.5822 5.81403 22 5.50018V4C22 2.9 21.1 2 20 2H18.4998ZM2 6H4V20H18V22H4C2.9 22 2 21.1 2 20V6ZM15 11H19V9H15V5H13V9H9V11H13V15H15V11Z"/>
<circle cx="20.5" cy="3.5" r="2.5" fill="#D9A54C"/>
</svg>
