<svg width="24" height="24" viewBox="0 0 24 24" xmlns="http://www.w3.org/2000/svg">
    <g clip-path="url(#clip0)">
        <path d="M20.1203 6.47037L19.6787 5.14667C19.5105 4.64252 19.0404 4.30377 18.5091 4.30377H14.7977V3.09543C14.7977 2.49149 14.3067 2 13.7029 2H10.3042C9.70052 2 9.20934 2.49149 9.20934 3.09543V4.30377H5.4981C4.96664 4.30377 4.49651 4.64252 4.32836 5.14667L3.88677 6.47037C3.78622 6.77173 3.83718 7.10544 4.02288 7.36316C4.20858 7.62088 4.50902 7.77484 4.82671 7.77484H5.28829L6.30422 20.3376C6.37975 21.2697 7.17077 22 8.10537 22H16.1078C17.0423 22 17.8335 21.2697 17.9088 20.3374L18.9248 7.77484H19.1803C19.498 7.77484 19.7985 7.62088 19.9842 7.36331C20.1699 7.10559 20.2208 6.77173 20.1203 6.47037ZM10.3812 3.17188H13.6258V4.30377H10.3812V3.17188ZM16.7408 20.243C16.7142 20.5712 16.4362 20.8281 16.1078 20.8281H8.10537C7.777 20.8281 7.49898 20.5712 7.47243 20.243L6.46398 7.77484H17.7491L16.7408 20.243ZM5.07802 6.60297L5.44012 5.51746C5.44836 5.49243 5.4717 5.47565 5.4981 5.47565H18.5091C18.5355 5.47565 18.5587 5.49243 18.5671 5.51746L18.9292 6.60297H5.07802Z"/>
        <path d="M14.8716 20.2015C14.882 20.2021 14.8922 20.2023 14.9026 20.2023C15.2122 20.2023 15.471 19.9596 15.4871 19.6468L16.0374 9.0844C16.0541 8.76122 15.8057 8.48549 15.4827 8.46871C15.1588 8.45147 14.884 8.70019 14.867 9.02337L14.3169 19.5858C14.3002 19.909 14.5484 20.1847 14.8716 20.2015Z"/>
        <path d="M8.54586 19.6482C8.56295 19.9605 8.82143 20.2022 9.13042 20.2022C9.14111 20.2022 9.15209 20.2019 9.16293 20.2013C9.48595 20.1838 9.7336 19.9076 9.71606 19.5844L9.13973 9.02198C9.12218 8.6988 8.846 8.45115 8.52282 8.46885C8.19979 8.4864 7.95214 8.76258 7.96969 9.08576L8.54586 19.6482Z"/>
        <path d="M12.0101 20.2022C12.3337 20.2022 12.596 19.9399 12.596 19.6162V9.05381C12.596 8.73017 12.3337 8.46787 12.0101 8.46787C11.6864 8.46787 11.4241 8.73017 11.4241 9.05381V19.6162C11.4241 19.9399 11.6864 20.2022 12.0101 20.2022Z"/>
    </g>
    <defs>
        <clipPath id="clip0">
            <rect width="20" height="20" fill="white" transform="translate(2 2)"/>
        </clipPath>
    </defs>
</svg>
