<svg width="24" height="24" viewBox="0 0 24 24" xmlns="http://www.w3.org/2000/svg">
    <g clip-path="url(#clip0)">
        <path d="M7.22244 8.01204L9.96674 10.7563L10.7951 9.92778L8.05084 7.18349V4.98225L3.91464 2.00008L2.03903 3.87569L5.02121 8.01204H7.22244Z"/>
        <path d="M16.037 3.02861C14.2487 4.81801 15.3252 6.92754 15.3349 7.04472L7.0842 15.2974C6.96701 15.2884 4.86237 14.2041 3.06809 15.9984C2.01645 17.0507 1.74072 18.6585 2.38083 20.0002L4.72565 17.656L6.38275 19.3131L4.03855 21.6573C5.35065 22.2847 6.96305 22.0478 8.03971 20.97C9.82895 19.1819 8.75153 17.0717 8.74176 16.9545L16.9925 8.70229C17.1097 8.71388 19.2217 9.78871 21.0086 8.00023C22.0609 6.94859 22.3366 5.34078 21.6959 3.99892L19.3517 6.34313L17.6946 4.68617L20.0388 2.34135C18.7349 1.72093 17.1231 1.94417 16.037 3.02861Z"/>
        <path d="M12.4491 14.8942L14.9332 12.41L15.7653 13.2421L13.281 15.7262L12.4491 14.8942Z"/>
        <path d="M19.5533 21.9996L14.1122 16.5585L16.5964 14.0744L22.0374 19.5154L19.5533 21.9996Z"/>
    </g>
    <defs>
        <clipPath id="clip0">
            <rect width="20" height="20" fill="white" transform="translate(2 2)"/>
        </clipPath>
    </defs>
</svg>
