<svg width="24" height="24" viewBox="0 0 24 24" xmlns="http://www.w3.org/2000/svg">
<path fill-rule="evenodd" clip-rule="evenodd" d="M17.0966 2.68H12.17C11.99 2.67 11.85 2.81 11.84 2.99V3.01V5C11.83 5.18 11.97 5.32 12.15 5.33H12.17H17.5159C17.1887 4.79754 17 4.17081 17 3.5C17 3.21761 17.0334 2.94303 17.0966 2.68ZM18.1376 2.68C18.0484 2.93687 18 3.21278 18 3.5C18 4.22259 18.3066 4.87358 18.7967 5.33H20.83C21.01 5.34 21.16 5.21 21.17 5.03V5V3C21.17 2.91 21.13 2.83 21.07 2.77H21.08C21.02 2.71 20.93 2.68 20.84 2.68H18.1376ZM14.84 18.67C14.93 18.67 15.02 18.7 15.08 18.76C15.14 18.82 15.17 18.91 15.17 19V21V21.02C15.16 21.2 15.02 21.34 14.84 21.33H12.17H12.15C11.97 21.32 11.83 21.18 11.84 21V19V18.98C11.85 18.8 11.99 18.66 12.17 18.67H14.84ZM9.87003 17.34C10.05 17.35 10.19 17.49 10.18 17.67L10.16 17.66C10.16 17.75 10.12 17.84 10.06 17.91L6.74003 21.23C6.67003 21.29 6.59003 21.32 6.50003 21.32C6.41003 21.32 6.33003 21.29 6.26003 21.23L2.93003 17.9C2.83003 17.81 2.81003 17.66 2.86003 17.54C2.90003 17.41 3.03003 17.32 3.17003 17.33H5.17003V3V2.96C5.19003 2.78 5.34003 2.65 5.52003 2.67H7.52003H7.54003C7.72003 2.68 7.86003 2.82 7.85003 3V17.34H9.85003H9.87003ZM16.84 13.34C16.93 13.34 17.02 13.37 17.08 13.43H17.07C17.13 13.49 17.16 13.58 17.16 13.67V15.67V15.69C17.15 15.87 17.01 16.01 16.83 16H12.17H12.15C11.97 16 11.83 15.85 11.84 15.67V13.67V13.65C11.85 13.47 11.99 13.33 12.17 13.34H16.84ZM18.83 8C18.92 8 19.01 8.03 19.08 8.1H19.07C19.13 8.16 19.16 8.24 19.16 8.33V10.33V10.35C19.15 10.53 19.01 10.67 18.83 10.66H12.17H12.15C11.97 10.65 11.83 10.51 11.84 10.33V8.33V8.31C11.84 8.13 11.99 8 12.17 8H18.83Z"/>
<circle cx="20.5" cy="3.5" r="2.5" fill="#D9A54C"/>
</svg>
