<svg width="24" height="24" viewBox="0 0 24 24" xmlns="http://www.w3.org/2000/svg">
    <path d="M15.08 18.76C15.02 18.7 14.93 18.67 14.84 18.67H12.17C11.99 18.66 11.85 18.8 11.84 18.98C11.84 18.99 11.84 18.99 11.84 19V21C11.83 21.18 11.97 21.32 12.15 21.33C12.16 21.33 12.16 21.33 12.17 21.33H14.84C15.02 21.34 15.16 21.2 15.17 21.02C15.17 21.01 15.17 21.01 15.17 21V19C15.17 18.91 15.14 18.82 15.08 18.76ZM10.18 17.67C10.19 17.49 10.05 17.35 9.87 17.34C9.86 17.34 9.86 17.34 9.85 17.34H7.85V3C7.86 2.82 7.72 2.68 7.54 2.67C7.53 2.67 7.53 2.67 7.52 2.67H5.52C5.34 2.65 5.19 2.78 5.17 2.96C5.17 2.97 5.17 2.99 5.17 3V17.33H3.17C3.03 17.32 2.9 17.41 2.86 17.54C2.81 17.66 2.83 17.81 2.93 17.9L6.26 21.23C6.33 21.29 6.41 21.32 6.5 21.32C6.59 21.32 6.67 21.29 6.74 21.23L10.06 17.91C10.12 17.84 10.16 17.75 10.16 17.66L10.18 17.67ZM17.08 13.43C17.02 13.37 16.93 13.34 16.84 13.34H12.17C11.99 13.33 11.85 13.47 11.84 13.65C11.84 13.66 11.84 13.66 11.84 13.67V15.67C11.83 15.85 11.97 16 12.15 16C12.16 16 12.16 16 12.17 16H16.83C17.01 16.01 17.15 15.87 17.16 15.69C17.16 15.68 17.16 15.68 17.16 15.67V13.67C17.16 13.58 17.13 13.49 17.07 13.43H17.08ZM19.08 8.1C19.01 8.03 18.92 8 18.83 8H12.17C11.99 8 11.84 8.13 11.84 8.31C11.84 8.32 11.84 8.32 11.84 8.33V10.33C11.83 10.51 11.97 10.65 12.15 10.66C12.16 10.66 12.16 10.66 12.17 10.66H18.83C19.01 10.67 19.15 10.53 19.16 10.35C19.16 10.34 19.16 10.34 19.16 10.33V8.33C19.16 8.24 19.13 8.16 19.07 8.1H19.08ZM21.08 2.77C21.02 2.71 20.93 2.68 20.84 2.68H12.17C11.99 2.67 11.85 2.81 11.84 2.99C11.84 3 11.84 3 11.84 3.01V5C11.83 5.18 11.97 5.32 12.15 5.33C12.16 5.33 12.16 5.33 12.17 5.33H20.83C21.01 5.34 21.16 5.21 21.17 5.03C21.17 5.02 21.17 5.01 21.17 5V3C21.17 2.91 21.13 2.83 21.07 2.77H21.08Z"/>
</svg>
