<svg width="24" height="24" viewBox="0 0 24 24" xmlns="http://www.w3.org/2000/svg">
<path d="M6.47642 22C6.2573 22 6.0397 21.9287 5.854 21.7885C5.50807 21.5269 5.34648 21.0773 5.44063 20.6434L6.72728 14.7292L2.36377 10.736C2.04302 10.4439 1.92049 9.98115 2.05218 9.55776C2.18386 9.13517 2.54215 8.83598 2.96635 8.79506L8.73981 8.24811L11.0224 2.67401C11.1907 2.26448 11.574 2 11.9999 2C12.4258 2 12.8091 2.26448 12.9774 2.67306L15.2601 8.24811L21.0326 8.79506C21.4577 8.83502 21.816 9.13517 21.9477 9.55776C22.0794 9.98035 21.9576 10.4439 21.6369 10.736L17.2733 14.7284L18.56 20.6424C18.6543 21.0773 18.4926 21.5269 18.1468 21.7877C17.8018 22.0486 17.3417 22.0686 16.9784 21.8408L11.9999 18.7363L7.02148 21.8425C6.85317 21.9468 6.66563 22 6.47642 22ZM11.9999 17.3989C12.1891 17.3989 12.3765 17.452 12.545 17.5563L17.2434 20.4886L16.0291 14.9065C15.9424 14.5093 16.0717 14.0945 16.3659 13.8257L20.486 10.0552L15.035 9.53865C14.6425 9.50123 14.305 9.24376 14.1516 8.86639L11.9999 3.60613L9.84564 8.86719C9.69397 9.24201 9.35643 9.49948 8.96488 9.5369L3.51309 10.0534L7.63306 13.824C7.92818 14.0935 8.05727 14.5075 7.96983 14.9058L6.75643 20.4877L11.4549 17.5563C11.6232 17.452 11.8107 17.3989 11.9999 17.3989ZM8.69571 8.35591C8.69571 8.35591 8.69571 8.35686 8.6948 8.35766L8.69571 8.35591ZM15.3025 8.35336L15.3034 8.35511C15.3034 8.35416 15.3034 8.35416 15.3025 8.35336Z"/>
</svg>
