<svg width="24" height="24" viewBox="0 0 24 24" xmlns="http://www.w3.org/2000/svg">
    <path d="M21.9477 9.55686C21.816 9.13427 21.4568 8.83508 21.0335 8.79511L15.2601 8.24816L12.9784 2.67386C12.81 2.26432 12.4267 2 12 2C11.5734 2 11.1899 2.26432 11.0225 2.67386L8.74084 8.24816L2.96652 8.79511C2.54323 8.83587 2.1848 9.13507 2.05235 9.55686C1.92067 9.97946 2.04228 10.443 2.36241 10.736L6.72665 14.7293L5.43985 20.6434C5.34571 21.0782 5.50745 21.5279 5.85322 21.7887C6.03908 21.9296 6.25743 22 6.47655 22C6.66485 22 6.8533 21.9478 7.0216 21.8427L12 18.7364L16.9775 21.8427C17.3427 22.0704 17.8018 22.0495 18.1468 21.7887C18.4926 21.5279 18.6543 21.0782 18.5602 20.6434L17.2734 14.7293L21.6376 10.736C21.9576 10.443 22.0794 9.98041 21.9477 9.55686Z"/>
</svg>
