<svg width="24" height="24" viewBox="0 0 24 24" xmlns="http://www.w3.org/2000/svg">
    <path d="M12 2C6.47715 2 2 6.47715 2 12C2 17.5228 6.47715 22 12 22C17.5228 22 22 17.5228 22 12C21.9941 6.47962 17.5204 2.0059 12 2ZM12 20.5714C7.26612 20.5714 3.42856 16.7339 3.42856 12C3.42856 7.26612 7.26612 3.42856 12 3.42856C16.7339 3.42856 20.5714 7.26612 20.5714 12C20.5663 16.7318 16.7318 20.5663 12 20.5714Z"/>
    <path d="M17.4869 7.92363C17.2101 7.65628 16.7713 7.65628 16.4945 7.92363L9.85662 14.5615L7.50446 12.2093C7.23041 11.9255 6.77819 11.9177 6.49447 12.1918C6.21071 12.4658 6.20288 12.918 6.47693 13.2018C6.48267 13.2077 6.48853 13.2136 6.49447 13.2193L9.35163 16.0765C9.63054 16.3553 10.0827 16.3553 10.3616 16.0765L17.5045 8.93358C17.7786 8.64986 17.7707 8.19768 17.4869 7.92363Z"/>
</svg>
