<svg width="38" height="16" viewBox="0 0 38 16" fill="none" xmlns="http://www.w3.org/2000/svg">
<rect width="38" height="16" rx="8" fill="#B3B3B3"/>
<path d="M23.5962 8.00732C23.5962 8.63428 23.4907 9.18213 23.2798 9.65088C23.0688 10.1167 22.77 10.4727 22.3833 10.7188C21.9966 10.9648 21.5454 11.0879 21.0298 11.0879C20.5259 11.0879 20.0791 10.9648 19.6895 10.7188C19.2998 10.4697 18.9966 10.1167 18.7798 9.65967C18.5659 9.19971 18.4561 8.66797 18.4502 8.06445V7.60303C18.4502 6.98779 18.5571 6.44434 18.771 5.97266C18.9849 5.50098 19.2866 5.14062 19.6763 4.8916C20.0688 4.63965 20.5171 4.51367 21.021 4.51367C21.5337 4.51367 21.9849 4.63818 22.3745 4.88721C22.7671 5.1333 23.0688 5.49219 23.2798 5.96387C23.4907 6.43262 23.5962 6.979 23.5962 7.60303V8.00732ZM22.7568 7.59424C22.7568 6.83545 22.6045 6.25391 22.2998 5.84961C21.9951 5.44238 21.5688 5.23877 21.021 5.23877C20.4878 5.23877 20.0674 5.44238 19.7598 5.84961C19.4551 6.25391 19.2983 6.81641 19.2896 7.53711V8.00732C19.2896 8.74268 19.4434 9.32129 19.751 9.74316C20.0615 10.1621 20.4878 10.3716 21.0298 10.3716C21.5747 10.3716 21.9966 10.1738 22.2954 9.77832C22.5942 9.37988 22.748 8.81006 22.7568 8.06885V7.59424ZM28.3906 8.17432H25.7056V11H24.8618V4.60156H28.8257V5.2959H25.7056V7.48438H28.3906V8.17432ZM33.3652 8.17432H30.6802V11H29.8364V4.60156H33.8003V5.2959H30.6802V7.48438H33.3652V8.17432Z" fill="white"/>
<path d="M8 14C11.3137 14 14 11.3137 14 8C14 4.68629 11.3137 2 8 2C4.68629 2 2 4.68629 2 8C2 11.3137 4.68629 14 8 14Z" fill="white"/>
</svg>
