<svg width="16" height="16" viewBox="0 0 16 16" xmlns="http://www.w3.org/2000/svg">
    <path d="M10.6134 4.74L8.14669 2.07333C8.11336 2.03333 8.06002 2.00667 8.00669 2C7.94669 2 7.88669 2.02667 7.84669 2.06667L5.42002 4.73333C5.34669 4.78667 5.31336 4.88667 5.34002 4.98C5.36669 5.06667 5.45336 5.12 5.54002 5.11333H7.09336V13.78C7.08669 13.9 7.18002 14 7.30002 14C7.31336 14 7.32669 14 7.34002 14H8.67336C8.79336 14.0067 8.88669 13.9133 8.89336 13.7933C8.89336 13.7867 8.89336 13.7867 8.89336 13.78V5.11333H10.4467C10.5334 5.11333 10.6134 5.06 10.6467 4.98C10.6867 4.9 10.6734 4.80667 10.6134 4.74Z"/>
</svg>
