<svg width="24" height="24" viewBox="0 0 24 24" xmlns="http://www.w3.org/2000/svg">
<path d="M20.3626 17.0331C19.6922 16.3621 18.9088 15.8144 18.0483 15.4152C19.2617 14.4322 20.0358 12.9322 20.0358 11.25C20.0358 8.28218 17.5608 5.84736 14.593 5.8929C11.6707 5.93843 9.31619 8.31968 9.31619 11.25C9.31619 12.9322 10.093 14.4322 11.3037 15.4152C10.4431 15.8141 9.65964 16.3618 8.98941 17.0331C7.52691 18.4983 6.69655 20.4322 6.64298 22.4947C6.64226 22.5233 6.64728 22.5517 6.65772 22.5783C6.66817 22.605 6.68384 22.6292 6.70381 22.6497C6.72378 22.6702 6.74765 22.6864 6.774 22.6975C6.80036 22.7086 6.82867 22.7143 6.85726 22.7143H8.35726C8.47244 22.7143 8.56887 22.6233 8.57155 22.5081C8.62244 20.9545 9.25191 19.5 10.3582 18.3965C10.9242 17.8274 11.5976 17.3762 12.3392 17.0691C13.0808 16.7619 13.876 16.6049 14.6787 16.6072C16.3099 16.6072 17.8448 17.242 18.9992 18.3965C20.1028 19.5 20.7323 20.9545 20.7858 22.5081C20.7885 22.6233 20.8849 22.7143 21.0001 22.7143H22.5001C22.5287 22.7143 22.557 22.7086 22.5834 22.6975C22.6097 22.6864 22.6336 22.6702 22.6536 22.6497C22.6735 22.6292 22.6892 22.605 22.6997 22.5783C22.7101 22.5517 22.7151 22.5233 22.7144 22.4947C22.6608 20.4322 21.8305 18.4983 20.3626 17.0331ZM14.6787 14.6786C13.7626 14.6786 12.9001 14.3224 12.2546 13.6741C11.9306 13.3527 11.6747 12.9694 11.5021 12.5469C11.3296 12.1244 11.2439 11.6715 11.2501 11.2152C11.2582 10.3366 11.609 9.48754 12.2224 8.85808C12.8653 8.19915 13.7251 7.83218 14.6439 7.82147C15.5519 7.81343 16.4332 8.16701 17.0814 8.80183C17.7457 9.45272 18.1099 10.3233 18.1099 11.25C18.1099 12.1661 17.7537 13.0259 17.1055 13.6741C16.7875 13.9937 16.4092 14.247 15.9927 14.4194C15.5761 14.5918 15.1295 14.6799 14.6787 14.6786ZM7.96887 11.9572C7.94476 11.7241 7.93137 11.4884 7.93137 11.25C7.93137 10.8241 7.97155 10.409 8.04655 10.0045C8.0653 9.90808 8.01441 9.80897 7.92601 9.76879C7.56173 9.6054 7.22691 9.3804 6.93762 9.09647C6.59674 8.76595 6.32851 8.36801 6.15003 7.92803C5.97154 7.48805 5.88674 7.0157 5.90101 6.54111C5.92512 5.68129 6.27066 4.86433 6.87333 4.24825C7.53494 3.57058 8.42423 3.20093 9.36976 3.21165C10.2242 3.21968 11.0492 3.54915 11.6733 4.13308C11.8849 4.33129 12.0671 4.55093 12.2198 4.78665C12.2733 4.86968 12.3778 4.9045 12.4689 4.87236C12.9403 4.70897 13.4385 4.59379 13.9501 4.54022C14.1001 4.52415 14.1858 4.36343 14.1189 4.2295C13.2483 2.50718 11.4698 1.3179 9.41262 1.28575C6.44208 1.24022 3.96708 3.67504 3.96708 6.64022C3.96708 8.32236 4.74119 9.82236 5.95458 10.8054C5.1028 11.1991 4.31798 11.7429 3.63762 12.4233C2.16976 13.8884 1.33941 15.8224 1.28583 17.8875C1.28512 17.9161 1.29013 17.9446 1.30058 17.9712C1.31103 17.9978 1.3267 18.0221 1.34667 18.0425C1.36664 18.063 1.39051 18.0793 1.41686 18.0904C1.44321 18.1015 1.47152 18.1072 1.50012 18.1072H3.0028C3.11798 18.1072 3.21441 18.0161 3.21708 17.9009C3.26798 16.3474 3.89744 14.8929 5.00369 13.7893C5.79119 13.0018 6.75548 12.4554 7.80816 12.1902C7.91262 12.1634 7.98226 12.0643 7.96887 11.9572Z"/>
</svg>
