<svg width="24" height="24" viewBox="0 0 24 24" fill="none" xmlns="http://www.w3.org/2000/svg">
<path d="M15.7299 3.42997C15.9696 3.41508 16.2101 3.41508 16.4499 3.42997L14.4499 5.47997C14.2503 5.67549 14.0918 5.90888 13.9835 6.16644C13.8753 6.42401 13.8196 6.70058 13.8196 6.97997C13.8196 7.25935 13.8753 7.53592 13.9835 7.79349C14.0918 8.05106 14.2503 8.28444 14.4499 8.47997L15.7199 9.74997C15.9151 9.94646 16.1472 10.1024 16.4029 10.2088C16.6587 10.3152 16.9329 10.37 17.2099 10.37C17.4855 10.3709 17.7585 10.3165 18.0127 10.21C18.2669 10.1035 18.4972 9.94707 18.6899 9.74997L20.7399 7.74997C20.8398 8.45694 20.7872 9.17713 20.5856 9.86208C20.3839 10.547 20.0379 11.1808 19.5709 11.7209C19.1038 12.2609 18.5264 12.6946 17.8777 12.9929C17.229 13.2912 16.5239 13.447 15.8099 13.45C15.2342 13.4496 14.6628 13.3515 14.1199 13.16L12.9299 12.74L12.0299 13.63L5.75988 19.82L4.34988 18.41L10.5899 12.17L11.4699 11.29L11.0599 10.11C10.7445 9.18855 10.6973 8.19649 10.9239 7.24932C11.1505 6.30215 11.6416 5.43885 12.3399 4.75997C13.2625 3.90627 14.4729 3.43141 15.7299 3.42997ZM15.7299 1.42997C13.9732 1.43126 12.2825 2.09966 10.9999 3.29997C10.0149 4.23917 9.32066 5.44167 8.99976 6.76426C8.67886 8.08686 8.74485 9.47381 9.18987 10.76L1.65988 18.27C1.64048 18.2878 1.62499 18.3094 1.61439 18.3335C1.6038 18.3576 1.59833 18.3836 1.59833 18.41C1.59833 18.4363 1.6038 18.4623 1.61439 18.4864C1.62499 18.5105 1.64048 18.5322 1.65988 18.55L5.65987 22.55C5.6968 22.5876 5.74712 22.6092 5.79988 22.61C5.82618 22.6108 5.85235 22.6059 5.87653 22.5955C5.90072 22.5851 5.92234 22.5696 5.93988 22.55L13.3999 15C14.1577 15.2678 14.9561 15.4031 15.7599 15.4C17.0377 15.3973 18.2904 15.0449 19.3822 14.3811C20.4739 13.7172 21.3632 12.7671 21.9535 11.6339C22.5439 10.5006 22.8127 9.22742 22.731 7.95224C22.6493 6.67706 22.22 5.44859 21.4899 4.39997C21.4708 4.37251 21.4454 4.35001 21.4158 4.33436C21.3862 4.3187 21.3533 4.31034 21.3199 4.30997C21.2641 4.31022 21.2105 4.33167 21.1699 4.36997L17.2299 8.35997C17.2072 8.36759 17.1826 8.36759 17.1599 8.35997C17.1488 8.36464 17.1369 8.36705 17.1249 8.36705C17.1129 8.36705 17.101 8.36464 17.0899 8.35997L15.8099 7.07997C15.7952 7.05957 15.7873 7.03508 15.7873 7.00997C15.7873 6.98485 15.7952 6.96037 15.8099 6.93997L19.8099 2.99997C19.8331 2.98025 19.8517 2.95573 19.8645 2.92811C19.8772 2.90048 19.8839 2.8704 19.8839 2.83997C19.8839 2.80953 19.8772 2.77945 19.8645 2.75183C19.8517 2.7242 19.8331 2.69968 19.8099 2.67997C18.6355 1.86459 17.2396 1.42837 15.8099 1.42997H15.7299Z" fill="#404040"/>
</svg>
