<svg width="24" height="24" viewBox="0 0 24 24" xmlns="http://www.w3.org/2000/svg">
<path fill-rule="evenodd" clip-rule="evenodd" d="M2.95567 8.9823C2.91112 9.00643 2.85908 9.01276 2.81005 9L1.28005 8.46C1.23047 8.43988 1.18992 8.40239 1.16599 8.35453C1.14206 8.30667 1.13639 8.25173 1.15005 8.2C1.83738 6.2515 3.03741 4.52439 4.62376 3.20055C6.21011 1.87671 8.12408 1.00512 10.1641 0.677564C12.2042 0.350011 14.2948 0.578615 16.2158 1.3393C18.1369 2.09999 19.8173 3.36461 21.08 5L22.34 4C22.3668 3.97888 22.3982 3.96429 22.4316 3.95737C22.465 3.95045 22.4995 3.95139 22.5325 3.96012C22.5655 3.96885 22.596 3.98512 22.6216 4.00767C22.6472 4.03021 22.6672 4.05839 22.68 4.09V8.42C22.6794 8.45278 22.6715 8.48501 22.6568 8.51432C22.6421 8.54363 22.621 8.56929 22.5952 8.58942C22.5693 8.60955 22.5392 8.62364 22.5072 8.63066C22.4752 8.63768 22.442 8.63746 22.41 8.63L18.21 7.63C18.1723 7.61854 18.1379 7.59795 18.11 7.57004C18.0821 7.54213 18.0615 7.50777 18.05 7.47C18.0451 7.43015 18.0451 7.38985 18.05 7.35C18.0675 7.31292 18.0912 7.2791 18.12 7.25L19.5 6.18C18.4549 4.83004 17.0645 3.7874 15.4758 3.16217C13.8872 2.53694 12.1591 2.35235 10.4742 2.62787C8.78934 2.90339 7.21012 3.62881 5.90335 4.72752C4.59659 5.82622 3.61078 7.25743 3.05005 8.87C3.03395 8.91804 3.00022 8.95817 2.95567 8.9823ZM21.0253 15.1004C21.0703 15.0779 21.1223 15.0741 21.1701 15.09L22.7101 15.63C22.7611 15.6482 22.8031 15.6854 22.8273 15.7339C22.8516 15.7823 22.8561 15.8383 22.8401 15.89C22.1496 17.8334 20.9488 19.5551 19.3636 20.8744C17.7784 22.1938 15.8674 23.0622 13.8309 23.3884C11.7945 23.7147 9.70781 23.4869 7.78979 22.7288C5.87177 21.9707 4.19315 20.7104 2.93008 19.08L1.67008 20.08C1.6378 20.1037 1.59967 20.1181 1.55981 20.1217C1.51994 20.1253 1.47984 20.118 1.44383 20.1005C1.40783 20.083 1.37727 20.056 1.35546 20.0224C1.33366 19.9889 1.32142 19.95 1.32008 19.91V15.58C1.32071 15.5472 1.32866 15.515 1.34335 15.4857C1.35803 15.4564 1.37909 15.4307 1.40497 15.4106C1.43085 15.3904 1.4609 15.3763 1.49293 15.3693C1.52496 15.3623 1.55815 15.3625 1.59008 15.37L5.79008 16.37C5.82785 16.3814 5.86221 16.402 5.89012 16.43C5.91802 16.4579 5.93862 16.4922 5.95008 16.53C5.95499 16.5698 5.95499 16.6101 5.95008 16.65C5.9326 16.6871 5.90893 16.7209 5.88008 16.75L4.50008 17.82C5.54043 19.1664 6.92398 20.208 8.50556 20.8355C10.0871 21.463 11.8085 21.6532 13.4889 21.3863C15.1693 21.1193 16.747 20.405 18.0562 19.3183C19.3655 18.2316 20.3582 16.8125 20.9301 15.21C20.946 15.1623 20.9803 15.1229 21.0253 15.1004Z"/>
</svg>
