<svg width="16" height="16" viewBox="0 0 16 16" fill="none" xmlns="http://www.w3.org/2000/svg">
<path d="M1.5 3C1.5 2.72386 1.72386 2.5 2 2.5H6C6.27614 2.5 6.5 2.72386 6.5 3V4C6.5 4.27614 6.27614 4.5 6 4.5C5.72386 4.5 5.5 4.27614 5.5 4V3.5H4.5V7.5H5C5.27614 7.5 5.5 7.72386 5.5 8C5.5 8.27614 5.27614 8.5 5 8.5H3C2.72386 8.5 2.5 8.27614 2.5 8C2.5 7.72386 2.72386 7.5 3 7.5H3.5V3.5H2.5V4C2.5 4.27614 2.27614 4.5 2 4.5C1.72386 4.5 1.5 4.27614 1.5 4V3Z" fill="#5E6785"/>
<path d="M8 2.5C7.72386 2.5 7.5 2.72386 7.5 3C7.5 3.27614 7.72386 3.5 8 3.5H14C14.2761 3.5 14.5 3.27614 14.5 3C14.5 2.72386 14.2761 2.5 14 2.5H8Z" fill="#5E6785"/>
<path d="M7.5 5.5C7.5 5.22386 7.72386 5 8 5H14C14.2761 5 14.5 5.22386 14.5 5.5C14.5 5.77614 14.2761 6 14 6H8C7.72386 6 7.5 5.77614 7.5 5.5Z" fill="#5E6785"/>
<path d="M8 7.5C7.72386 7.5 7.5 7.72386 7.5 8C7.5 8.27614 7.72386 8.5 8 8.5H14C14.2761 8.5 14.5 8.27614 14.5 8C14.5 7.72386 14.2761 7.5 14 7.5H8Z" fill="#5E6785"/>
<path d="M1.5 10.5C1.5 10.2239 1.72386 10 2 10H14C14.2761 10 14.5 10.2239 14.5 10.5C14.5 10.7761 14.2761 11 14 11H2C1.72386 11 1.5 10.7761 1.5 10.5Z" fill="#5E6785"/>
<path d="M2 12.5C1.72386 12.5 1.5 12.7239 1.5 13C1.5 13.2761 1.72386 13.5 2 13.5H14C14.2761 13.5 14.5 13.2761 14.5 13C14.5 12.7239 14.2761 12.5 14 12.5H2Z" fill="#5E6785"/>
</svg>
