<svg width="16" height="16" viewBox="0 0 16 16"  xmlns="http://www.w3.org/2000/svg">
<path fill-rule="evenodd" clip-rule="evenodd" d="M6.70711 9.5L12.8536 3.35355C13.0488 3.15829 13.0488 2.84171 12.8536 2.64645C12.6583 2.45118 12.3417 2.45118 12.1464 2.64645L6 8.79289V6C6 5.72386 5.77614 5.5 5.5 5.5C5.22386 5.5 5 5.72386 5 6V10C5 10.2761 5.22386 10.5 5.5 10.5H9.5C9.77614 10.5 10 10.2761 10 10C10 9.72386 9.77614 9.5 9.5 9.5H6.70711Z" />
<path fill-rule="evenodd" clip-rule="evenodd" d="M9 2.5H4.5C3.39543 2.5 2.5 3.39543 2.5 4.5V11C2.5 12.1046 3.39543 13 4.5 13H11C12.1046 13 13 12.1046 13 11V6.5C13 6.22386 12.7761 6 12.5 6C12.2239 6 12 6.22386 12 6.5V11C12 11.5523 11.5523 12 11 12H4.5C3.94772 12 3.5 11.5523 3.5 11V4.5C3.5 3.94772 3.94772 3.5 4.5 3.5H9C9.27614 3.5 9.5 3.27614 9.5 3C9.5 2.72386 9.27614 2.5 9 2.5Z" />
</svg>
