<svg width="16" height="16" viewBox="0 0 16 16" xmlns="http://www.w3.org/2000/svg">
<path fill-rule="evenodd" clip-rule="evenodd" d="M5.64881 2.98828C5.58129 2.79531 5.40222 2.6665 5.20148 2.6665C5.00074 2.6665 4.82167 2.79531 4.75416 2.98828L1.3613 12.6851C1.27307 12.9373 1.40181 13.2147 1.64887 13.3048C1.89592 13.3949 2.16772 13.2634 2.25595 13.0113L3.19354 10.3316H7.20943L8.14701 13.0113C8.23525 13.2634 8.50705 13.3949 8.7541 13.3048C9.00115 13.2147 9.1299 12.9373 9.04167 12.6851L5.64881 2.98828ZM5.20148 4.59289L6.87014 9.36195H3.53282L5.20148 4.59289Z"/>
<path fill-rule="evenodd" clip-rule="evenodd" d="M11.6601 8.23295C11.9068 8.21843 12.1527 8.27292 12.3712 8.39054C12.5898 8.50816 12.7727 8.68444 12.9003 8.90038C12.948 8.98105 12.9873 9.0661 13.0178 9.15416H11.5121C11.2045 9.15416 10.9009 9.22528 10.6241 9.36224C10.3448 9.50045 10.1001 9.70204 9.9088 9.9516C9.7175 10.2012 9.58465 10.4921 9.52041 10.8021C9.45618 11.1121 9.46225 11.433 9.53817 11.7402C9.61409 12.0475 9.75785 12.3329 9.95846 12.5748C10.1591 12.8166 10.4112 13.0084 10.6956 13.1355C10.9799 13.2626 11.289 13.3216 11.5992 13.3081C11.881 13.2957 12.1569 13.2238 12.4095 13.0971L12.4107 13.0993L12.4718 13.0646C12.4742 13.0632 12.4766 13.0619 12.479 13.0605C12.4809 13.0593 12.4829 13.0582 12.4849 13.0571L13.0954 12.7102V12.8482C13.0954 13.1032 13.2979 13.31 13.5478 13.31C13.7976 13.31 14.0002 13.1032 14.0002 12.8482V9.61591C14.0002 9.1956 13.8878 8.78326 13.6751 8.42336C13.4624 8.06346 13.1574 7.76966 12.7932 7.57362C12.4289 7.37759 12.0192 7.28678 11.6081 7.31097C11.197 7.33516 10.8002 7.47344 10.4604 7.7109C10.2542 7.85497 10.2015 8.14235 10.3427 8.35277C10.4838 8.56319 10.7654 8.61698 10.9715 8.4729C11.1754 8.33043 11.4135 8.24746 11.6601 8.23295ZM13.0954 11.6533L12.0394 12.2533C11.8914 12.3329 11.7278 12.3781 11.5605 12.3854C11.3881 12.3929 11.2164 12.3601 11.0585 12.2895C10.9005 12.2189 10.7604 12.1124 10.649 11.978C10.5375 11.8437 10.4576 11.6851 10.4155 11.5144C10.3733 11.3437 10.3699 11.1654 10.4056 10.9932C10.4413 10.8209 10.5151 10.6593 10.6214 10.5207C10.7276 10.382 10.8636 10.2701 11.0188 10.1933C11.174 10.1165 11.3443 10.0769 11.5168 10.0777H13.0954V11.6533Z"/>
</svg>
