<svg width="16" height="16" viewBox="0 0 16 16" xmlns="http://www.w3.org/2000/svg">
<path fill-rule="evenodd" clip-rule="evenodd" d="M8 1C7.72386 1 7.5 1.22386 7.5 1.5V2.02786C7.08071 2.07474 6.66925 2.18045 6.27792 2.34254C5.73196 2.56869 5.23588 2.90016 4.81802 3.31802C4.40016 3.73588 4.06869 4.23196 3.84254 4.77792C3.6164 5.32389 3.5 5.90905 3.5 6.5V12H2.5C2.22386 12 2 12.2239 2 12.5C2 12.7761 2.22386 13 2.5 13H6.0635C6.15208 13.343 6.33102 13.6594 6.58579 13.9142C6.96086 14.2893 7.46957 14.5 8 14.5C8.53043 14.5 9.03914 14.2893 9.41421 13.9142C9.66898 13.6594 9.84792 13.343 9.9365 13H13.5C13.7761 13 14 12.7761 14 12.5C14 12.2239 13.7761 12 13.5 12H12.5V6.5C12.5 5.90905 12.3836 5.32389 12.1575 4.77792C11.9313 4.23196 11.5998 3.73588 11.182 3.31802C10.7641 2.90016 10.268 2.56869 9.72208 2.34254C9.33075 2.18045 8.91929 2.07474 8.5 2.02786V1.5C8.5 1.22386 8.27614 1 8 1ZM8 3C7.54037 3 7.08525 3.09053 6.66061 3.26642C6.23597 3.44231 5.85013 3.70012 5.52513 4.02513C5.20012 4.35013 4.94231 4.73597 4.76642 5.16061C4.59053 5.58525 4.5 6.04037 4.5 6.5V12H11.5V6.5C11.5 6.04037 11.4095 5.58525 11.2336 5.16061C11.0577 4.73597 10.7999 4.35013 10.4749 4.02513C10.1499 3.70012 9.76403 3.44231 9.33939 3.26642C8.91475 3.09053 8.45963 3 8 3ZM7.13397 13C7.1773 13.075 7.23056 13.1448 7.29289 13.2071C7.48043 13.3946 7.73478 13.5 8 13.5C8.26522 13.5 8.51957 13.3946 8.70711 13.2071C8.76944 13.1448 8.8227 13.075 8.86603 13H7.13397Z"/>
</svg>
