<svg width="16" height="16" viewBox="0 0 16 16" fill="none" xmlns="http://www.w3.org/2000/svg">
<path fill-rule="evenodd" clip-rule="evenodd" d="M4.5 3C3.94772 3 3.5 3.44772 3.5 4V5C3.5 5.55228 3.94772 6 4.5 6H11.5C12.0523 6 12.5 5.55228 12.5 5V4C12.5 3.44772 12.0523 3 11.5 3H4.5ZM11.5 4.25C11.5 4.11193 11.3881 4 11.25 4H4.75C4.61193 4 4.5 4.11193 4.5 4.25L4.5 4.75C4.5 4.88807 4.61193 5 4.75 5H11.25C11.3881 5 11.5 4.88807 11.5 4.75V4.25Z" fill="#5E6785"/>
<path fill-rule="evenodd" clip-rule="evenodd" d="M4.5 6.5C3.94772 6.5 3.5 6.94772 3.5 7.5V8.5C3.5 9.05228 3.94772 9.5 4.5 9.5H11.5C12.0523 9.5 12.5 9.05228 12.5 8.5V7.5C12.5 6.94772 12.0523 6.5 11.5 6.5H4.5ZM11.5 7.75C11.5 7.61193 11.3881 7.5 11.25 7.5H4.75C4.61193 7.5 4.5 7.61193 4.5 7.75L4.5 8.25C4.5 8.38807 4.61193 8.5 4.75 8.5H11.25C11.3881 8.5 11.5 8.38807 11.5 8.25V7.75Z" fill="#5E6785"/>
<path fill-rule="evenodd" clip-rule="evenodd" d="M3.5 11C3.5 10.4477 3.94772 10 4.5 10H11.5C12.0523 10 12.5 10.4477 12.5 11V12C12.5 12.5523 12.0523 13 11.5 13H4.5C3.94772 13 3.5 12.5523 3.5 12V11ZM4.5 11.25C4.5 11.1119 4.61193 11 4.75 11H11.25C11.3881 11 11.5 11.1119 11.5 11.25V11.75C11.5 11.8881 11.3881 12 11.25 12H4.75C4.61193 12 4.5 11.8881 4.5 11.75L4.5 11.25Z" fill="#5E6785"/>
<path d="M1.5 2C1.5 1.72386 1.72386 1.5 2 1.5C2.27614 1.5 2.5 1.72386 2.5 2V13.5C2.5 13.7761 2.27614 14 2 14C1.72386 14 1.5 13.7761 1.5 13.5V2Z" fill="#5E6785"/>
<path d="M13.5 2C13.5 1.72386 13.7239 1.5 14 1.5C14.2761 1.5 14.5 1.72386 14.5 2V13.5C14.5 13.7761 14.2761 14 14 14C13.7239 14 13.5 13.7761 13.5 13.5V2Z" fill="#5E6785"/>
</svg>
