<svg width="16" height="16" viewBox="0 0 16 16" fill="none" xmlns="http://www.w3.org/2000/svg">
<path d="M5.5 4.5C5.22386 4.5 5 4.72386 5 5C5 5.27614 5.22386 5.5 5.5 5.5H10.5C10.7761 5.5 11 5.27614 11 5C11 4.72386 10.7761 4.5 10.5 4.5H5.5Z" fill="#5E6785"/>
<path d="M5 8C5 7.72386 5.22386 7.5 5.5 7.5H10.5C10.7761 7.5 11 7.72386 11 8C11 8.27614 10.7761 8.5 10.5 8.5H5.5C5.22386 8.5 5 8.27614 5 8Z" fill="#5E6785"/>
<path d="M5.5 10.5C5.22386 10.5 5 10.7239 5 11C5 11.2761 5.22386 11.5 5.5 11.5H10.5C10.7761 11.5 11 11.2761 11 11C11 10.7239 10.7761 10.5 10.5 10.5H5.5Z" fill="#5E6785"/>
<path fill-rule="evenodd" clip-rule="evenodd" d="M2.5 3.5C2.5 2.39543 3.39543 1.5 4.5 1.5H11.5C12.6046 1.5 13.5 2.39543 13.5 3.5V12.5C13.5 13.6046 12.6046 14.5 11.5 14.5H4.5C3.39543 14.5 2.5 13.6046 2.5 12.5V3.5ZM4.5 2.5H11.5C12.0523 2.5 12.5 2.94772 12.5 3.5V12.5C12.5 13.0523 12.0523 13.5 11.5 13.5H4.5C3.94772 13.5 3.5 13.0523 3.5 12.5V3.5C3.5 2.94772 3.94772 2.5 4.5 2.5Z" fill="#5E6785"/>
</svg>
