<svg width="16" height="16" viewBox="0 0 16 16" fill="none" xmlns="http://www.w3.org/2000/svg">
<path fill-rule="evenodd" clip-rule="evenodd" d="M2.5 2C1.94772 2 1.5 2.44772 1.5 3V13C1.5 13.5523 1.94772 14 2.5 14H4C4.55228 14 5 13.5523 5 13V3C5 2.44772 4.55228 2 4 2H2.5ZM4 3.5C4 3.22386 3.77614 3 3.5 3H3C2.72386 3 2.5 3.22386 2.5 3.5L2.5 12.5C2.5 12.7761 2.72386 13 3 13H3.5C3.77614 13 4 12.7761 4 12.5V3.5Z" fill="#5E6785"/>
<path fill-rule="evenodd" clip-rule="evenodd" d="M7.25 2C6.69772 2 6.25 2.44772 6.25 3V13C6.25 13.5523 6.69772 14 7.25 14H8.75C9.30228 14 9.75 13.5523 9.75 13V3C9.75 2.44772 9.30228 2 8.75 2H7.25ZM8.75 3.5C8.75 3.22386 8.52614 3 8.25 3H7.75C7.47386 3 7.25 3.22386 7.25 3.5V12.5C7.25 12.7761 7.47386 13 7.75 13H8.25C8.52614 13 8.75 12.7761 8.75 12.5V3.5Z" fill="#5E6785"/>
<path fill-rule="evenodd" clip-rule="evenodd" d="M11 3C11 2.44772 11.4477 2 12 2H13.5C14.0523 2 14.5 2.44772 14.5 3V13C14.5 13.5523 14.0523 14 13.5 14H12C11.4477 14 11 13.5523 11 13V3ZM12 3.5C12 3.22386 12.2239 3 12.5 3H13C13.2761 3 13.5 3.22386 13.5 3.5V12.5C13.5 12.7761 13.2761 13 13 13H12.5C12.2239 13 12 12.7761 12 12.5V3.5Z" fill="#5E6785"/>
</svg>
