<svg width="16" height="16" viewBox="0 0 16 16" fill="none" xmlns="http://www.w3.org/2000/svg">
<path d="M7 8C7 7.72386 7.22386 7.5 7.5 7.5H11C11.2761 7.5 11.5 7.72386 11.5 8C11.5 8.27614 11.2761 8.5 11 8.5H7.5C7.22386 8.5 7 8.27614 7 8Z" fill="#5E6785"/>
<path d="M7.5 10C7.22386 10 7 10.2239 7 10.5C7 10.7761 7.22386 11 7.5 11H11C11.2761 11 11.5 10.7761 11.5 10.5C11.5 10.2239 11.2761 10 11 10H7.5Z" fill="#5E6785"/>
<path d="M6 8C6 8.41421 5.66421 8.75 5.25 8.75C4.83579 8.75 4.5 8.41421 4.5 8C4.5 7.58579 4.83579 7.25 5.25 7.25C5.66421 7.25 6 7.58579 6 8Z" fill="#5E6785"/>
<path d="M5.25 11.25C5.66421 11.25 6 10.9142 6 10.5C6 10.0858 5.66421 9.75 5.25 9.75C4.83579 9.75 4.5 10.0858 4.5 10.5C4.5 10.9142 4.83579 11.25 5.25 11.25Z" fill="#5E6785"/>
<path fill-rule="evenodd" clip-rule="evenodd" d="M2 4C2 2.89543 2.89543 2 4 2H12C13.1046 2 14 2.89543 14 4V12C14 13.1046 13.1046 14 12 14H4C2.89543 14 2 13.1046 2 12V4ZM4 3H12C12.5523 3 13 3.44772 13 4V5H3V4C3 3.44772 3.44772 3 4 3ZM13 6V12C13 12.5523 12.5523 13 12 13H4C3.44772 13 3 12.5523 3 12V6H13Z" fill="#5E6785"/>
</svg>
