<svg width="16" height="16" viewBox="0 0 16 16" xmlns="http://www.w3.org/2000/svg">
<path fill-rule="evenodd" clip-rule="evenodd" d="M4 2C2.89543 2 2 2.89543 2 4V12C2 13.1046 2.89543 14 4 14H12C13.1046 14 14 13.1046 14 12V4C14 2.89543 13.1046 2 12 2H4ZM9.5 3H6.5V5.5H9.5V3ZM5.5 3V5.5H3V4C3 3.44772 3.44772 3 4 3H5.5ZM5.5 6.5H3V9.5H5.5V6.5ZM5.5 10.5H3V12C3 12.5523 3.44772 13 4 13H5.5V10.5ZM6.5 10.5H9.5V13H6.5V10.5ZM9.5 9.5H6.5V6.5H9.5V9.5ZM10.5 10.5V13H12C12.5523 13 13 12.5523 13 12V10.5H10.5ZM13 9.5H10.5V6.5H13V9.5ZM13 4V5.5H10.5V3H12C12.5523 3 13 3.44772 13 4Z" />
</svg>
