<svg width="16" height="16" viewBox="0 0 16 16" fill="none" xmlns="http://www.w3.org/2000/svg">
<path fill-rule="evenodd" clip-rule="evenodd" d="M5.5 3.5C5.22386 3.5 5 3.72386 5 4V5.5C5 5.77614 5.22386 6 5.5 6H10C10.2761 6 10.5 5.77614 10.5 5.5V4C10.5 3.72386 10.2761 3.5 10 3.5H5.5ZM6 4.5V5H9.5V4.5H6Z" fill="#5E6785"/>
<path fill-rule="evenodd" clip-rule="evenodd" d="M5 1.5C3.89543 1.5 3 2.39543 3 3.5V12.5C3 13.6046 3.89543 14.5 5 14.5H10.5C11.6046 14.5 12.5 13.6046 12.5 12.5V3.5C12.5 2.39543 11.6046 1.5 10.5 1.5H5ZM10.5 2.5H5C4.44772 2.5 4 2.94772 4 3.5V12.5C4 13.0523 4.44772 13.5 5 13.5H10.5C11.0523 13.5 11.5 13.0523 11.5 12.5V3.5C11.5 2.94772 11.0523 2.5 10.5 2.5Z" fill="#5E6785"/>
<path d="M13.5 4.5H13V6.5H13.5C13.7761 6.5 14 6.27614 14 6V5C14 4.72386 13.7761 4.5 13.5 4.5Z" fill="#5E6785"/>
<path d="M13 7.5H13.5C13.7761 7.5 14 7.72386 14 8V9C14 9.27614 13.7761 9.5 13.5 9.5H13V7.5Z" fill="#5E6785"/>
<path d="M13.5 10.5H13V12.5H13.5C13.7761 12.5 14 12.2761 14 12V11C14 10.7239 13.7761 10.5 13.5 10.5Z" fill="#5E6785"/>
</svg>
