<svg width="16" height="16" viewBox="0 0 16 16" fill="none" xmlns="http://www.w3.org/2000/svg">
<path fill-rule="evenodd" clip-rule="evenodd" d="M12.2403 7.65843L14.3632 5.53553C14.7537 5.14501 14.7537 4.51185 14.3632 4.12132L11.5347 1.29289C11.1442 0.902369 10.5111 0.902369 10.1205 1.29289L8 3.41343V3.15843C8 2.60614 7.55228 2.15843 7 2.15843H2.5C1.94772 2.15843 1.5 2.60614 1.5 3.15843V13.1584C1.5 13.7107 1.94772 14.1584 2.5 14.1584H12.5C13.0523 14.1584 13.5 13.7107 13.5 13.1584V8.65843C13.5 8.10614 13.0523 7.65843 12.5 7.65843H12.2403ZM8 4.82764L10.8276 2L13.6561 4.82843L10.8276 7.65686L8 4.82921V4.82764ZM8 6.24343V7.65843L9.415 7.65843L8 6.24343ZM7 13.1584V8.65843H2.5L2.5 13.1584H7ZM7 7.65843V4.86822C6.99895 4.8417 6.99895 4.81515 7 4.78863V3.15843H2.5V7.65843H7ZM8 8.65843V13.1584H12.5V8.65843L8 8.65843Z" fill="#5E6785"/>
</svg>
