<svg width="16" height="16" viewBox="0 0 16 16" xmlns="http://www.w3.org/2000/svg">
<path fill-rule="evenodd" clip-rule="evenodd" d="M3.5 1.5C2.94772 1.5 2.5 1.94772 2.5 2.5V4C2.5 4.55228 2.94771 5 3.5 5H12.5C13.0523 5 13.5 4.55228 13.5 4V2.5C13.5 1.94772 13.0523 1.5 12.5 1.5H3.5ZM12.5 3C12.5 2.72386 12.2761 2.5 12 2.5H4C3.72386 2.5 3.5 2.72386 3.5 3L3.5 3.5C3.5 3.77614 3.72386 4 4 4H12C12.2761 4 12.5 3.77614 12.5 3.5V3Z"/>
<path fill-rule="evenodd" clip-rule="evenodd" d="M3.5 6C2.94772 6 2.5 6.44772 2.5 7V8.5C2.5 9.05228 2.94771 9.5 3.5 9.5H12.5C13.0523 9.5 13.5 9.05228 13.5 8.5V7C13.5 6.44772 13.0523 6 12.5 6H3.5ZM12.5 7.5C12.5 7.22386 12.2761 7 12 7H4C3.72386 7 3.5 7.22386 3.5 7.5L3.5 8C3.5 8.27614 3.72386 8.5 4 8.5H12C12.2761 8.5 12.5 8.27614 12.5 8V7.5Z"/>
<path fill-rule="evenodd" clip-rule="evenodd" d="M2.5 11.5C2.5 10.9477 2.94772 10.5 3.5 10.5H12.5C13.0523 10.5 13.5 10.9477 13.5 11.5V13C13.5 13.5523 13.0523 14 12.5 14H3.5C2.94771 14 2.5 13.5523 2.5 13V11.5ZM3.5 12C3.5 11.7239 3.72386 11.5 4 11.5H12C12.2761 11.5 12.5 11.7239 12.5 12V12.5C12.5 12.7761 12.2761 13 12 13H4C3.72386 13 3.5 12.7761 3.5 12.5L3.5 12Z"/>
</svg>
