<svg width="16" height="16" viewBox="0 0 16 16" xmlns="http://www.w3.org/2000/svg">
<path fill-rule="evenodd" clip-rule="evenodd" d="M5.85794 6.3489C6.81606 5.99885 7.5 5.0793 7.5 4C7.5 2.61929 6.38071 1.5 5 1.5C3.61929 1.5 2.5 2.61929 2.5 4C2.5 5.21034 3.3601 6.21978 4.50242 6.45048C4.50082 6.46677 4.5 6.48329 4.5 6.5V9.5C4.5 9.51671 4.50082 9.53323 4.50242 9.54952C3.36009 9.78022 2.5 10.7897 2.5 12C2.5 13.3807 3.61929 14.5 5 14.5C6.38071 14.5 7.5 13.3807 7.5 12C7.5 10.7897 6.63991 9.78022 5.49758 9.54952C5.49918 9.53323 5.5 9.51671 5.5 9.5V7.66548C5.78327 8.02984 6.12015 8.35358 6.5021 8.62447C7.25244 9.15664 8.13775 9.4572 9.04915 9.49576C9.27915 10.639 10.289 11.5 11.5 11.5C12.8807 11.5 14 10.3807 14 9C14 7.61929 12.8807 6.5 11.5 6.5C10.2924 6.5 9.28475 7.35624 9.05108 8.49473C8.3458 8.45727 7.6619 8.22107 7.0806 7.80879C6.55123 7.43334 6.13153 6.9293 5.85794 6.3489ZM5 5.5C5.82843 5.5 6.5 4.82843 6.5 4C6.5 3.17157 5.82843 2.5 5 2.5C4.17157 2.5 3.5 3.17157 3.5 4C3.5 4.82843 4.17157 5.5 5 5.5ZM6.5 12C6.5 12.8284 5.82843 13.5 5 13.5C4.17157 13.5 3.5 12.8284 3.5 12C3.5 11.1716 4.17157 10.5 5 10.5C5.82843 10.5 6.5 11.1716 6.5 12ZM11.5 10.5C12.3284 10.5 13 9.82843 13 9C13 8.17157 12.3284 7.5 11.5 7.5C10.6716 7.5 10 8.17157 10 9C10 9.82843 10.6716 10.5 11.5 10.5Z" />
</svg>
