<svg width="16" height="16" viewBox="0 0 16 16" xmlns="http://www.w3.org/2000/svg">
<path fill-rule="evenodd" clip-rule="evenodd" d="M10.4672 2.92813C10.5656 2.67008 10.4361 2.3812 10.178 2.28289C9.91995 2.18459 9.63106 2.31409 9.53276 2.57214L5.53276 13.0721C5.43445 13.3302 5.56395 13.6191 5.822 13.7174C6.08005 13.8157 6.36894 13.6862 6.46724 13.4281L10.4672 2.92813Z" />
<path fill-rule="evenodd" clip-rule="evenodd" d="M4.8277 4.6225C5.03627 4.80348 5.05862 5.11927 4.87764 5.32784L2.67592 7.86506L4.86168 10.1549C5.05235 10.3546 5.04499 10.6711 4.84524 10.8618C4.64549 11.0525 4.32899 11.0451 4.13832 10.8454L1.63832 8.22632C1.4602 8.03972 1.45328 7.74823 1.62236 7.55338L4.12236 4.67243C4.30335 4.46387 4.61914 4.44151 4.8277 4.6225Z" />
<path fill-rule="evenodd" clip-rule="evenodd" d="M11.1723 4.6225C10.9637 4.80348 10.9414 5.11927 11.1224 5.32784L13.3241 7.86506L11.1383 10.1549C10.9477 10.3546 10.955 10.6711 11.1548 10.8618C11.3545 11.0525 11.671 11.0451 11.8617 10.8454L14.3617 8.22632C14.5398 8.03972 14.5467 7.74823 14.3776 7.55338L11.8776 4.67243C11.6967 4.46387 11.3809 4.44151 11.1723 4.6225Z" />
</svg>
