<svg width="16" height="16" viewBox="0 0 16 16" xmlns="http://www.w3.org/2000/svg">
<path fill-rule="evenodd" clip-rule="evenodd" d="M4.82843 6.24264C5.21895 6.63316 5.85212 6.63316 6.24264 6.24264C6.63316 5.85212 6.63316 5.21895 6.24264 4.82843C5.85212 4.4379 5.21895 4.4379 4.82843 4.82843C4.4379 5.21895 4.4379 5.85212 4.82843 6.24264Z"/>
<path fill-rule="evenodd" clip-rule="evenodd" d="M2.58579 8.24264C2.21071 7.86757 2 7.35886 2 6.82843L2 3C2 2.44771 2.44772 2 3 2L6.82843 2C7.35886 2 7.86757 2.21071 8.24264 2.58579L14.0208 8.36396C14.8019 9.14501 14.8019 10.4113 14.0208 11.1924L11.1924 14.0208C10.4113 14.8019 9.14501 14.8019 8.36396 14.0208L2.58579 8.24264ZM7.53553 3.29289L13.3137 9.07107C13.7042 9.46159 13.7042 10.0948 13.3137 10.4853L10.4853 13.3137C10.0948 13.7042 9.46159 13.7042 9.07107 13.3137L3.29289 7.53553C3.10536 7.348 3 7.09364 3 6.82843L3 3L6.82843 3C7.09364 3 7.348 3.10536 7.53553 3.29289Z"/>
</svg>
