<svg width="16" height="16" viewBox="0 0 16 16" xmlns="http://www.w3.org/2000/svg">
<path fill-rule="evenodd" clip-rule="evenodd" d="M11.3335 2.5H6.8335C6.28121 2.5 5.8335 2.94772 5.8335 3.5V6C5.8335 6.27614 5.60964 6.5 5.3335 6.5C5.05735 6.5 4.8335 6.27614 4.8335 6V3.5C4.8335 2.39543 5.72893 1.5 6.8335 1.5H11.3335C12.4381 1.5 13.3335 2.39543 13.3335 3.5V12.5C13.3335 13.6046 12.4381 14.5 11.3335 14.5H6.8335C5.72893 14.5 4.8335 13.6046 4.8335 12.5V10C4.8335 9.72386 5.05735 9.5 5.3335 9.5C5.60964 9.5 5.8335 9.72386 5.8335 10V12.5C5.8335 13.0523 6.28121 13.5 6.8335 13.5H11.3335C11.8858 13.5 12.3335 13.0523 12.3335 12.5V3.5C12.3335 2.94772 11.8858 2.5 11.3335 2.5Z" />
<path fill-rule="evenodd" clip-rule="evenodd" d="M3.18705 6.64645C3.38231 6.84171 3.38231 7.15829 3.18705 7.35355L3.0406 7.5H7.8335C8.10964 7.5 8.3335 7.72386 8.3335 8C8.3335 8.27614 8.10964 8.5 7.8335 8.5H3.0406L3.18705 8.64645C3.38231 8.84171 3.38231 9.15829 3.18705 9.35355C2.99179 9.54882 2.6752 9.54882 2.47994 9.35355L1.47994 8.35355C1.28468 8.15829 1.28468 7.84171 1.47994 7.64645L2.47994 6.64645C2.6752 6.45118 2.99179 6.45118 3.18705 6.64645Z" />
</svg>
