<svg width="86" height="86" viewBox="0 0 86 86" xmlns="http://www.w3.org/2000/svg">
<path d="M50.3968 12.1135C48.1724 10.7293 45.6042 9.99707 42.9843 10C40.3644 10.0029 37.7979 10.741 35.5766 12.1302C33.3554 13.5193 31.5685 15.5039 30.4191 17.8583C30.1768 18.3546 29.5781 18.5605 29.0818 18.3182C28.5855 18.0759 28.3796 17.4772 28.6219 16.9809C29.9354 14.2902 31.9776 12.0221 34.5162 10.4345C37.0548 8.84683 39.9879 8.00337 42.9821 8.00001C45.9762 7.99665 48.9113 8.83352 51.4534 10.4155C53.9956 11.9974 56.0429 14.2609 57.3624 16.9486C57.6058 17.4444 57.4012 18.0436 56.9055 18.287C56.4097 18.5304 55.8105 18.3258 55.5671 17.8301C54.4125 15.4783 52.6212 13.4977 50.3968 12.1135Z" />
<path d="M45.7628 18.8326C44.9386 18.2862 43.9709 17.9965 42.982 18C41.9931 18.0036 41.0274 18.3003 40.2072 18.8527C39.3869 19.4051 38.7489 20.1883 38.3738 21.1033C38.1643 21.6143 37.5802 21.8587 37.0692 21.6492C36.5582 21.4397 36.3137 20.8556 36.5232 20.3446C37.0484 19.0636 37.9417 17.9671 39.09 17.1938C40.2384 16.4205 41.5903 16.0051 42.9747 16C44.3592 15.995 45.714 16.4007 46.868 17.1657C48.0219 17.9307 48.923 19.0207 49.4575 20.2978C49.6707 20.8073 49.4305 21.3932 48.921 21.6064C48.4115 21.8195 47.8257 21.5794 47.6125 21.0699C47.2308 20.1576 46.5871 19.3791 45.7628 18.8326Z" />
<path d="M48.2065 15.4623C46.6369 14.5051 44.8338 13.9992 42.9954 14C41.1569 14.0009 39.3543 14.5085 37.7855 15.4672C36.2168 16.4258 34.9427 17.7984 34.1033 19.434C33.8511 19.9253 33.2483 20.1192 32.757 19.8671C32.2656 19.6149 32.0717 19.0121 32.3239 18.5208C33.3312 16.558 34.8602 14.911 36.7426 13.7606C38.6251 12.6102 40.7883 12.001 42.9944 12C45.2006 11.999 47.3643 12.6062 49.2479 13.7548C51.1314 14.9035 52.6618 16.5491 53.671 18.5109C53.9236 19.002 53.7303 19.605 53.2391 19.8576C52.748 20.1102 52.1451 19.9169 51.8925 19.4258C51.0515 17.7909 49.7762 16.4195 48.2065 15.4623Z" />
<path d="M18.7071 40.7781C18.3166 40.3876 18.3166 39.7545 18.7071 39.3639L24.364 33.7071C24.7545 33.3166 25.3876 33.3166 25.7782 33.7071C26.1687 34.0976 26.1687 34.7308 25.7782 35.1213L20.1213 40.7781C19.7308 41.1687 19.0976 41.1687 18.7071 40.7781Z" />
<path d="M19.7071 47.2592C19.3166 47.6497 19.3166 48.2829 19.7071 48.6734C20.0976 49.0639 20.7308 49.0639 21.1213 48.6734L33.8492 35.9455C34.2398 35.555 34.2398 34.9218 33.8492 34.5313C33.4587 34.1408 32.8256 34.1408 32.435 34.5313L19.7071 47.2592Z" />
<path fill-rule="evenodd" clip-rule="evenodd" d="M47 44C47 46.2091 45.2091 48 43 48C40.7909 48 39 46.2091 39 44C39 41.7909 40.7909 40 43 40C45.2091 40 47 41.7909 47 44ZM45 44C45 45.1046 44.1046 46 43 46C41.8954 46 41 45.1046 41 44C41 42.8954 41.8954 42 43 42C44.1046 42 45 42.8954 45 44Z" />
<path fill-rule="evenodd" clip-rule="evenodd" d="M43.0104 36C36.9801 36 33.0162 42.2947 35.622 47.7329L40.8432 58.6293C41.2446 59.467 42.0911 60 43.02 60C43.9501 60 44.7975 59.4655 45.1983 58.6261L50.4037 47.7223C52.9995 42.285 49.0355 36 43.0104 36ZM43.3934 57.7645L48.5989 46.8607C50.561 42.7507 47.5647 38 43.0104 38C38.4522 38 35.456 42.7581 37.4257 46.8687L42.6468 57.765C42.7156 57.9086 42.8607 58 43.02 58C43.1794 58 43.3247 57.9084 43.3934 57.7645Z" />
<path fill-rule="evenodd" clip-rule="evenodd" d="M13 31C13 29.8954 13.8954 29 15 29H71C72.1046 29 73 29.8954 73 31V65C73 66.1046 72.1046 67 71 67H15C13.8954 67 13 66.1046 13 65V31ZM70.5 31C70.7761 31 71 31.2239 71 31.5V64.5C71 64.7761 70.7761 65 70.5 65H15.5C15.2239 65 15 64.7761 15 64.5V31.5C15 31.2239 15.2239 31 15.5 31H70.5Z" />
<path d="M36 73C36.5523 73 37 72.5523 37 72C37 71.4477 36.5523 71 36 71C35.4477 71 35 71.4477 35 72C35 72.5523 35.4477 73 36 73Z" />
<path d="M43 73C43.5523 73 44 72.5523 44 72C44 71.4477 43.5523 71 43 71C42.4477 71 42 71.4477 42 72C42 72.5523 42.4477 73 43 73Z" />
<path d="M50 73C50.5523 73 51 72.5523 51 72C51 71.4477 50.5523 71 50 71C49.4477 71 49 71.4477 49 72C49 72.5523 49.4477 73 50 73Z" />
<path fill-rule="evenodd" clip-rule="evenodd" d="M74 24C76.2091 24 78 25.7909 78 28V68.5L77.9946 68.5027C77.9011 71.0961 76.6023 73.4661 74.1818 74.4395C69.4187 76.355 59.7233 79 42.5 79C25.3218 79 16.037 76.3689 11.5551 74.4546C9.17476 73.438 8 71.013 8 68.4247C8 68.2855 8.00319 68.1471 8.00949 68.0095L8 68V28C8 25.7909 9.79086 24 12 24H74ZM12 26H74C75.1046 26 76 26.8954 76 28V68H75.9971C75.999 68.0666 76 68.1334 76 68.2005C76 70.3129 75.0078 71.9517 73.4356 72.584C68.9547 74.3859 59.5211 77 42.5 77C25.5187 77 16.5148 74.3982 12.3406 72.6153C10.9008 72.0004 10 70.4599 10 68.4247C10 68.2821 10.0043 68.1405 10.0128 68H10V28C10 26.8954 10.8954 26 12 26Z"/>
</svg>
