<svg width="86" height="86" viewBox="0 0 86 86" xmlns="http://www.w3.org/2000/svg">
<path fill-rule="evenodd" clip-rule="evenodd" d="M30 16C28.8954 16 28 16.8954 28 18V24C28 25.1046 28.8954 26 30 26H36C37.1046 26 38 25.1046 38 24V18C38 16.8954 37.1046 16 36 16H30ZM36 18.5C36 18.2239 35.7761 18 35.5 18H30.5C30.2239 18 30 18.2239 30 18.5V23.5C30 23.7761 30.2239 24 30.5 24H35.5C35.7761 24 36 23.7761 36 23.5V18.5Z" />
<path d="M29 31C28.4477 31 28 31.4477 28 32C28 32.5523 28.4477 33 29 33H32C32.5523 33 33 32.5523 33 32C33 31.4477 32.5523 31 32 31H29Z" />
<path d="M28 39C28 38.4477 28.4477 38 29 38H32C32.5523 38 33 38.4477 33 39C33 39.5523 32.5523 40 32 40H29C28.4477 40 28 39.5523 28 39Z" />
<path d="M29 45C28.4477 45 28 45.4477 28 46C28 46.5523 28.4477 47 29 47H32C32.5523 47 33 46.5523 33 46C33 45.4477 32.5523 45 32 45H29Z" />
<path d="M28 60C28 59.4477 28.4477 59 29 59H32C32.5523 59 33 59.4477 33 60C33 60.5523 32.5523 61 32 61H29C28.4477 61 28 60.5523 28 60Z" />
<path d="M29 52C28.4477 52 28 52.4477 28 53C28 53.5523 28.4477 54 29 54H32C32.5523 54 33 53.5523 33 53C33 52.4477 32.5523 52 32 52H29Z" />
<path d="M36 32C36 31.4477 36.4477 31 37 31H63C63.5523 31 64 31.4477 64 32C64 32.5523 63.5523 33 63 33H37C36.4477 33 36 32.5523 36 32Z" />
<path d="M37 38C36.4477 38 36 38.4477 36 39C36 39.5523 36.4477 40 37 40H63C63.5523 40 64 39.5523 64 39C64 38.4477 63.5523 38 63 38H37Z" />
<path d="M36 46C36 45.4477 36.4477 45 37 45H63C63.5523 45 64 45.4477 64 46C64 46.5523 63.5523 47 63 47H37C36.4477 47 36 46.5523 36 46Z" />
<path d="M37 59C36.4477 59 36 59.4477 36 60C36 60.5523 36.4477 61 37 61H63C63.5523 61 64 60.5523 64 60C64 59.4477 63.5523 59 63 59H37Z" />
<path d="M36 53C36 52.4477 36.4477 52 37 52H63C63.5523 52 64 52.4477 64 53C64 53.5523 63.5523 54 63 54H37C36.4477 54 36 53.5523 36 53Z" />
<path fill-rule="evenodd" clip-rule="evenodd" d="M72 24.3966C72 24.1418 71.9028 23.8967 71.7282 23.7112L56.2961 7.31464C56.1072 7.11385 55.8437 7 55.5679 7H24C21.7909 7 20 8.79086 20 11V12H17C14.7909 12 13 13.7909 13 16V75C13 77.2091 14.7909 79 17 79H62C64.2091 79 66 77.2091 66 75V72H68C70.2091 72 72 70.2091 72 68V24.3966ZM64 72V75C64 76.1046 63.1046 77 62 77H17C15.8954 77 15 76.1046 15 75V16C15 14.8954 15.8954 14 17 14H20V68C20 70.2091 21.7909 72 24 72H64ZM70 26V68C70 69.1046 69.1046 70 68 70H24C22.8954 70 22 69.1046 22 68V11C22 9.89543 22.8954 9 24 9H54V25C54 25.5523 54.4477 26 55 26H70ZM69.2535 24L56 9.91816V24H69.2535Z" />
</svg>
