<svg width="38" height="16" viewBox="0 0 38 16" fill="none" xmlns="http://www.w3.org/2000/svg">
<rect width="38" height="16" rx="8" fill="#D9A54C"/>
<path d="M12.3628 8.00732C12.3628 8.63428 12.2573 9.18213 12.0464 9.65088C11.8354 10.1167 11.5366 10.4727 11.1499 10.7188C10.7632 10.9648 10.312 11.0879 9.79639 11.0879C9.29248 11.0879 8.8457 10.9648 8.45605 10.7188C8.06641 10.4697 7.76318 10.1167 7.54639 9.65967C7.33252 9.19971 7.22266 8.66797 7.2168 8.06445V7.60303C7.2168 6.98779 7.32373 6.44434 7.5376 5.97266C7.75146 5.50098 8.05322 5.14062 8.44287 4.8916C8.83545 4.63965 9.28369 4.51367 9.7876 4.51367C10.3003 4.51367 10.7515 4.63818 11.1411 4.88721C11.5337 5.1333 11.8354 5.49219 12.0464 5.96387C12.2573 6.43262 12.3628 6.979 12.3628 7.60303V8.00732ZM11.5234 7.59424C11.5234 6.83545 11.3711 6.25391 11.0664 5.84961C10.7617 5.44238 10.3354 5.23877 9.7876 5.23877C9.25439 5.23877 8.83398 5.44238 8.52637 5.84961C8.22168 6.25391 8.06494 6.81641 8.05615 7.53711V8.00732C8.05615 8.74268 8.20996 9.32129 8.51758 9.74316C8.82812 10.1621 9.25439 10.3716 9.79639 10.3716C10.3413 10.3716 10.7632 10.1738 11.062 9.77832C11.3608 9.37988 11.5146 8.81006 11.5234 8.06885V7.59424ZM18.5459 11H17.6978L14.4766 6.06934V11H13.6284V4.60156H14.4766L17.7065 9.5542V4.60156H18.5459V11Z" fill="white"/>
<path d="M30 14C33.3137 14 36 11.3137 36 8C36 4.68629 33.3137 2 30 2C26.6863 2 24 4.68629 24 8C24 11.3137 26.6863 14 30 14Z" fill="#FFECB8"/>
</svg>
